{"glyphs":{"0":{"ha":522,"x_min":3,"x_max":514,"o":"m 486 624 q 506 390 514 529 q 463 163 499 250 q 371 49 431 86 q 249 19 311 13 q 129 68 188 25 q 43 181 71 111 q 20 418 3 288 q 97 646 38 549 q 226 753 146 721 q 382 754 306 786 q 486 624 458 722 m 419 181 q 460 393 453 263 q 442 610 467 524 q 254 635 381 817 q 175 423 194 550 q 193 199 156 296 q 263 88 225 122 q 342 75 300 54 q 419 181 385 96 z "},"1":{"ha":296,"x_min":13,"x_max":296,"o":"m 265 775 q 268 694 296 764 q 204 392 228 586 q 176 32 181 199 q 160 0 176 13 q 123 -15 144 -12 q 79 -15 101 -18 q 42 -1 57 -12 q 28 28 28 11 q 53 374 32 190 q 113 679 75 557 q 51 624 74 640 q 28 621 40 615 q 15 638 17 626 q 25 663 13 650 q 47 681 32 668 q 73 703 61 693 q 102 725 85 713 q 134 747 119 738 q 167 765 149 756 q 200 777 185 774 q 233 781 215 781 q 265 775 250 781 z "},"2":{"ha":513,"x_min":-6,"x_max":510,"o":"m 497 661 q 481 592 493 631 q 453 518 468 553 q 413 436 439 483 q 370 358 388 389 q 322 278 353 328 q 278 207 292 228 q 233 140 264 186 q 199 88 203 94 q 192 74 192 78 q 201 67 192 71 q 274 56 247 56 q 358 62 300 57 q 454 65 417 67 q 479 42 478 64 q 454 14 481 18 q 443 13 449 13 q 316 8 414 14 q 145 5 218 1 q 38 31 72 8 q 31 114 -6 60 q 76 184 31 115 q 141 282 122 253 q 201 381 160 311 q 263 494 242 451 q 302 591 283 538 q 324 681 321 644 q 275 760 328 744 q 185 731 225 774 q 150 653 156 700 q 150 565 147 622 q 132 522 154 528 q 106 544 113 517 q 104 553 104 549 q 103 660 97 608 q 218 794 114 753 q 416 797 322 835 q 497 661 510 760 z "},"3":{"ha":607,"x_min":14,"x_max":601,"o":"m 408 461 q 511 409 464 457 q 580 298 558 361 q 586 165 601 235 q 513 51 571 94 q 383 -6 454 8 q 248 -9 311 -21 q 131 38 185 3 q 45 122 76 72 q 15 236 14 171 q 56 369 15 301 q 82 392 67 389 q 101 382 97 394 q 92 347 104 369 q 85 153 31 256 q 235 37 140 50 q 410 122 331 24 q 435 219 439 167 q 410 317 431 272 q 351 390 389 363 q 272 411 313 418 q 218 427 231 404 q 239 475 206 450 q 436 710 446 629 q 365 774 431 750 q 236 771 299 797 q 176 664 174 744 q 156 621 178 626 q 131 644 138 618 q 129 658 129 651 q 201 796 125 750 q 374 834 276 842 q 533 781 471 826 q 581 707 576 750 q 556 619 585 664 q 491 536 528 575 q 408 461 454 497 z "},"4":{"ha":594,"x_min":0,"x_max":583,"o":"m 436 594 q 511 625 450 624 q 581 594 574 626 q 575 569 582 583 q 465 306 492 407 q 436 35 438 204 q 399 -10 436 1 q 326 -8 363 -22 q 289 35 289 6 q 325 336 290 218 q 172 303 219 310 q 32 314 75 289 q 28 375 0 333 q 231 764 111 501 q 281 790 242 789 q 351 775 319 792 q 374 742 382 758 q 315 619 360 715 q 238 463 269 524 q 168 346 206 403 q 343 390 222 354 q 436 594 375 479 z "},"5":{"ha":599,"x_min":11,"x_max":592,"o":"m 288 504 q 403 501 340 524 q 511 428 467 478 q 574 311 556 378 q 553 176 592 244 q 456 66 517 110 q 328 9 394 22 q 199 5 263 -4 q 87 54 136 14 q 17 156 38 94 q 19 181 11 172 q 40 187 28 189 q 57 174 53 185 q 172 59 88 96 q 337 57 257 22 q 431 197 417 92 q 372 359 443 288 q 211 428 301 431 q 133 432 143 428 q 132 467 117 440 q 228 663 208 600 q 204 662 219 663 q 182 661 189 661 q 162 673 167 661 q 163 697 157 685 q 181 708 169 708 q 370 725 244 710 q 560 742 496 740 q 581 730 574 742 q 582 706 588 718 q 561 694 576 694 q 363 676 493 693 q 288 504 343 607 z "},"6":{"ha":532,"x_min":3,"x_max":531,"o":"m 390 478 q 499 369 467 454 q 513 191 531 285 q 444 38 496 97 q 294 -31 392 -24 q 128 11 196 -39 q 25 183 47 71 q 32 408 3 294 q 131 624 61 522 q 290 769 201 726 q 385 763 325 786 q 426 708 442 739 q 382 675 418 690 q 262 565 314 646 q 188 392 210 485 q 178 203 167 299 q 238 54 189 108 q 320 15 274 13 q 408 68 367 18 q 465 194 450 115 q 458 343 481 272 q 376 433 435 414 q 290 406 335 446 q 267 401 279 396 q 253 419 256 407 q 258 440 250 431 q 390 478 322 500 z "},"7":{"ha":458,"x_min":10,"x_max":444,"o":"m 393 440 q 416 428 410 440 q 415 404 422 417 q 389 392 407 392 q 333 390 351 392 q 239 28 250 133 q 199 -15 235 -6 q 128 -10 163 -24 q 96 22 94 3 q 186 385 104 131 q 135 383 169 383 q 112 395 119 383 q 110 419 104 407 q 136 431 117 431 q 169 431 147 431 q 203 432 192 432 l 299 714 q 50 708 194 715 q 19 719 29 708 q 17 743 10 731 q 46 756 25 756 q 418 761 292 767 q 444 728 444 760 q 427 663 444 715 q 383 536 410 610 q 350 439 357 463 q 372 440 357 439 q 393 440 386 440 z "},"8":{"ha":469,"x_min":13,"x_max":561,"o":"m 299 456 q 389 40 561 238 q 245 -35 331 -26 q 92 8 160 -44 q 15 153 24 60 q 17 210 13 183 q 34 263 21 238 q 58 306 47 288 q 94 347 69 324 q 133 382 119 371 q 179 418 147 393 q 222 453 211 443 q 141 514 172 488 q 81 576 110 540 q 49 644 53 611 q 66 716 46 676 q 138 796 86 756 q 249 837 186 835 q 364 803 313 839 q 431 703 415 767 q 299 456 457 592 m 260 761 q 165 623 164 696 q 260 485 167 550 q 382 693 400 604 q 331 774 367 758 q 260 761 296 789 m 342 215 q 261 424 360 344 q 212 385 254 418 q 151 335 169 353 q 105 287 133 318 q 68 224 76 256 q 67 161 60 193 q 144 89 81 100 q 271 115 208 78 q 342 215 333 153 z "},"9":{"ha":532,"x_min":3,"x_max":531,"o":"m 404 731 q 508 560 486 672 q 501 334 531 447 q 402 119 472 221 q 243 -26 332 17 q 150 -21 210 -43 q 106 32 93 1 q 151 67 113 50 q 272 176 219 96 q 345 351 324 257 q 356 539 367 444 q 296 688 344 633 q 212 726 258 729 q 124 674 165 724 q 68 548 83 626 q 75 399 53 469 q 156 310 97 328 q 243 338 200 296 q 265 342 253 347 q 279 324 276 336 q 275 301 282 311 q 142 264 213 243 q 34 373 65 289 q 19 551 3 457 q 88 706 36 646 q 239 774 140 767 q 404 731 338 781 z "},"\u0000":{"ha":0,"x_min":0,"x_max":0,"o":""},"\r":{"ha":472,"x_min":0,"x_max":0,"o":""}," ":{"ha":472,"x_min":0,"x_max":0,"o":""},"!":{"ha":238,"x_min":49,"x_max":188,"o":"m 56 594 q 119 618 56 618 q 182 594 182 618 l 182 192 q 119 168 182 168 q 56 192 56 168 l 56 594 m 115 93 q 174 72 161 93 q 170 26 188 50 q 122 -1 153 3 q 71 17 93 -6 q 59 66 49 40 q 115 93 69 92 z "},"\"":{"ha":376,"x_min":51,"x_max":322,"o":"m 151 725 q 180 679 179 713 q 154 612 181 646 q 86 567 128 578 q 59 576 67 563 q 64 600 51 590 q 85 612 65 601 q 108 624 106 622 q 62 662 67 622 q 89 722 57 701 q 151 725 115 740 m 292 725 q 321 679 319 713 q 296 612 322 646 q 226 567 269 578 q 200 576 207 563 q 204 600 193 590 q 226 611 206 600 q 249 624 247 622 q 202 662 207 622 q 231 722 197 701 q 292 725 257 740 z "},"#":{"ha":668,"x_min":51,"x_max":611,"o":"m 349 450 q 303 276 322 378 l 411 293 q 447 450 426 385 q 485 465 453 464 q 546 454 518 465 q 568 429 574 443 q 536 299 554 392 q 588 303 561 303 q 611 278 611 303 q 588 253 611 253 q 526 249 558 253 q 515 164 524 219 l 543 164 q 568 139 568 164 q 543 114 568 114 q 508 111 521 114 q 493 -8 504 69 q 426 -26 488 -32 q 371 0 371 -21 q 383 104 382 93 q 321 95 363 101 q 269 88 279 89 q 261 32 267 74 q 249 -32 256 -10 q 179 -49 240 -54 q 126 -19 124 -42 q 138 35 132 -3 q 143 75 143 72 q 104 71 122 71 q 83 83 89 71 q 83 108 76 96 q 104 121 89 121 q 154 126 132 121 q 168 214 156 144 q 82 203 139 208 q 58 215 65 203 q 58 240 51 228 q 82 253 65 253 q 178 264 103 253 q 228 463 199 388 q 297 478 236 485 q 349 450 351 469 m 392 157 q 403 243 393 175 q 293 226 393 242 q 278 138 290 207 q 331 147 292 140 q 392 157 369 154 z "},"$":{"ha":415,"x_min":24,"x_max":490,"o":"m 226 449 q 226 10 490 113 l 226 -49 q 200 -74 226 -74 q 174 -49 174 -74 l 174 11 q 94 106 114 31 q 119 250 75 181 q 128 249 121 253 q 140 239 135 246 q 142 228 144 232 q 124 126 111 174 q 174 51 136 79 l 174 289 q 67 492 85 435 q 174 664 25 626 l 174 708 q 200 732 174 732 q 226 708 226 732 l 226 668 q 335 646 264 667 q 342 635 342 644 q 336 620 342 626 q 324 617 331 614 q 226 638 263 636 l 226 449 m 174 631 q 150 618 156 631 q 149 587 144 606 q 160 552 154 568 q 174 525 167 536 l 174 631 m 226 39 q 226 193 281 67 l 226 39 z "},"%":{"ha":599,"x_min":53,"x_max":546,"o":"m 285 371 q 241 295 279 321 q 157 277 203 269 q 85 321 111 285 q 58 392 63 351 q 68 465 53 432 q 135 522 88 508 q 228 513 183 536 q 283 438 274 490 q 285 371 289 407 m 238 372 q 240 432 243 415 q 214 478 239 468 q 186 453 192 488 q 185 439 185 446 q 188 371 182 411 q 202 331 192 340 q 223 333 213 321 q 238 372 233 346 m 403 514 q 432 510 419 524 q 438 481 444 496 q 226 -8 313 235 q 202 -32 226 -32 q 178 -8 178 -32 q 278 267 204 93 q 403 514 353 442 m 531 189 q 541 115 546 156 q 514 46 536 75 q 442 0 488 8 q 358 17 396 -8 q 314 94 319 43 q 315 161 310 132 q 370 237 325 214 q 463 246 415 260 q 531 189 511 232 m 411 94 q 414 163 417 135 q 389 203 411 204 q 361 171 368 200 q 358 156 358 164 q 361 97 356 138 q 376 57 365 69 q 397 54 386 44 q 411 94 407 64 z "},"&":{"ha":804,"x_min":60,"x_max":733,"o":"m 644 -162 q 519 -148 608 -165 q 353 -113 431 -131 q 204 -101 275 -96 q 117 -147 133 -106 q 88 -161 110 -167 q 75 -118 61 -154 q 153 -58 96 -72 q 275 -55 210 -43 q 411 -80 340 -67 q 530 -103 482 -93 q 599 -94 578 -112 q 606 -80 604 -89 q 603 -60 607 -71 q 595 -37 600 -49 q 582 -11 590 -25 q 566 14 574 3 q 548 38 558 25 q 531 58 538 50 q 517 76 525 67 q 508 86 510 85 q 289 0 408 -14 q 199 38 228 8 q 171 105 171 68 q 190 189 171 142 q 233 274 208 236 q 288 349 258 313 q 263 384 272 369 q 242 422 254 399 q 226 465 231 446 q 222 506 221 483 q 232 547 222 528 q 301 608 253 593 q 395 605 349 624 q 463 544 442 586 q 411 374 493 476 q 499 274 444 332 q 569 196 553 215 q 675 274 604 235 q 707 259 697 282 q 694 225 717 236 q 601 154 629 192 q 647 96 626 124 q 690 31 667 68 q 723 -37 714 -7 q 733 -95 732 -67 q 711 -141 733 -124 q 644 -162 689 -158 m 476 126 q 399 215 451 156 q 319 308 347 274 q 280 260 299 285 q 243 200 261 235 q 220 138 225 165 q 231 85 215 110 q 289 51 247 61 q 388 64 335 40 q 476 126 440 88 m 381 415 q 410 531 431 479 q 392 553 403 546 q 369 553 382 560 q 350 525 357 546 q 381 415 336 482 z "},"'":{"ha":235,"x_min":51,"x_max":181,"o":"m 150 725 q 179 679 178 713 q 154 612 181 646 q 85 567 128 578 q 58 576 65 563 q 63 600 51 590 q 85 611 64 600 q 107 624 106 622 q 60 662 65 622 q 89 722 56 701 q 150 725 115 740 z "},"(":{"ha":382,"x_min":50,"x_max":347,"o":"m 194 585 q 286 596 231 610 q 315 563 329 585 q 299 549 311 556 q 207 405 236 507 q 183 198 178 303 q 222 4 189 93 q 304 -104 256 -85 q 310 -140 347 -121 q 222 -153 267 -162 q 208 -149 214 -151 q 103 -17 143 -117 q 56 197 63 82 q 85 422 50 311 q 194 585 121 533 z "},")":{"ha":382,"x_min":35,"x_max":332,"o":"m 188 -137 q 96 -149 151 -162 q 67 -115 53 -137 q 83 -101 71 -108 q 175 42 146 -60 q 199 249 204 144 q 160 443 193 354 q 78 551 126 532 q 72 588 35 568 q 160 600 115 610 q 174 596 168 599 q 279 465 239 564 q 326 251 319 365 q 297 25 332 136 q 188 -137 261 -86 z "},"*":{"ha":399,"x_min":47,"x_max":351,"o":"m 235 694 q 240 626 238 638 q 306 685 275 665 q 339 676 326 697 q 331 643 351 656 q 256 569 292 614 q 270 560 261 567 q 285 551 279 554 q 299 520 307 543 q 268 506 292 497 q 257 511 263 507 l 258 468 q 238 444 263 453 q 184 438 213 435 q 153 457 156 442 q 152 486 153 461 q 151 514 151 511 q 126 486 132 494 q 103 476 117 474 q 84 490 89 478 q 86 517 79 503 q 129 567 88 518 q 63 632 97 594 q 61 664 47 647 q 93 668 75 681 q 113 650 104 660 q 132 632 122 640 q 130 667 131 646 q 129 694 129 688 q 182 719 129 719 q 235 694 235 719 z "},"+":{"ha":393,"x_min":56,"x_max":338,"o":"m 242 383 q 249 308 242 349 q 313 307 296 307 q 338 282 338 307 q 313 257 338 257 q 254 258 297 257 q 261 179 261 193 q 234 157 261 163 q 181 159 207 151 q 156 182 156 167 q 147 260 156 201 q 79 265 92 265 q 56 290 56 265 q 79 314 56 314 q 143 310 85 314 q 136 385 136 363 q 163 406 136 400 q 215 406 189 413 q 242 383 242 399 z "},",":{"ha":235,"x_min":51,"x_max":181,"o":"m 64 -22 q 87 -11 65 -22 q 110 0 108 0 q 63 40 67 0 q 90 99 58 79 q 150 100 117 115 q 179 56 178 89 q 154 -10 181 24 q 85 -57 128 -44 q 58 -47 65 -61 q 64 -22 51 -33 z "},"-":{"ha":379,"x_min":56,"x_max":324,"o":"m 299 268 q 324 243 324 268 q 299 218 324 218 l 81 218 q 56 243 56 218 q 81 268 56 268 l 299 268 z "},".":{"ha":236,"x_min":47,"x_max":188,"o":"m 115 93 q 174 73 161 94 q 169 27 188 51 q 121 -1 151 3 q 69 18 92 -6 q 58 67 47 42 q 115 93 68 93 z "},"/":{"ha":440,"x_min":56,"x_max":390,"o":"m 261 660 q 301 685 267 681 q 363 678 335 690 q 383 643 390 665 q 346 538 378 628 q 292 381 314 447 q 241 226 269 314 q 197 74 213 138 q 179 -22 181 10 q 148 -49 179 -42 q 86 -49 117 -57 q 56 -22 56 -42 q 85 123 57 24 q 141 308 113 222 q 210 513 169 394 q 261 660 251 632 z "},":":{"ha":236,"x_min":47,"x_max":188,"o":"m 115 93 q 174 72 161 93 q 169 26 188 50 q 121 -1 151 3 q 70 17 92 -6 q 58 66 49 40 q 115 93 68 92 m 121 214 q 69 233 92 210 q 58 283 47 257 q 115 308 68 308 q 174 288 161 310 q 169 242 188 267 q 121 214 151 218 z "},";":{"ha":236,"x_min":47,"x_max":188,"o":"m 121 214 q 69 233 92 210 q 58 283 47 257 q 115 308 68 308 q 174 288 161 310 q 169 242 188 267 q 121 214 151 218 m 64 -22 q 87 -11 65 -22 q 110 0 108 0 q 63 40 67 0 q 90 99 58 79 q 150 100 117 115 q 179 56 178 89 q 154 -10 181 24 q 85 -57 128 -44 q 58 -47 65 -61 q 64 -22 51 -33 z "},"<":{"ha":458,"x_min":53,"x_max":418,"o":"m 357 421 q 176 296 249 360 q 288 209 211 278 q 393 135 364 140 q 385 94 417 135 q 321 47 347 49 q 176 143 293 51 q 57 249 60 235 q 170 361 53 279 q 347 471 288 443 q 376 451 371 475 q 357 421 382 426 z "},"=":{"ha":379,"x_min":56,"x_max":324,"o":"m 81 279 q 56 304 56 279 q 81 329 56 329 l 299 329 q 324 304 324 329 q 299 279 324 279 l 81 279 m 299 208 q 324 183 324 208 q 299 158 324 158 l 81 158 q 56 183 56 158 q 81 208 56 208 l 299 208 z "},">":{"ha":458,"x_min":40,"x_max":406,"o":"m 101 103 q 282 228 210 164 q 171 315 247 246 q 65 389 94 383 q 74 429 42 389 q 138 476 111 475 q 282 381 165 472 q 401 275 399 289 q 288 163 406 244 q 111 53 171 81 q 82 73 88 49 q 101 103 76 97 z "},"?":{"ha":456,"x_min":42,"x_max":428,"o":"m 300 603 q 409 493 390 578 q 361 322 428 408 q 313 271 347 303 q 261 212 279 239 q 240 150 243 185 q 178 126 240 126 q 115 150 115 126 q 139 231 121 200 q 194 296 157 261 q 250 353 232 331 q 288 442 283 396 q 257 525 292 489 q 150 541 203 571 q 90 438 97 511 q 66 413 90 413 q 42 438 42 413 q 128 581 50 533 q 300 603 207 628 m 174 68 q 233 47 219 68 q 228 1 246 25 q 181 -26 211 -22 q 129 -8 151 -31 q 117 41 107 15 q 174 68 128 67 z "},"@":{"ha":829,"x_min":56,"x_max":771,"o":"m 496 257 q 444 246 457 251 q 399 198 417 233 q 383 136 382 163 q 389 100 383 110 q 413 125 397 94 q 448 192 428 156 q 485 236 468 229 q 527 237 492 240 q 568 226 563 233 q 587 155 583 211 q 602 61 590 99 q 650 39 614 24 q 699 100 681 51 q 708 213 718 149 q 650 324 697 278 q 499 392 590 382 q 333 357 408 401 q 255 281 288 329 q 212 180 222 233 q 206 72 201 126 q 238 -25 210 17 q 310 -90 267 -67 q 423 -106 353 -114 q 578 -54 493 -99 q 601 -53 592 -49 q 610 -69 611 -57 q 594 -89 608 -81 q 189 -125 342 -217 q 71 72 86 -61 q 143 317 57 208 q 319 431 210 401 q 513 438 413 458 q 681 351 614 417 q 751 230 731 301 q 749 94 771 158 q 665 4 726 29 q 533 19 586 -28 q 478 153 479 67 q 417 56 438 75 q 296 43 343 -14 q 269 176 256 92 q 360 308 283 276 q 436 319 394 322 q 521 283 499 315 q 507 258 535 263 q 496 257 503 257 z "},"A":{"ha":864,"x_min":0,"x_max":1021,"o":"m 978 -149 q 995 -144 985 -142 q 1013 -158 1006 -147 q 1015 -178 1021 -169 q 936 -239 979 -226 q 842 -215 893 -251 q 689 397 726 -119 q 629 376 675 393 q 556 356 583 360 q 474 220 526 294 q 344 77 422 146 q 200 1 267 8 q 93 22 142 -6 q 22 90 44 49 q 11 183 0 132 q 72 274 22 235 q 102 283 88 285 q 116 267 117 281 q 96 239 115 253 q 55 194 67 218 q 50 151 43 169 q 72 117 57 132 q 112 102 88 103 q 160 111 136 101 q 346 351 247 153 q 286 368 315 354 q 281 384 278 374 q 293 403 283 394 q 307 410 303 413 q 369 400 336 397 q 525 874 425 519 q 585 909 533 901 q 685 902 636 917 q 736 861 735 888 q 735 657 739 811 q 733 453 731 503 q 783 436 764 450 q 792 415 796 425 q 774 400 788 406 q 754 399 761 394 q 736 404 747 401 q 871 -179 771 -94 q 978 -149 924 -222 m 582 411 q 628 428 590 414 q 686 446 665 442 l 693 758 q 664 661 686 736 q 620 517 642 586 q 582 411 599 447 z "},"B":{"ha":686,"x_min":-93,"x_max":663,"o":"m 435 374 q 554 313 506 367 q 617 110 629 232 q 517 -75 606 -11 q 369 -124 449 -122 q 237 -72 290 -125 q 196 81 183 -18 q 210 95 197 90 q 234 94 222 100 q 244 71 246 88 q 254 -12 240 19 q 291 -51 268 -44 q 344 -37 314 -57 q 399 28 374 -17 q 424 158 432 85 q 371 281 417 232 q 275 324 333 319 q 206 347 218 326 q 243 399 193 367 q 416 572 324 447 q 419 729 508 696 q 169 654 325 768 l 169 42 q 128 8 169 19 q 47 4 88 -4 q 6 38 6 13 l 6 579 q -44 518 -25 551 q -73 516 -53 504 q -86 542 -93 528 q 6 643 -60 590 l 6 711 q 47 758 6 743 q 128 765 88 772 q 169 738 169 758 l 169 713 q 303 778 224 746 q 454 811 383 810 q 638 714 610 817 q 579 507 663 624 q 435 374 522 428 z "},"C":{"ha":581,"x_min":-22,"x_max":635,"o":"m 586 307 q 601 328 588 322 q 624 324 614 333 q 632 299 635 315 q 510 71 611 188 q 293 -79 408 -46 q 42 28 113 -132 q 26 399 -21 169 q 192 764 72 626 q 456 865 314 904 q 551 790 528 846 q 543 678 575 733 q 442 601 511 622 q 417 606 426 597 q 412 628 408 615 q 432 647 415 642 q 513 726 493 669 q 497 797 532 779 q 454 800 481 806 q 292 614 372 783 q 192 242 204 431 q 275 6 178 39 l 299 0 q 474 94 382 -7 q 586 307 567 194 z "},"D":{"ha":772,"x_min":-57,"x_max":729,"o":"m 385 821 q 588 782 504 843 q 701 609 672 721 q 723 371 729 497 q 660 126 717 244 q 513 -57 603 7 q 328 -118 435 -112 q 147 -62 222 -124 q 135 -22 119 -39 q 178 -26 150 -6 q 297 -57 238 -68 q 406 4 357 -46 q 497 159 461 61 q 541 360 533 257 q 536 557 549 464 q 481 709 524 650 q 374 765 438 768 q 199 675 294 763 q 202 360 199 568 q 206 78 206 151 q 189 19 206 40 q 147 -3 172 -3 q 97 6 122 -3 q 54 36 72 15 q 36 79 36 57 q 31 346 35 176 q 25 588 26 515 q -12 544 -3 557 q -37 535 -24 532 q -53 549 -50 538 q -49 575 -57 561 q 25 656 -11 619 q 31 771 25 688 q 75 828 32 813 q 160 827 118 843 q 200 775 201 811 q 199 738 199 764 q 280 785 225 758 q 385 821 335 811 z "},"E":{"ha":644,"x_min":6,"x_max":683,"o":"m 642 268 q 654 277 643 276 q 674 272 665 278 q 682 260 683 267 q 574 90 660 157 q 386 0 488 22 q 253 -5 317 -14 q 144 38 190 4 q 63 115 97 71 q 17 217 29 160 q 12 328 6 274 q 53 438 18 383 q 146 535 88 493 q 172 551 167 549 q 136 588 151 564 q 142 772 88 671 q 299 896 197 874 q 531 842 461 932 q 554 707 576 779 q 492 640 536 656 q 465 654 471 633 q 483 689 458 676 q 513 756 517 706 q 475 830 508 806 q 392 826 442 854 q 323 728 347 794 q 324 613 299 661 q 406 579 343 579 q 425 555 425 578 q 406 531 425 532 q 319 496 363 526 q 233 383 264 457 q 206 239 203 310 q 258 115 210 168 q 396 63 307 63 q 552 122 479 63 q 642 268 625 181 z "},"F":{"ha":694,"x_min":-4,"x_max":878,"o":"m 871 868 q 822 836 850 849 q 772 817 794 824 q 713 810 750 811 q 658 810 676 810 q 594 814 639 811 q 536 818 550 817 q 501 519 526 653 q 683 539 596 538 q 702 527 697 539 q 700 503 707 515 q 681 492 693 492 q 492 468 586 490 q 476 388 489 453 q 457 296 463 324 q 435 207 451 268 q 407 114 419 146 q 373 35 394 82 q 329 -38 351 -12 q 276 -87 307 -64 q 210 -118 244 -110 q 60 -46 119 -139 q 15 185 -4 51 q 185 443 39 354 q 306 493 239 475 q 356 815 346 706 q 122 708 204 813 q 85 700 106 686 q 82 733 65 714 q 225 835 139 804 q 399 865 311 867 q 570 857 486 864 q 726 857 654 850 q 833 899 799 864 q 857 904 843 908 q 874 888 871 900 q 871 868 878 876 m 165 -29 q 201 33 183 -14 q 235 144 219 79 q 261 263 250 208 q 283 375 272 317 q 294 440 293 433 q 72 226 115 386 q 83 21 42 117 q 147 -37 111 -44 q 165 -29 157 -36 z "},"G":{"ha":714,"x_min":-19,"x_max":647,"o":"m 475 578 q 495 597 476 590 q 539 605 514 604 q 589 603 564 606 q 631 592 614 600 q 646 571 647 583 q 637 491 643 551 q 626 394 631 431 q 613 294 622 358 q 596 186 604 229 q 573 83 588 143 q 543 -19 558 22 q 505 -106 528 -60 q 456 -183 482 -153 q 397 -236 431 -212 q 326 -268 364 -260 q 172 -217 232 -290 q 133 -30 111 -143 q 268 158 154 83 q 299 151 292 174 q 283 114 306 129 q 178 -76 174 38 q 224 -182 179 -151 q 282 -179 254 -204 q 374 22 332 -136 q 440 331 417 181 q 224 219 346 229 q 25 350 72 207 q 40 663 -18 482 q 217 928 100 843 q 404 972 306 993 q 490 914 472 958 q 478 825 508 869 q 393 764 449 781 q 374 768 382 761 q 369 786 367 775 q 386 801 372 797 q 451 868 438 819 q 433 919 464 908 q 404 921 422 925 q 304 826 354 911 q 224 640 254 742 q 196 440 194 538 q 240 307 197 342 q 347 305 289 269 q 453 413 406 340 q 475 578 461 467 z "},"H":{"ha":797,"x_min":-6,"x_max":901,"o":"m 869 -156 q 892 -160 882 -151 q 901 -183 901 -169 q 888 -200 900 -196 q 724 -118 785 -240 q 644 526 636 53 q 440 482 517 510 q 404 208 421 276 q 226 -15 358 31 q 64 26 133 -47 q 8 207 -4 99 q 178 443 24 351 q 267 486 218 468 q 285 890 272 554 q 333 947 286 929 q 426 953 381 965 q 472 907 472 940 q 444 533 472 869 q 646 575 540 563 q 661 847 650 738 q 675 862 663 858 q 699 859 688 865 q 708 842 710 853 q 690 545 694 710 q 703 191 686 381 q 763 -90 719 1 q 869 -156 803 -179 m 171 69 q 230 225 207 108 q 261 433 253 342 q 57 224 83 358 q 88 82 40 139 q 161 61 125 36 q 171 69 167 65 z "},"I":{"ha":603,"x_min":-72,"x_max":557,"o":"m 394 924 q 500 808 460 899 q 549 600 540 718 q 533 351 557 482 q 458 112 508 219 q 317 -64 407 4 q 115 -125 228 -132 q -2 -85 44 -121 q -60 -1 -49 -50 q -66 99 -72 49 q -31 186 -60 149 q 39 231 -1 224 q 69 215 68 236 q 39 182 72 193 q -25 94 -14 164 q 6 -26 -36 24 q 122 -42 47 -75 q 269 111 206 -6 q 359 362 333 228 q 374 628 385 496 q 311 828 364 761 q 249 859 278 871 q 217 813 219 847 q 232 758 215 778 q 244 719 251 742 q 214 714 238 701 q 168 818 153 746 q 249 919 183 886 q 394 924 315 953 z "},"J":{"ha":725,"x_min":-11,"x_max":674,"o":"m 582 889 q 636 791 614 879 q 666 575 658 703 q 661 301 674 447 q 617 28 649 154 q 523 -183 586 -97 q 374 -272 460 -268 q 165 -194 260 -278 q 51 11 69 -111 q 63 125 43 71 q 121 208 83 179 q 206 241 158 236 q 297 207 253 246 q 346 110 344 168 q 299 14 347 51 q 276 13 288 6 q 265 32 265 19 q 275 57 264 44 q 299 114 303 81 q 268 171 296 147 q 145 165 204 222 q 99 18 86 108 q 142 -97 107 -43 q 229 -172 176 -150 q 346 -153 282 -194 q 465 124 425 -99 q 494 567 506 346 q 431 851 482 789 q 422 853 426 856 q 299 812 386 835 q 148 758 211 789 q 63 679 85 728 q 86 580 39 624 q 213 528 133 536 q 240 513 232 526 q 238 489 247 500 q 203 479 228 478 q 48 551 107 488 q 15 689 -11 615 q 106 791 39 756 q 269 851 172 826 q 406 897 367 876 q 478 902 413 904 q 582 889 543 900 z "},"K":{"ha":583,"x_min":-14,"x_max":717,"o":"m 247 854 q 249 724 247 822 q 249 572 250 625 q 409 649 349 581 q 510 828 469 717 q 528 844 515 843 q 549 835 540 844 q 556 814 558 825 q 358 553 479 614 q 367 361 354 468 q 414 142 381 254 q 516 -51 447 29 q 676 -139 585 -131 q 714 -164 713 -142 q 694 -185 717 -181 q 676 -186 686 -187 q 525 -125 592 -181 q 418 10 458 -69 q 351 188 378 89 q 316 373 325 286 q 310 535 307 460 q 247 524 278 525 q 176 0 242 243 q 119 -40 168 -31 q 28 -31 69 -50 q -4 31 -14 -11 q 42 311 26 147 q 61 585 58 475 q 64 869 64 694 q 110 907 64 900 q 201 898 156 914 q 247 854 247 882 z "},"L":{"ha":592,"x_min":-36,"x_max":919,"o":"m 892 -100 q 911 -108 903 -99 q 919 -128 919 -117 q 907 -142 918 -139 q 720 -172 793 -165 q 586 -165 647 -179 q 483 -124 525 -150 q 375 -46 440 -99 q 93 -103 226 -179 q -10 24 17 -58 q 10 132 -35 101 q 236 71 74 176 q 283 402 269 118 q 297 883 297 686 q 343 922 297 914 q 435 913 389 929 q 481 868 481 896 q 404 -8 481 121 q 455 -47 424 -21 q 503 -84 486 -72 q 558 -110 521 -96 q 634 -127 594 -125 q 740 -124 674 -129 q 892 -100 806 -118 m 99 -11 q 210 32 151 -18 q 33 97 79 131 q 29 38 7 78 q 99 -11 51 -4 z "},"M":{"ha":1056,"x_min":-8,"x_max":1076,"o":"m 1035 -121 q 1069 -135 1063 -114 q 1050 -167 1076 -156 q 929 -188 992 -194 q 829 -143 867 -182 q 777 8 786 -97 q 781 215 768 113 q 808 433 794 317 q 817 600 821 550 q 708 633 807 722 q 613 533 696 622 q 585 506 596 515 q 576 388 583 496 q 563 210 569 281 q 544 93 556 139 q 495 53 538 64 q 414 57 453 42 q 378 107 375 72 q 390 217 379 125 q 407 382 400 310 q 419 535 414 454 q 422 651 425 617 q 322 620 417 729 q 182 439 226 511 q 175 244 178 367 q 168 49 172 122 q 121 2 165 13 q 34 6 76 -8 q -6 47 -8 21 q 8 256 3 151 q 18 492 14 360 q 26 701 22 625 q 72 747 28 735 q 159 743 117 758 q 200 697 201 728 l 188 531 q 242 597 210 561 q 321 673 274 633 q 412 735 368 713 q 501 753 456 758 q 575 704 546 747 q 589 576 596 674 q 700 683 675 664 q 879 728 768 733 q 993 604 985 725 q 988 438 999 546 q 966 239 978 329 q 952 49 954 149 q 972 -92 950 -50 q 1035 -121 989 -131 z "},"N":{"ha":664,"x_min":-8,"x_max":693,"o":"m 651 -169 q 686 -183 679 -162 q 667 -215 693 -204 q 546 -237 608 -243 q 446 -192 483 -231 q 394 -41 403 -146 q 398 166 385 64 q 424 385 411 268 q 433 551 438 501 q 321 582 424 676 q 226 482 311 572 q 201 457 211 465 q 193 340 200 447 q 179 161 186 232 q 161 44 172 90 q 111 4 154 15 q 30 8 68 -7 q -6 58 -8 24 q 13 367 6 168 q 26 658 19 567 q 53 708 29 689 q 106 729 76 726 q 163 715 135 732 q 200 664 190 699 q 206 528 213 615 q 318 636 290 615 q 496 679 386 685 q 574 651 544 678 q 610 556 604 624 q 603 389 614 497 q 582 190 593 281 q 569 0 571 100 q 589 -140 567 -100 q 651 -169 606 -179 z "},"O":{"ha":825,"x_min":-19,"x_max":792,"o":"m 708 706 q 780 496 768 617 q 760 265 792 375 q 642 72 728 156 q 438 -28 557 -12 q 72 119 185 -60 q 15 481 -18 264 q 168 817 47 685 q 504 926 314 974 q 518 922 511 924 q 549 889 554 911 q 519 871 544 868 q 515 872 518 872 q 317 757 408 900 q 208 421 226 615 q 282 101 189 203 q 429 39 338 40 q 613 108 538 38 q 715 281 689 179 q 731 492 742 382 q 668 679 719 603 q 526 753 608 763 q 392 661 443 744 q 368 606 374 632 q 376 558 363 579 q 424 529 389 536 q 459 510 450 524 q 455 486 468 496 q 414 482 442 476 q 323 558 338 496 q 350 682 308 621 q 523 801 414 790 q 708 706 632 813 z "},"P":{"ha":539,"x_min":-81,"x_max":661,"o":"m 426 908 q 537 903 489 918 q 610 855 585 888 q 649 778 636 822 q 654 683 661 733 q 629 585 647 632 q 576 495 611 538 q 499 428 542 453 q 235 433 375 354 q 254 25 253 179 q 208 -1 254 7 q 114 -1 161 -10 q 67 31 67 7 q 59 238 65 131 q 42 485 53 346 q 28 692 32 624 q -29 622 -14 654 q -50 608 -36 608 q -72 617 -64 607 q -74 642 -81 628 q 24 750 -44 697 l 19 853 q 92 911 17 893 q 196 907 163 926 q 207 892 207 901 q 210 825 206 881 q 426 908 318 890 m 429 525 q 490 724 486 611 q 432 849 494 836 q 214 771 344 861 q 231 493 225 565 q 429 525 350 404 z "},"Q":{"ha":850,"x_min":-18,"x_max":843,"o":"m 806 -101 q 828 -101 817 -94 q 842 -120 840 -108 q 833 -140 843 -132 q 656 -97 742 -199 q 583 24 619 -56 q 439 -28 518 -18 q 74 119 185 -60 q 17 481 -18 264 q 169 818 49 686 q 507 925 315 975 q 518 922 513 924 q 550 889 554 911 q 521 871 546 868 q 517 872 519 872 q 317 757 410 900 q 208 421 226 615 q 282 101 189 204 q 429 39 339 40 q 563 71 501 38 q 507 226 539 128 q 510 258 500 249 q 534 263 519 268 q 553 240 549 257 q 603 97 578 160 q 711 267 676 158 q 734 489 746 376 q 669 679 722 601 q 526 753 608 763 q 392 661 444 744 q 368 606 374 632 q 376 558 363 579 q 425 529 389 536 q 460 510 451 524 q 456 486 469 496 q 414 482 443 476 q 324 558 339 496 q 350 682 308 621 q 523 801 414 790 q 708 706 632 813 q 783 488 771 613 q 752 244 794 364 q 622 51 710 125 q 688 -61 658 -24 q 806 -101 747 -139 z "},"R":{"ha":664,"x_min":-101,"x_max":789,"o":"m 753 -117 q 775 -117 764 -110 q 788 -135 786 -124 q 779 -156 789 -147 q 601 -112 688 -215 q 404 394 494 15 q 214 431 311 374 q 233 22 232 176 q 186 -4 233 4 q 92 -4 139 -12 q 44 28 44 4 q 38 235 44 128 q 21 481 32 343 q 6 689 10 619 q -51 619 -32 656 q -72 604 -58 606 q -94 614 -86 603 q -94 639 -101 625 q 3 747 -64 697 l -1 850 q 68 907 -4 890 q 175 906 139 925 q 186 889 186 899 q 189 822 186 878 q 404 906 293 888 q 515 900 467 915 q 588 852 563 885 q 626 775 614 819 q 632 680 639 731 q 607 582 625 629 q 554 492 589 535 q 476 425 519 450 l 450 410 q 633 -76 536 49 q 753 -117 694 -153 m 208 490 q 407 522 328 401 q 468 721 464 608 q 410 846 472 833 q 303 828 365 853 q 192 768 242 803 q 200 630 194 728 q 208 490 206 532 z "},"S":{"ha":492,"x_min":-17,"x_max":604,"o":"m 572 -103 q 603 -117 603 -99 q 579 -139 603 -133 q 574 -140 576 -140 q 367 -99 488 -151 q 126 -207 249 -247 q 18 -106 53 -182 q 22 11 -15 -31 q 231 -3 76 72 q 261 157 263 69 q 235 329 260 244 q 181 502 210 414 q 131 665 153 590 q 113 805 108 739 q 157 911 117 871 q 247 965 196 950 q 343 962 299 981 q 401 889 388 943 q 386 868 407 869 q 357 886 363 868 q 318 926 350 917 q 271 899 282 936 q 272 843 265 876 q 313 688 283 793 q 365 492 342 583 q 408 296 389 400 q 424 99 428 192 q 392 -57 421 7 q 572 -103 515 -110 m 128 -106 q 206 -44 165 -93 q 61 -17 99 24 q 57 -78 38 -42 q 128 -106 81 -119 z "},"T":{"ha":553,"x_min":-10,"x_max":893,"o":"m 842 1008 q 878 1011 860 1031 q 881 982 893 994 q 822 942 857 957 q 738 922 786 926 q 655 915 690 917 q 563 915 619 914 q 488 917 507 917 q 483 768 488 846 q 469 582 479 690 q 437 377 458 474 q 385 192 415 281 q 305 41 354 103 q 194 -39 256 -21 q 78 -28 131 -58 q 0 65 25 3 q 6 113 -10 89 q 43 99 24 140 q 44 94 43 96 q 90 38 61 53 q 143 47 118 24 q 249 431 203 106 q 294 907 294 757 q 71 785 144 894 q 33 774 54 761 q 28 807 14 786 q 174 918 81 882 q 367 958 267 954 q 563 960 467 963 q 736 967 658 958 q 842 1008 814 975 z "},"U":{"ha":686,"x_min":-3,"x_max":724,"o":"m 688 -46 q 713 -47 703 -39 q 721 -68 724 -54 q 703 -92 718 -82 q 542 -133 606 -162 q 447 -12 478 -104 q 418 219 415 81 q 392 185 401 197 q 360 145 383 174 q 319 100 336 117 q 275 59 301 83 q 226 22 249 35 q 177 -1 203 10 q 126 -10 151 -12 q 76 4 100 -8 q 10 221 22 33 q 12 589 -3 408 q 44 846 26 769 q 94 886 51 875 q 175 882 136 897 q 211 833 214 867 q 190 458 201 747 q 183 100 178 168 q 283 128 189 21 q 421 308 376 236 q 423 559 425 379 q 426 810 421 739 q 474 856 429 846 q 560 852 518 867 q 600 811 603 838 q 593 709 597 774 q 584 533 589 644 q 582 320 579 422 q 594 126 585 218 q 626 -15 603 33 q 688 -46 650 -62 z "},"V":{"ha":557,"x_min":-46,"x_max":550,"o":"m 503 735 q 526 761 504 761 q 549 743 546 761 q 549 739 549 742 q 499 353 539 575 q 421 46 458 132 q 352 -9 404 7 q 250 -12 300 -25 q 188 33 200 1 q 76 377 151 126 q -35 764 1 628 q 1 821 -46 807 q 101 822 49 835 q 160 786 154 808 q 269 390 189 663 q 376 58 349 117 q 449 342 406 111 q 503 735 492 574 z "},"W":{"ha":981,"x_min":-85,"x_max":919,"o":"m 846 971 q 911 710 903 913 q 891 302 919 507 q 821 4 863 97 q 749 -56 801 -39 q 645 -58 696 -72 q 579 -7 594 -43 q 460 372 524 117 q 383 44 429 139 q 312 -11 364 4 q 210 -10 260 -26 q 143 46 160 6 q -74 764 68 242 q -37 821 -85 807 q 63 822 10 835 q 121 786 115 808 q 230 390 150 663 q 338 58 310 117 q 390 235 364 107 q 426 507 415 363 q 363 764 396 624 q 398 821 351 807 q 497 822 444 835 q 556 786 550 808 q 669 348 593 628 q 774 11 746 68 q 840 276 810 78 q 869 676 869 475 q 824 931 868 876 q 817 974 803 954 q 846 971 828 990 z "},"X":{"ha":675,"x_min":-206,"x_max":776,"o":"m 740 -117 q 763 -117 751 -110 q 775 -135 774 -124 q 767 -156 776 -147 q 589 -111 675 -215 q 486 58 565 -83 q 376 271 407 199 q 176 -33 279 110 q 24 -199 72 -176 q -92 -201 -29 -228 q -192 -97 -154 -175 q -187 -56 -206 -71 q -157 -64 -172 -43 q -85 -49 -136 -92 q 31 83 -33 -7 q 157 272 94 172 q 278 476 219 372 q 149 883 193 713 q 161 929 142 913 q 192 914 181 946 q 246 749 204 878 q 314 543 288 621 q 492 894 450 794 q 522 911 499 908 q 572 906 544 914 q 624 883 599 897 q 661 849 649 869 q 664 808 674 828 q 410 326 556 576 q 517 103 439 250 q 621 -75 596 -44 q 740 -117 681 -151 z "},"Y":{"ha":733,"x_min":1,"x_max":703,"o":"m 332 -278 q 122 -197 217 -279 q 10 4 28 -115 q 22 119 1 64 q 79 202 42 174 q 164 235 117 231 q 256 201 211 240 q 304 104 303 163 q 257 8 306 46 q 235 7 246 0 q 223 26 224 14 q 233 51 222 39 q 256 108 260 75 q 225 165 253 142 q 103 159 163 217 q 57 11 44 101 q 100 -103 65 -50 q 187 -178 135 -156 q 303 -158 239 -200 q 444 363 421 -76 q 363 314 422 339 q 246 282 304 289 q 157 307 188 275 q 128 478 125 351 q 143 708 131 606 q 131 883 156 811 q 104 896 124 900 q 92 901 97 894 q 89 918 88 908 q 97 931 90 928 q 195 932 122 939 q 313 911 268 925 q 343 791 344 901 q 331 572 342 681 q 346 397 321 463 q 355 383 350 389 q 366 376 360 378 q 377 374 372 375 q 389 377 382 374 q 401 383 396 381 q 414 392 407 386 q 425 402 421 399 q 436 412 429 406 q 446 421 443 418 q 489 840 482 811 q 597 856 494 860 q 699 828 701 850 q 669 606 682 760 q 640 313 656 453 q 592 33 624 174 q 496 -192 561 -107 q 332 -278 431 -276 z "},"Z":{"ha":608,"x_min":6,"x_max":781,"o":"m 129 508 q 49 544 71 501 q 46 643 28 586 q 104 733 64 700 q 286 820 157 778 q 475 919 415 863 q 554 920 506 949 q 635 842 603 892 q 661 769 668 793 q 633 672 657 756 q 594 544 608 588 q 547 414 581 500 q 482 269 514 328 q 399 140 450 211 q 292 17 349 69 q 472 -165 371 -115 q 740 -218 574 -214 q 779 -240 778 -219 q 746 -265 779 -261 q 733 -265 740 -265 q 447 -204 563 -262 q 250 -7 332 -146 q 65 -11 144 -76 q 8 101 11 33 q 61 181 6 167 q 110 181 82 186 q 185 143 160 171 q 463 847 297 283 q 299 774 414 813 q 135 697 183 736 q 88 615 103 669 q 119 556 74 561 q 169 535 168 557 q 138 510 171 517 q 129 508 133 508 m 115 92 q 151 108 133 94 q 107 132 138 126 q 72 115 76 136 q 94 93 68 97 q 115 92 103 90 z "},"[":{"ha":426,"x_min":57,"x_max":360,"o":"m 286 483 q 181 456 179 483 q 190 140 181 363 q 214 -115 200 -82 q 242 -129 218 -125 q 297 -134 267 -133 q 333 -136 328 -135 q 356 -155 351 -137 q 342 -181 360 -172 q 222 -181 325 -189 q 107 -156 119 -172 q 88 -108 96 -140 q 74 -37 79 -75 q 65 54 69 1 q 60 149 61 107 q 58 247 58 192 q 57 333 57 303 q 57 406 57 364 q 57 450 57 447 q 286 522 63 538 q 308 512 303 522 q 307 492 314 501 q 286 483 300 483 z "},"\\":{"ha":440,"x_min":56,"x_max":390,"o":"m 261 -21 q 210 126 251 7 q 141 331 169 244 q 85 516 113 417 q 56 661 57 615 q 86 688 56 681 q 148 688 117 696 q 179 661 179 681 q 197 565 181 629 q 241 413 213 501 q 292 258 269 325 q 346 101 314 192 q 383 -4 378 11 q 363 -39 390 -26 q 301 -47 335 -51 q 261 -21 267 -42 z "},"]":{"ha":413,"x_min":53,"x_max":356,"o":"m 126 -140 q 232 -112 233 -140 q 222 203 232 -19 q 199 458 213 425 q 170 472 194 468 q 115 477 146 476 q 79 479 85 478 q 57 498 61 481 q 71 524 53 515 q 190 524 88 532 q 306 499 293 515 q 325 451 317 483 q 338 380 333 418 q 347 289 343 342 q 353 194 351 236 q 355 96 354 151 q 356 10 356 40 q 356 -62 356 -21 q 356 -107 356 -104 q 126 -179 350 -194 q 104 -169 110 -179 q 106 -149 99 -158 q 126 -140 113 -140 z "},"^":{"ha":394,"x_min":54,"x_max":340,"o":"m 307 565 q 303 575 307 567 q 295 590 299 583 q 285 608 292 596 q 274 628 279 619 q 263 649 269 638 q 253 667 257 661 q 243 681 249 674 q 235 689 238 689 q 229 688 232 689 q 163 571 167 578 q 96 554 149 550 q 57 576 54 560 q 132 696 79 626 q 224 761 185 765 q 249 744 235 760 q 276 701 263 728 q 301 651 290 674 q 324 601 313 628 q 338 571 336 574 q 325 553 340 556 q 307 565 310 550 z "},"_":{"ha":621,"x_min":56,"x_max":565,"o":"m 81 -82 l 540 -82 q 565 -108 565 -82 q 540 -133 565 -133 l 81 -133 q 56 -108 56 -133 q 81 -82 56 -82 z "},"`":{"ha":246,"x_min":47,"x_max":194,"o":"m 103 753 q 182 638 147 679 q 189 613 194 626 q 171 596 183 600 q 144 601 158 592 q 60 726 114 638 q 68 760 47 747 q 103 753 89 774 z "},"a":{"ha":640,"x_min":-47,"x_max":667,"o":"m 321 388 q 235 394 289 413 q 167 344 197 383 q 124 258 136 304 q 117 169 111 213 q 150 110 122 126 q 233 131 199 82 q 272 233 268 179 q 339 317 276 281 q 426 328 399 350 q 429 268 446 313 q 400 0 357 57 q 422 -13 410 -11 q 447 -8 433 -15 q 476 11 461 -1 q 506 42 490 24 q 537 80 522 61 q 566 122 551 99 q 592 163 581 146 q 615 200 603 181 q 631 228 626 219 q 640 246 636 238 l 667 246 q 581 89 589 101 q 339 -68 457 -111 q 274 9 293 -51 q 268 133 256 69 q 117 61 225 54 q -15 154 18 67 q 1 326 -47 239 q 186 439 58 431 q 236 438 211 440 q 335 410 310 429 q 334 401 336 408 q 328 390 332 394 q 321 388 324 385 z "},"b":{"ha":576,"x_min":-29,"x_max":603,"o":"m 576 246 l 603 246 q 578 203 592 221 q 553 174 564 185 q 522 153 542 163 q 490 142 501 144 q 450 132 478 139 q 408 121 422 125 q 351 -32 393 32 q 232 -86 308 -96 q 146 -35 174 -78 q 152 58 118 7 q 288 136 186 110 q 282 275 297 206 q 204 308 261 363 q 125 206 169 278 q 118 3 125 68 q 101 -23 117 -12 q 63 -35 85 -33 q 21 -34 42 -37 q -14 -19 0 -31 q -26 7 -28 -8 q -23 240 -17 104 q -24 532 -29 376 q 6 739 -19 688 q 76 797 28 783 q 172 795 125 811 q 240 747 218 779 q 255 702 253 729 q 249 639 257 675 q 233 572 242 603 q 205 495 224 540 q 176 427 186 450 q 147 363 167 404 q 125 317 126 321 l 125 249 q 186 329 158 303 q 273 374 228 369 q 350 352 318 378 q 399 274 382 326 q 410 156 417 221 q 437 160 413 156 q 466 165 461 164 q 490 172 471 167 q 517 181 510 176 q 538 195 524 186 q 560 217 551 204 q 576 246 568 229 m 142 711 q 118 369 110 624 q 201 564 160 442 q 215 729 243 686 q 193 751 206 744 q 166 748 181 757 q 142 711 151 739 m 226 -24 q 285 104 258 1 q 169 22 182 82 q 188 -29 161 -14 q 226 -24 206 -40 z "},"c":{"ha":443,"x_min":-32,"x_max":469,"o":"m 269 464 q 218 476 250 483 q 160 433 186 468 q 115 308 129 393 q 119 143 101 224 q 186 42 136 63 q 313 77 242 18 q 443 246 383 136 l 469 246 q 415 148 440 190 q 347 53 389 106 q 256 -26 306 1 q 153 -53 206 -54 q 24 26 72 -50 q -28 199 -24 103 q 6 385 -32 294 q 117 503 43 475 q 219 515 168 522 q 301 478 271 508 q 304 451 319 460 q 269 464 292 444 z "},"d":{"ha":665,"x_min":-37,"x_max":692,"o":"m 665 246 l 692 246 q 646 151 669 196 q 586 53 622 107 q 505 -36 550 -1 q 414 -76 460 -71 q 315 -35 354 -82 q 257 100 276 13 q 169 26 219 54 q 13 53 71 -32 q -25 235 -37 125 q 63 386 -11 351 q 156 393 103 406 q 236 360 203 381 q 261 630 239 501 q 306 785 283 758 q 422 814 347 831 q 529 739 496 797 q 529 465 581 644 q 389 221 478 286 q 389 183 389 218 q 390 125 389 147 q 396 71 392 103 q 408 19 400 39 q 431 -6 417 0 q 492 9 456 -17 q 564 83 529 35 q 624 172 599 132 q 665 246 649 213 m 156 65 q 203 88 176 67 q 250 136 229 108 q 236 322 239 218 q 150 361 188 365 q 112 327 126 358 q 96 252 97 296 q 100 166 94 208 q 121 94 106 124 q 156 65 136 65 m 424 707 q 383 261 385 436 q 463 388 425 294 q 510 575 501 482 q 486 729 519 668 q 449 756 469 758 q 424 707 429 753 z "},"e":{"ha":444,"x_min":-29,"x_max":471,"o":"m 444 246 l 471 246 q 416 147 442 189 q 349 53 390 106 q 257 -26 307 1 q 154 -53 207 -54 q 44 1 89 -50 q -15 125 -1 51 q -23 276 -29 199 q 21 417 -17 353 q 117 503 58 481 q 253 508 188 531 q 332 425 319 485 q 270 302 343 365 q 111 203 197 239 q 188 40 118 69 q 314 77 243 18 q 444 246 385 136 m 161 433 q 111 231 111 369 q 256 326 196 274 q 300 424 315 378 q 243 474 285 468 q 161 433 201 481 z "},"f":{"ha":465,"x_min":-96,"x_max":492,"o":"m 151 383 q 274 534 217 443 q 338 686 332 625 q 330 733 340 717 q 303 748 319 749 q 269 733 286 747 q 242 697 251 719 q 151 383 196 596 m 465 246 l 492 246 q 374 40 438 119 q 253 -57 326 -17 q 289 -223 289 -122 q 238 -382 289 -324 q 144 -436 197 -428 q 44 -404 90 -444 q -36 -97 -36 -326 q -92 -26 -96 -75 q -29 42 -87 24 q 28 447 -15 207 q 122 743 71 686 q 219 792 157 782 q 330 774 282 803 q 372 685 378 746 q 294 510 365 610 q 144 328 224 410 q 111 46 128 240 q 129 44 114 46 q 150 42 144 43 q 169 36 156 40 q 192 24 183 32 q 215 3 201 17 q 240 -28 228 -10 q 357 65 311 13 q 465 246 403 122 m 110 15 q 106 -26 108 0 q 104 -65 104 -51 q 215 -40 183 -68 q 110 15 176 26 m 106 -97 q 153 -344 106 -283 q 213 -357 181 -382 q 256 -274 246 -332 q 256 -160 265 -217 q 229 -68 247 -104 q 178 -88 217 -78 q 106 -97 139 -99 m -36 -64 q -33 10 -36 -26 q -68 -28 -67 -4 q -36 -64 -69 -53 z "},"g":{"ha":499,"x_min":-49,"x_max":525,"o":"m 400 254 q 408 176 401 219 q 415 111 414 132 q 499 246 436 136 l 525 246 q 424 67 444 97 q 283 -429 458 -367 q 113 -406 176 -467 q 88 -244 49 -346 q 126 -173 100 -212 q 173 -107 151 -133 q 229 -41 194 -81 q 275 11 264 -1 q 265 113 268 92 q 117 61 214 54 q -17 154 18 67 q 0 326 -49 239 q 186 439 58 431 q 236 438 210 440 q 333 410 310 429 q 333 401 335 408 q 326 390 331 394 q 319 388 322 385 q 233 394 289 413 q 165 344 196 383 q 122 258 135 304 q 115 169 110 213 q 149 110 121 126 q 213 110 183 94 q 260 158 242 125 q 253 263 254 228 q 288 312 251 299 q 361 308 324 325 q 400 254 399 290 m 281 -40 q 244 -84 275 -47 q 195 -143 213 -121 q 155 -199 178 -165 q 121 -261 132 -233 q 128 -362 96 -325 q 214 -350 161 -399 q 267 -260 250 -317 q 283 -149 285 -203 q 281 -40 282 -94 z "},"h":{"ha":646,"x_min":-29,"x_max":674,"o":"m 647 246 l 674 246 q 524 1 583 69 q 389 -79 454 -78 q 317 -43 342 -81 q 289 52 293 -6 q 285 168 285 110 q 278 276 285 226 q 250 340 271 326 q 125 247 210 367 q 118 3 125 61 q 101 -23 117 -12 q 63 -35 85 -33 q 21 -34 42 -37 q -14 -19 0 -31 q -26 7 -28 -8 q -24 240 -18 104 q -24 532 -29 376 q 6 739 -19 688 q 76 797 28 783 q 172 795 125 811 q 240 747 218 779 q 255 702 253 729 q 249 639 257 675 q 233 572 242 603 q 205 495 224 540 q 176 427 186 450 q 147 363 167 404 q 125 317 126 321 l 125 300 q 258 392 189 385 q 358 372 322 400 q 405 294 394 344 q 416 191 415 243 q 417 87 417 139 q 425 17 417 35 q 513 47 447 -33 q 647 246 579 128 m 140 711 q 118 369 110 624 q 201 565 160 444 q 215 729 242 686 q 192 751 206 744 q 165 748 179 757 q 140 711 150 739 z "},"i":{"ha":361,"x_min":-31,"x_max":388,"o":"m 361 246 l 388 246 q 349 172 360 192 q 304 94 339 151 q 244 8 269 36 q 179 -47 218 -21 q 104 -75 140 -74 q 25 -28 56 -76 q -14 91 -6 21 q -26 237 -22 161 q -25 365 -31 313 q 12 397 -25 386 q 85 400 49 407 q 122 371 122 393 q 123 301 122 354 q 124 213 124 247 q 126 135 124 179 q 131 62 128 90 q 140 21 135 33 q 228 50 163 -29 q 361 246 294 129 m 100 449 q 89 439 100 449 q 47 429 78 429 q -6 449 17 429 q -28 496 -28 468 q -6 543 -28 524 q 47 563 17 563 q 100 542 78 563 q 122 496 122 522 q 100 449 122 469 z "},"j":{"ha":247,"x_min":-204,"x_max":274,"o":"m 274 246 q 172 67 193 97 q 31 -429 207 -367 q -140 -406 -75 -467 q -165 -244 -204 -346 q -126 -173 -153 -212 q -78 -107 -100 -133 q -22 -42 -56 -81 q 24 11 13 -3 q 6 181 21 38 q -12 376 -8 325 q 25 424 -17 411 q 108 404 74 439 q 133 354 128 385 q 164 111 140 319 q 247 246 185 136 l 274 246 m -37 -350 q 16 -260 -1 -317 q 32 -149 33 -203 q 29 -40 31 -94 q -8 -85 22 -49 q -57 -143 -39 -121 q -97 -199 -75 -165 q -131 -261 -119 -233 q -124 -362 -156 -325 q -37 -350 -92 -399 m 93 478 q 82 468 93 478 q 40 458 71 458 q -12 478 10 458 q -33 525 -33 497 q -12 572 -33 553 q 40 592 10 592 q 93 572 71 592 q 115 525 115 553 q 93 478 115 497 z "},"k":{"ha":542,"x_min":-29,"x_max":568,"o":"m 542 246 l 568 246 q 549 209 565 240 q 524 160 533 178 q 494 108 514 142 q 459 53 475 75 q 420 5 443 32 q 377 -38 397 -22 q 332 -65 357 -54 q 282 -75 307 -75 q 212 -41 236 -74 q 182 33 188 -8 q 163 118 176 74 q 125 181 150 163 q 118 7 122 64 q 78 -28 115 -18 q 6 -26 42 -37 q -26 11 -29 -15 q -24 244 -18 108 q -24 536 -29 381 q 6 743 -19 692 q 124 808 43 811 q 240 751 204 804 q 254 694 254 731 q 246 623 254 658 q 219 536 238 588 q 186 454 200 485 q 151 376 172 424 q 125 321 129 329 l 125 258 q 145 299 132 271 q 167 342 158 326 q 191 378 176 358 q 224 408 206 397 q 263 421 242 419 q 336 357 333 426 q 293 228 339 290 q 246 189 269 197 q 283 126 267 172 q 313 42 299 79 q 344 3 326 4 q 542 246 399 -1 m 140 717 q 117 547 122 665 q 118 374 113 429 q 201 569 160 449 q 215 733 242 690 q 192 755 206 749 q 165 752 179 761 q 140 717 150 743 m 208 231 q 293 297 264 231 q 296 386 318 354 q 263 399 285 403 q 215 362 239 394 q 168 283 192 329 q 143 235 144 238 q 208 231 176 231 z "},"l":{"ha":367,"x_min":-37,"x_max":393,"o":"m 367 246 l 393 246 q 53 -50 172 -179 q -15 188 8 -1 q -22 565 -37 378 q 47 788 -7 753 q 140 806 89 813 q 225 771 192 800 q 252 726 244 754 q 254 661 260 699 q 240 590 249 624 q 213 510 232 556 q 183 438 194 465 q 151 370 171 410 q 128 322 132 331 q 149 22 131 61 q 235 50 171 -28 q 367 246 299 128 m 158 744 q 128 593 135 715 q 122 374 121 471 q 160 451 139 404 q 203 562 181 497 q 227 672 225 626 q 208 746 229 717 q 158 744 182 769 z "},"m":{"ha":853,"x_min":-26,"x_max":879,"o":"m 853 246 l 879 246 q 841 172 851 192 q 796 94 831 151 q 735 8 761 36 q 671 -47 710 -21 q 596 -75 632 -74 q 519 -37 547 -76 q 482 67 490 3 q 472 194 474 131 q 471 321 471 258 q 464 406 471 383 q 411 386 453 443 q 351 265 376 338 q 340 220 344 243 q 334 172 336 197 q 331 136 332 147 q 315 114 328 119 q 290 117 301 108 q 281 140 279 125 q 274 429 303 363 q 147 260 247 492 q 128 217 128 218 q 125 7 131 85 q 85 -28 122 -18 q 13 -26 47 -37 q -19 11 -22 -15 q -26 392 -14 64 q 10 426 -26 418 q 83 424 46 435 q 122 392 121 413 q 122 349 122 378 q 124 297 122 319 q 137 331 129 313 q 158 377 144 350 q 187 426 172 404 q 220 466 201 447 q 256 487 239 485 q 293 479 274 489 q 310 457 303 472 q 322 427 318 442 q 329 390 326 413 q 333 355 332 367 q 334 323 333 343 q 335 301 335 303 q 390 415 358 369 q 453 478 421 461 q 515 492 485 496 q 568 463 546 489 q 610 363 599 426 q 617 242 621 300 q 615 119 613 183 q 632 21 617 56 q 720 50 654 -29 q 853 246 786 129 z "},"n":{"ha":638,"x_min":-28,"x_max":664,"o":"m 638 246 l 664 246 q 626 172 636 192 q 581 94 615 151 q 520 8 546 36 q 456 -47 494 -21 q 381 -75 417 -74 q 303 -35 332 -76 q 266 71 275 6 q 256 201 257 136 q 253 331 254 267 q 246 417 253 394 q 175 369 229 475 q 122 226 129 279 q 124 7 125 24 q 84 -28 121 -18 q 13 -26 47 -37 q -19 11 -22 -15 q -26 392 -11 92 q 8 431 -28 422 q 83 426 44 439 q 121 392 121 414 q 122 315 122 368 q 183 436 139 382 q 278 498 228 490 q 371 435 329 506 q 399 304 397 386 q 401 142 401 222 q 418 21 400 61 q 506 50 440 -29 q 638 246 571 129 z "},"o":{"ha":565,"x_min":-42,"x_max":592,"o":"m 565 246 l 592 246 q 556 177 571 203 q 516 123 542 151 q 456 85 490 94 q 379 83 422 75 q 315 18 343 42 q 247 -21 288 -6 q 25 32 104 -72 q -24 254 -40 119 q 99 479 -6 401 q 236 532 158 522 q 348 506 304 539 q 390 397 392 474 q 436 317 426 371 q 434 211 446 264 q 399 122 422 158 q 494 147 450 108 q 565 246 538 186 m 253 50 q 306 61 279 49 q 346 96 332 74 q 213 250 229 146 q 253 385 200 332 q 364 410 300 432 q 333 476 367 458 q 257 481 300 494 q 175 415 208 465 q 133 305 142 365 q 133 187 125 244 q 174 90 142 129 q 253 50 206 50 m 374 131 q 406 210 393 160 q 409 309 418 260 q 361 368 400 358 q 301 325 324 378 q 306 193 274 257 q 374 131 326 150 z "},"p":{"ha":631,"x_min":-119,"x_max":657,"o":"m 631 246 l 657 246 q 453 85 576 61 q 354 13 421 31 q 227 17 288 -6 q 150 93 167 40 q 165 3 151 86 q 185 -128 179 -81 q 189 -237 190 -175 q 171 -328 188 -300 q 92 -399 143 -375 q -11 -408 42 -424 q -89 -331 -64 -392 q -90 -54 -119 -258 q -24 260 -61 150 l -49 428 q -35 444 -50 436 q 0 458 -21 453 q 43 464 21 463 q 81 460 65 465 q 99 443 97 456 l 111 368 q 195 484 142 443 q 321 510 249 525 q 464 366 424 489 q 471 129 504 243 q 494 128 476 125 q 532 138 513 132 q 579 172 551 143 q 631 246 607 200 m 339 190 q 347 263 346 218 q 340 356 347 308 q 308 432 333 403 q 242 453 282 461 q 125 299 172 436 q 136 210 129 274 q 146 126 143 146 q 183 226 144 183 q 274 243 221 268 q 339 190 300 232 m 38 -311 q 43 -235 42 -268 q 35 -130 44 -203 q 20 -14 26 -57 q 3 94 14 29 q -10 176 -7 160 q -53 -89 -35 71 q -54 -315 -72 -249 q -7 -363 -39 -367 q 38 -311 25 -360 m 278 88 q 322 142 307 106 q 298 168 321 143 q 261 200 275 193 q 203 176 222 222 q 203 96 183 132 q 278 88 224 56 z "},"q":{"ha":739,"x_min":-49,"x_max":765,"o":"m 765 246 q 643 49 689 100 q 511 -18 597 -3 l 519 -39 q 522 -202 536 -92 q 475 -360 507 -312 q 365 -412 436 -417 q 260 -344 294 -408 q 243 -298 249 -325 q 235 -246 238 -271 q 235 -183 232 -221 q 240 -123 238 -146 q 249 -58 242 -100 q 258 -2 256 -17 q 269 52 261 13 q 278 93 278 92 q 138 54 217 43 q -18 183 14 74 q 10 386 -49 283 q 181 507 71 493 q 382 451 276 521 q 393 436 393 444 q 385 425 393 428 q 369 426 378 422 q 271 444 315 456 q 197 391 226 433 q 151 299 167 349 q 138 199 136 249 q 163 124 140 149 q 203 99 182 101 q 243 107 225 96 q 275 138 261 118 q 317 304 307 179 l 471 293 q 445 146 465 242 q 410 -22 425 50 q 387 -187 394 -94 q 399 -326 379 -281 q 438 -342 413 -374 q 478 -200 467 -299 q 474 -54 490 -101 q 449 -24 467 -24 l 449 24 q 550 38 507 24 q 626 86 593 53 q 679 149 658 119 q 732 233 700 179 q 739 246 736 242 l 765 246 z "},"r":{"ha":467,"x_min":-22,"x_max":493,"o":"m 25 243 l -1 243 q 51 388 33 317 q -19 463 -18 414 q 22 526 -21 513 q 90 508 65 540 q 93 419 117 476 q 140 415 106 417 q 207 413 174 414 q 274 408 240 413 q 326 392 307 404 q 344 361 346 381 q 267 146 340 324 q 225 -25 201 -17 q 235 -25 229 -26 q 349 63 293 -8 q 467 246 406 135 l 493 246 q 459 182 488 236 q 418 107 431 128 q 375 41 406 86 q 322 -26 344 -4 q 263 -69 299 -47 q 190 -96 228 -90 q 117 146 47 -121 q 179 340 124 169 q 186 371 188 367 l 161 372 q 111 376 138 375 q 81 379 85 378 q 25 243 56 299 z "},"s":{"ha":586,"x_min":-17,"x_max":613,"o":"m 25 242 l -1 242 q 60 372 46 336 q 13 496 19 471 q 60 614 -1 568 q 167 633 115 656 q 208 488 235 606 q 193 436 203 464 q 326 63 300 176 q 451 97 413 76 q 586 246 529 140 l 613 246 q 494 77 556 124 q 336 11 433 31 q 331 -178 351 -89 q 236 -294 310 -267 q 68 -267 151 -326 q -11 -137 -8 -212 q 122 17 -15 -37 q 165 32 142 25 q 76 340 126 214 q 25 242 46 279 m 161 -182 q 175 -15 189 -137 q 33 -124 39 -51 q 74 -197 29 -169 q 153 -193 121 -226 q 161 -182 157 -189 z "},"t":{"ha":413,"x_min":-107,"x_max":439,"o":"m 413 246 l 439 246 q 215 -79 335 19 q 33 -74 94 -181 q 3 17 14 -39 q -22 585 -25 153 q -57 583 -42 583 q -90 583 -72 583 q -103 593 -100 583 q -102 613 -107 603 q -89 624 -97 624 q -56 624 -71 624 q -22 625 -42 625 q -14 699 -22 682 q 47 748 3 731 q 128 751 90 765 q 167 690 167 738 l 163 628 q 239 632 211 629 q 253 624 249 633 q 256 605 258 615 q 244 593 253 594 q 163 588 211 589 q 189 6 150 35 q 284 56 219 -18 q 413 246 349 131 z "},"u":{"ha":660,"x_min":-36,"x_max":686,"o":"m 660 246 l 686 246 q 533 0 596 68 q 403 -76 467 -74 q 330 -37 358 -78 q 288 74 301 4 q 100 -76 190 -72 q 22 -24 53 -78 q -19 107 -10 31 q -32 264 -28 183 q -31 397 -36 344 q 7 428 -29 418 q 80 432 43 439 q 117 404 117 425 q 138 19 121 54 q 191 17 153 -15 q 281 122 229 50 q 274 401 267 233 q 310 433 274 422 q 384 436 347 443 q 421 408 421 429 q 422 335 421 392 q 422 238 422 278 q 424 147 422 197 q 430 65 426 97 q 439 19 433 32 q 528 50 461 -31 q 660 246 594 131 z "},"v":{"ha":619,"x_min":-35,"x_max":646,"o":"m 619 246 l 646 246 q 561 138 615 174 q 447 107 507 101 q 336 157 388 113 q 160 -28 254 -15 q 69 1 107 -35 q 12 90 31 36 q -18 217 -7 143 q -31 344 -29 290 q -35 453 -33 399 q -35 476 -35 469 q 4 501 -35 494 q 82 502 43 508 q 121 483 121 496 q 141 219 122 365 q 196 47 160 74 q 300 190 221 31 q 249 382 231 303 q 290 440 258 422 q 353 444 321 457 q 400 393 386 431 q 406 360 406 378 q 404 328 407 343 q 395 294 401 314 q 383 261 389 274 q 369 228 378 249 q 356 199 360 208 q 494 144 411 132 q 619 246 578 157 m 325 243 q 356 378 376 329 q 325 401 344 401 q 296 376 306 400 q 325 243 283 339 z "},"w":{"ha":908,"x_min":-58,"x_max":935,"o":"m 908 246 l 935 246 q 851 138 906 174 q 737 107 797 101 q 625 157 676 113 q 449 -28 543 -15 q 292 115 342 -40 q 89 -58 186 -56 q -40 383 -58 -61 q -3 415 -39 404 q 70 417 33 425 q 107 389 107 410 q 108 319 107 374 q 109 231 108 264 q 111 152 110 197 q 117 78 113 107 q 126 38 121 50 q 185 39 143 0 q 281 158 228 78 q 256 418 256 275 q 294 443 256 436 q 371 444 332 450 q 410 425 410 438 q 431 194 413 314 q 486 47 450 74 q 538 95 501 35 q 589 190 574 156 q 538 382 519 303 q 610 448 551 444 q 690 393 668 451 q 696 360 696 378 q 694 328 696 343 q 685 294 692 314 q 672 261 678 274 q 658 228 667 249 q 644 199 649 208 q 785 144 701 132 q 908 246 868 157 m 614 243 q 644 378 665 329 q 614 401 633 401 q 586 376 594 400 q 614 243 572 339 z "},"x":{"ha":632,"x_min":0,"x_max":660,"o":"m 26 242 l 0 242 q 24 301 8 258 q 51 369 39 343 q 86 422 63 396 q 140 453 110 447 q 233 421 190 461 q 299 325 276 381 q 431 433 361 428 q 442 424 439 433 q 441 405 444 415 q 432 393 438 394 q 317 269 382 386 q 347 145 331 225 q 376 26 363 65 q 410 -15 389 -14 q 514 63 449 -19 q 633 246 579 146 l 660 246 q 406 -76 522 -42 q 303 -44 346 -94 q 226 103 260 6 q 94 -64 160 -17 q 76 -65 85 -71 q 66 -48 67 -58 q 72 -29 65 -37 q 210 156 140 19 q 190 231 201 185 q 169 308 178 276 q 151 358 160 339 q 32 254 117 442 q 26 242 29 247 z "},"y":{"ha":482,"x_min":-54,"x_max":508,"o":"m 508 250 q 407 71 436 111 q 267 -425 446 -361 q 97 -402 161 -462 q 71 -240 32 -342 q 118 -155 88 -199 q 201 -51 149 -111 q 258 15 253 8 q 256 56 258 25 q 81 -76 165 -72 q 1 -34 32 -78 q -37 73 -29 10 q -50 206 -46 136 q -49 329 -54 276 q -11 360 -47 350 q 62 364 25 371 q 99 336 99 357 q 99 269 99 321 q 100 190 100 218 q 102 122 100 163 q 108 57 104 82 q 117 19 111 32 q 172 17 139 -8 q 250 108 204 42 q 224 381 226 328 q 243 428 219 406 q 301 450 267 451 q 353 413 335 449 q 399 115 374 374 q 422 145 413 131 q 438 170 432 160 q 456 205 443 181 q 482 250 469 229 l 508 250 m 197 -346 q 251 -256 233 -312 q 267 -144 268 -199 q 264 -36 265 -90 q 226 -80 258 -42 q 178 -140 194 -118 q 139 -195 161 -161 q 106 -257 117 -229 q 113 -358 81 -321 q 197 -346 144 -394 z "},"z":{"ha":440,"x_min":-29,"x_max":467,"o":"m 24 242 l -3 242 q 56 390 39 321 q -17 467 -15 417 q 26 531 -18 517 q 94 511 68 543 q 96 422 119 479 q 143 418 110 419 q 210 416 176 417 q 278 411 244 415 q 331 395 311 407 q 349 364 350 383 q 235 163 340 299 q 313 149 293 160 q 338 115 333 139 q 351 128 342 119 q 363 141 360 138 q 374 153 367 144 q 386 166 382 161 q 398 181 390 171 q 411 199 406 190 q 424 220 417 208 q 440 246 432 232 l 467 246 q 429 184 449 214 q 383 119 410 154 q 347 71 357 85 q 206 -425 382 -362 q 35 -402 100 -462 q 10 -240 -29 -342 q 48 -171 22 -210 q 92 -110 74 -132 q 148 -44 110 -87 q 192 7 186 0 q 103 10 132 4 q 61 52 65 15 q 77 139 57 89 q 123 239 97 189 q 170 328 149 289 q 190 374 192 367 q 166 376 190 375 q 115 380 142 378 q 85 382 88 382 q 24 242 56 300 m 138 -346 q 190 -256 174 -312 q 206 -144 207 -199 q 203 -36 204 -90 q 156 -92 201 -37 q 84 -184 110 -146 q 44 -257 58 -222 q 51 -358 19 -321 q 138 -346 83 -394 z "},"{":{"ha":456,"x_min":56,"x_max":400,"o":"m 335 -193 q 219 -221 300 -217 q 141 -205 169 -225 q 106 -151 113 -185 q 99 -74 100 -117 q 103 13 99 -31 q 103 94 108 57 q 68 113 79 104 q 56 134 57 122 q 58 156 56 146 q 69 184 61 165 q 79 218 76 203 q 88 260 81 225 q 98 310 94 294 q 110 360 101 326 q 126 412 118 394 q 147 456 135 429 q 174 493 160 482 q 206 514 188 504 q 247 521 224 524 q 296 506 269 518 q 364 451 332 488 q 399 378 396 414 q 381 349 400 350 q 356 369 361 347 q 328 421 349 392 q 288 451 307 450 q 257 431 271 451 q 234 375 243 410 q 219 309 225 340 q 208 245 213 278 q 201 208 203 213 q 194 182 199 193 q 186 162 190 171 q 181 147 182 153 q 199 138 185 143 q 218 128 213 133 q 222 -15 231 114 q 233 -171 214 -144 q 306 -151 251 -192 q 340 -158 325 -137 q 335 -193 354 -179 z "},"|":{"ha":135,"x_min":42,"x_max":93,"o":"m 93 775 l 93 -208 q 67 -233 93 -233 q 42 -208 42 -233 l 42 775 q 67 800 42 800 q 93 775 93 800 z "},"}":{"ha":456,"x_min":56,"x_max":400,"o":"m 121 544 q 236 572 156 568 q 315 556 286 576 q 349 502 343 536 q 356 425 356 468 q 352 338 357 382 q 353 257 347 294 q 388 238 376 247 q 399 217 399 229 q 397 196 400 206 q 387 167 394 186 q 376 133 379 149 q 368 92 375 126 q 358 41 361 57 q 346 -9 354 25 q 329 -60 338 -43 q 308 -104 321 -78 q 282 -142 296 -131 q 250 -162 268 -153 q 209 -169 232 -172 q 160 -154 186 -167 q 92 -99 124 -136 q 57 -26 60 -62 q 75 3 56 1 q 100 -18 94 4 q 128 -69 107 -40 q 168 -100 149 -99 q 199 -79 185 -100 q 222 -24 213 -58 q 237 42 231 11 q 248 106 243 74 q 254 143 253 139 q 261 169 257 158 q 269 190 265 181 q 275 204 274 199 q 257 213 271 208 q 238 224 243 218 q 233 367 225 238 q 222 522 242 496 q 150 503 204 543 q 116 510 131 489 q 121 544 101 531 z "},"~":{"ha":515,"x_min":69,"x_max":446,"o":"m 113 208 q 95 181 106 186 q 77 187 85 175 q 69 221 69 199 q 103 302 71 283 q 183 308 136 321 q 279 279 231 296 q 364 264 328 263 q 406 301 400 265 q 419 325 408 319 q 438 321 429 331 q 444 293 446 311 q 406 190 440 219 q 327 169 372 160 q 234 193 282 179 q 153 219 186 207 q 113 208 121 232 z "},"":{"ha":238,"x_min":49,"x_max":188,"o":"m 56 -146 l 56 257 q 119 281 56 281 q 182 257 182 281 l 182 -146 q 119 -169 182 -169 q 56 -146 56 -169 m 115 356 q 59 383 69 357 q 71 431 49 408 q 122 450 93 454 q 170 422 153 446 q 174 377 188 399 q 115 356 161 356 z "},"":{"ha":443,"x_min":-32,"x_max":469,"o":"m 247 775 l 247 508 q 301 478 279 497 q 304 451 319 460 q 269 464 292 444 q 247 475 258 474 l 247 40 q 347 109 296 54 q 443 246 399 164 l 469 246 q 247 -31 357 26 l 247 -208 q 222 -233 247 -233 q 196 -208 196 -233 l 196 -49 q 153 -53 175 -53 q 24 26 72 -50 q -28 199 -24 103 q 6 385 -32 294 q 117 503 43 475 q 196 517 154 517 l 196 775 q 222 800 196 800 q 247 775 247 800 m 186 42 l 196 38 l 196 465 q 160 433 176 454 q 115 308 129 393 q 119 143 101 224 q 186 42 136 63 z "},"":{"ha":415,"x_min":47,"x_max":367,"o":"m 115 740 q 174 720 161 742 q 169 674 188 699 q 121 646 151 650 q 69 665 92 642 q 58 715 47 689 q 115 740 68 740 m 294 740 q 353 720 340 742 q 349 674 367 699 q 300 646 331 650 q 249 665 271 642 q 237 715 226 689 q 294 740 247 740 z "},"":{"ha":393,"x_min":56,"x_max":338,"o":"m 242 383 q 249 308 242 349 q 313 307 296 307 q 338 282 338 307 q 313 257 338 257 q 254 258 297 257 q 261 179 261 193 q 234 157 261 163 q 181 159 207 151 q 156 182 156 167 q 147 260 156 201 q 79 265 92 265 q 56 290 56 265 q 79 314 56 314 q 143 310 85 314 q 136 385 136 363 q 163 406 136 400 q 215 406 189 413 q 242 383 242 399 m 299 107 q 324 82 324 107 q 299 57 324 57 l 81 57 q 56 82 56 57 q 81 107 56 107 l 299 107 z "},"":{"ha":246,"x_min":53,"x_max":199,"o":"m 143 753 q 178 760 157 774 q 186 726 199 747 q 101 601 132 638 q 75 596 89 590 q 57 613 61 601 q 64 638 53 625 q 143 753 99 679 z "},"":{"ha":236,"x_min":47,"x_max":188,"o":"m 115 740 q 174 720 161 742 q 169 674 188 699 q 121 646 151 650 q 69 665 92 642 q 58 715 47 689 q 115 740 68 740 z "},"":{"ha":256,"x_min":35,"x_max":228,"o":"m 46 -272 q 40 -226 35 -268 q 49 -210 43 -210 q 158 -176 140 -222 q 138 -119 171 -144 q 54 -111 103 -93 q 47 -64 50 -106 q 47 14 44 -22 q 64 31 47 31 q 81 14 81 31 l 81 -79 q 193 -125 154 -61 q 204 -235 228 -181 q 82 -283 175 -303 q 46 -272 64 -279 z "},"":{"ha":400,"x_min":0,"x_max":386,"o":"m 128 -197 q 19 -87 38 -172 q 67 83 0 -3 q 115 135 81 103 q 167 194 149 167 q 188 256 185 221 q 250 279 188 279 q 313 256 313 279 q 289 175 307 206 q 233 110 271 144 q 178 53 196 75 q 140 -37 144 10 q 171 -119 136 -83 q 278 -135 225 -165 q 338 -32 331 -106 q 362 -7 338 -7 q 386 -32 386 -7 q 299 -175 378 -128 q 128 -197 221 -222 m 254 338 q 195 359 208 338 q 199 404 182 381 q 247 432 217 428 q 299 413 276 436 q 310 365 321 390 q 254 338 300 339 z "},"":{"ha":864,"x_min":0,"x_max":1021,"o":"m 978 -149 q 995 -144 985 -142 q 1013 -158 1006 -147 q 1015 -178 1021 -169 q 936 -239 979 -226 q 842 -215 893 -251 q 689 397 726 -119 q 629 376 675 393 q 556 356 583 360 q 474 220 526 294 q 344 77 422 146 q 200 1 267 8 q 93 22 142 -6 q 22 90 44 49 q 11 183 0 132 q 72 274 22 235 q 102 283 88 285 q 116 267 117 281 q 96 239 115 253 q 55 194 67 218 q 50 151 43 169 q 72 117 57 132 q 112 102 88 103 q 160 111 136 101 q 346 351 247 153 q 286 368 315 354 q 281 384 278 374 q 293 403 283 394 q 307 410 303 413 q 369 400 336 397 q 525 874 425 519 q 585 909 533 901 q 685 902 636 917 q 736 861 735 888 q 735 657 739 811 q 733 453 731 503 q 783 436 764 450 q 792 415 796 425 q 774 400 788 406 q 754 399 761 394 q 736 404 747 401 q 871 -179 771 -94 q 978 -149 924 -222 m 582 411 q 628 428 590 414 q 686 446 665 442 l 693 758 q 664 661 686 736 q 620 517 642 586 q 582 411 599 447 m 601 1081 q 681 965 646 1007 q 688 941 692 954 q 669 924 683 928 q 643 929 656 919 q 558 1054 613 965 q 567 1088 546 1075 q 601 1081 588 1101 z "},"":{"ha":864,"x_min":0,"x_max":1021,"o":"m 978 -149 q 995 -144 985 -142 q 1013 -158 1006 -147 q 1015 -178 1021 -169 q 936 -239 979 -226 q 842 -215 893 -251 q 689 397 726 -119 q 629 376 675 393 q 556 356 583 360 q 474 220 526 294 q 344 77 422 146 q 200 1 267 8 q 93 22 142 -6 q 22 90 44 49 q 11 183 0 132 q 72 274 22 235 q 102 283 88 285 q 116 267 117 281 q 96 239 115 253 q 55 194 67 218 q 50 151 43 169 q 72 117 57 132 q 112 102 88 103 q 160 111 136 101 q 346 351 247 153 q 286 368 315 354 q 281 384 278 374 q 293 403 283 394 q 307 410 303 413 q 369 400 336 397 q 525 874 425 519 q 585 909 533 901 q 685 902 636 917 q 736 861 735 888 q 735 657 739 811 q 733 453 731 503 q 783 436 764 450 q 792 415 796 425 q 774 400 788 406 q 754 399 761 394 q 736 404 747 401 q 871 -179 771 -94 q 978 -149 924 -222 m 582 411 q 628 428 590 414 q 686 446 665 442 l 693 758 q 664 661 686 736 q 620 517 642 586 q 582 411 599 447 m 649 1089 q 683 1097 663 1110 q 692 1063 704 1083 q 607 938 638 974 q 581 932 594 926 q 563 949 567 938 q 569 974 558 961 q 649 1089 604 1015 z "},"":{"ha":864,"x_min":0,"x_max":1021,"o":"m 978 -149 q 995 -144 985 -142 q 1013 -158 1006 -147 q 1015 -178 1021 -169 q 936 -239 979 -226 q 842 -215 893 -251 q 689 397 726 -119 q 629 376 675 393 q 556 356 583 360 q 474 220 526 294 q 344 77 422 146 q 200 1 267 8 q 93 22 142 -6 q 22 90 44 49 q 11 183 0 132 q 72 274 22 235 q 102 283 88 285 q 116 267 117 281 q 96 239 115 253 q 55 194 67 218 q 50 151 43 169 q 72 117 57 132 q 112 102 88 103 q 160 111 136 101 q 346 351 247 153 q 286 368 315 354 q 281 384 278 374 q 293 403 283 394 q 307 410 303 413 q 369 400 336 397 q 525 874 425 519 q 585 909 533 901 q 685 902 636 917 q 736 861 735 888 q 735 657 739 811 q 733 453 731 503 q 783 436 764 450 q 792 415 796 425 q 774 400 788 406 q 754 399 761 394 q 736 404 747 401 q 871 -179 771 -94 q 978 -149 924 -222 m 582 411 q 628 428 590 414 q 686 446 665 442 l 693 758 q 664 661 686 736 q 620 517 642 586 q 582 411 599 447 m 710 938 l 704 947 q 694 967 699 958 q 683 989 690 975 q 671 1012 676 1003 q 660 1030 665 1021 q 649 1042 654 1039 q 643 1043 644 1046 q 624 1009 636 1031 q 603 972 613 988 q 585 942 593 956 q 524 928 572 922 q 493 944 493 932 q 494 947 494 946 q 558 1050 513 990 q 638 1107 604 1110 q 736 942 668 1104 q 732 929 738 933 q 719 927 726 925 q 710 938 711 929 z "},"":{"ha":864,"x_min":0,"x_max":1021,"o":"m 978 -149 q 995 -144 985 -142 q 1013 -158 1006 -147 q 1015 -178 1021 -169 q 936 -239 979 -226 q 842 -215 893 -251 q 689 397 726 -119 q 629 376 675 393 q 556 356 583 360 q 474 220 526 294 q 344 77 422 146 q 200 1 267 8 q 93 22 142 -6 q 22 90 44 49 q 11 183 0 132 q 72 274 22 235 q 102 283 88 285 q 116 267 117 281 q 96 239 115 253 q 55 194 67 218 q 50 151 43 169 q 72 117 57 132 q 112 102 88 103 q 160 111 136 101 q 346 351 247 153 q 286 368 315 354 q 281 384 278 374 q 293 403 283 394 q 307 410 303 413 q 369 400 336 397 q 525 874 425 519 q 585 909 533 901 q 685 902 636 917 q 736 861 735 888 q 735 657 739 811 q 733 453 731 503 q 783 436 764 450 q 792 415 796 425 q 774 400 788 406 q 754 399 761 394 q 736 404 747 401 q 871 -179 771 -94 q 978 -149 924 -222 m 582 411 q 628 428 590 414 q 686 446 665 442 l 693 758 q 664 661 686 736 q 620 517 642 586 q 582 411 599 447 m 517 983 q 503 963 511 967 q 490 967 496 958 q 485 992 485 976 q 522 1058 485 1049 q 605 1047 560 1067 q 690 1024 650 1028 q 735 1053 729 1021 q 753 1071 738 1076 q 764 1046 765 1067 q 736 969 761 990 q 677 954 711 947 q 607 972 643 961 q 547 992 571 982 q 517 983 524 1001 z "},"":{"ha":864,"x_min":0,"x_max":1021,"o":"m 978 -149 q 995 -144 985 -142 q 1013 -158 1006 -147 q 1015 -178 1021 -169 q 936 -239 979 -226 q 842 -215 893 -251 q 689 397 726 -119 q 629 376 675 393 q 556 356 583 360 q 474 220 526 294 q 344 77 422 146 q 200 1 267 8 q 93 22 142 -6 q 22 90 44 49 q 11 183 0 132 q 72 274 22 235 q 102 283 88 285 q 116 267 117 281 q 96 239 115 253 q 55 194 67 218 q 50 151 43 169 q 72 117 57 132 q 112 102 88 103 q 160 111 136 101 q 346 351 247 153 q 286 368 315 354 q 281 384 278 374 q 293 403 283 394 q 307 410 303 413 q 369 400 336 397 q 525 874 425 519 q 585 909 533 901 q 685 902 636 917 q 736 861 735 888 q 735 657 739 811 q 733 453 731 503 q 783 436 764 450 q 792 415 796 425 q 774 400 788 406 q 754 399 761 394 q 736 404 747 401 q 871 -179 771 -94 q 978 -149 924 -222 m 582 411 q 628 428 590 414 q 686 446 665 442 l 693 758 q 664 661 686 736 q 620 517 642 586 q 582 411 599 447 m 532 1054 q 591 1034 578 1056 q 586 988 604 1013 q 538 960 568 964 q 486 979 508 956 q 474 1028 464 1003 q 532 1054 485 1054 m 711 1054 q 770 1034 757 1056 q 765 988 783 1013 q 717 960 747 964 q 665 979 688 956 q 653 1028 643 1003 q 711 1054 664 1054 z "},"":{"ha":864,"x_min":0,"x_max":1021,"o":"m 978 -149 q 995 -144 985 -142 q 1013 -158 1006 -147 q 1015 -178 1021 -169 q 936 -239 979 -226 q 842 -215 893 -251 q 689 397 726 -119 q 629 376 675 393 q 556 356 583 360 q 474 220 526 294 q 344 77 422 146 q 200 1 267 8 q 93 22 142 -6 q 22 90 44 49 q 11 183 0 132 q 72 274 22 235 q 102 283 88 285 q 116 267 117 281 q 96 239 115 253 q 55 194 67 218 q 50 151 43 169 q 72 117 57 132 q 112 102 88 103 q 160 111 136 101 q 346 351 247 153 q 286 368 315 354 q 281 384 278 374 q 293 403 283 394 q 307 410 303 413 q 369 400 336 397 q 525 874 425 519 q 585 909 533 901 q 685 902 636 917 q 736 861 735 888 q 735 657 739 811 q 733 453 731 503 q 783 436 764 450 q 792 415 796 425 q 774 400 788 406 q 754 399 761 394 q 736 404 747 401 q 871 -179 771 -94 q 978 -149 924 -222 m 582 411 q 628 428 590 414 q 686 446 665 442 l 693 758 q 664 661 686 736 q 620 517 642 586 q 582 411 599 447 m 721 1004 q 688 946 717 965 q 624 932 658 926 q 568 967 589 938 q 547 1020 550 989 q 554 1078 543 1051 q 607 1122 569 1111 q 678 1114 644 1132 q 721 1056 713 1096 q 721 1004 725 1032 m 685 1006 q 688 1051 689 1033 q 667 1088 685 1081 q 646 1067 650 1093 q 644 1057 644 1063 q 647 1004 642 1036 q 658 973 650 981 q 674 975 665 965 q 685 1006 682 985 z "},"":{"ha":1225,"x_min":0,"x_max":1264,"o":"m 978 -149 q 995 -144 985 -142 q 1013 -158 1006 -147 q 1015 -178 1021 -169 q 936 -239 979 -226 q 842 -215 893 -251 q 689 397 726 -119 q 629 376 675 393 q 556 356 583 360 q 474 220 526 294 q 344 77 422 146 q 200 1 267 8 q 93 22 142 -6 q 22 90 44 49 q 11 183 0 132 q 72 274 22 235 q 102 283 88 285 q 116 267 117 281 q 96 239 115 253 q 55 194 67 218 q 50 151 43 169 q 72 117 57 132 q 112 102 88 103 q 160 111 136 101 q 346 351 247 153 q 286 368 315 354 q 281 384 278 374 q 293 403 283 394 q 307 410 303 413 q 369 400 336 397 q 525 874 425 519 q 631 910 536 915 q 735 865 725 904 q 818 896 772 885 q 1050 842 981 932 q 1074 707 1096 779 q 1011 640 1056 656 q 985 654 990 633 q 1003 689 978 676 q 1032 756 1036 706 q 994 830 1028 806 q 911 826 961 854 q 842 728 867 794 q 843 613 818 661 q 925 579 863 579 q 944 555 944 578 q 925 531 944 532 q 839 496 882 526 q 783 435 804 469 q 789 411 797 422 q 765 397 781 400 q 750 286 743 344 q 779 178 757 228 q 854 95 801 128 q 976 63 907 63 q 1133 122 1060 63 q 1222 268 1206 181 q 1235 277 1224 276 q 1255 272 1246 278 q 1263 260 1264 267 q 1154 90 1240 157 q 967 0 1068 22 q 786 10 878 -19 q 871 -179 821 -136 q 978 -149 924 -222 m 582 411 q 628 428 590 414 q 686 446 665 442 l 693 758 q 664 661 686 736 q 620 517 642 586 q 582 411 599 447 z "},"":{"ha":581,"x_min":-3,"x_max":635,"o":"m 178 -307 q 172 -261 167 -303 q 181 -244 175 -244 q 290 -211 272 -257 q 269 -154 303 -179 q 186 -146 235 -128 q 179 -89 176 -132 l 179 -87 q 5 201 13 -60 q 134 688 -3 461 q 456 865 271 915 q 551 790 528 846 q 543 678 575 733 q 442 601 511 622 q 417 606 426 597 q 412 628 408 615 q 432 647 415 642 q 513 726 493 669 q 497 797 532 779 q 454 800 481 806 q 292 614 372 783 q 192 242 204 431 q 275 6 178 39 l 299 0 q 474 94 382 -7 q 586 307 567 194 q 601 328 588 322 q 624 324 614 333 q 632 299 635 315 q 510 71 611 188 q 293 -79 408 -46 q 213 -90 254 -90 l 213 -114 q 325 -160 286 -96 q 336 -269 360 -215 q 214 -318 307 -337 q 178 -307 196 -314 z "},"":{"ha":644,"x_min":6,"x_max":683,"o":"m 642 268 q 654 277 643 276 q 674 272 665 278 q 682 260 683 267 q 574 90 660 157 q 386 0 488 22 q 253 -5 317 -14 q 144 38 190 4 q 63 115 97 71 q 17 217 29 160 q 12 328 6 274 q 53 438 18 383 q 146 535 88 493 q 172 551 167 549 q 136 588 151 564 q 142 772 88 671 q 299 896 197 874 q 531 842 461 932 q 554 707 576 779 q 492 640 536 656 q 465 654 471 633 q 483 689 458 676 q 513 756 517 706 q 475 830 508 806 q 392 826 442 854 q 323 728 347 794 q 324 613 299 661 q 406 579 343 579 q 425 555 425 578 q 406 531 425 532 q 319 496 363 526 q 233 383 264 457 q 206 239 203 310 q 258 115 210 168 q 396 63 307 63 q 552 122 479 63 q 642 268 625 181 m 300 1090 q 379 975 344 1017 q 386 951 392 964 q 368 933 381 938 q 342 939 356 929 q 257 1064 311 975 q 265 1098 244 1085 q 300 1090 286 1111 z "},"":{"ha":644,"x_min":6,"x_max":683,"o":"m 642 268 q 654 277 643 276 q 674 272 665 278 q 682 260 683 267 q 574 90 660 157 q 386 0 488 22 q 253 -5 317 -14 q 144 38 190 4 q 63 115 97 71 q 17 217 29 160 q 12 328 6 274 q 53 438 18 383 q 146 535 88 493 q 172 551 167 549 q 136 588 151 564 q 142 772 88 671 q 299 896 197 874 q 531 842 461 932 q 554 707 576 779 q 492 640 536 656 q 465 654 471 633 q 483 689 458 676 q 513 756 517 706 q 475 830 508 806 q 392 826 442 854 q 323 728 347 794 q 324 613 299 661 q 406 579 343 579 q 425 555 425 578 q 406 531 425 532 q 319 496 363 526 q 233 383 264 457 q 206 239 203 310 q 258 115 210 168 q 396 63 307 63 q 552 122 479 63 q 642 268 625 181 m 344 1069 q 379 1077 358 1090 q 388 1043 400 1064 q 303 918 333 954 q 276 913 290 907 q 258 930 263 918 q 265 954 254 942 q 344 1069 300 996 z "},"":{"ha":644,"x_min":6,"x_max":683,"o":"m 642 268 q 654 277 643 276 q 674 272 665 278 q 682 260 683 267 q 574 90 660 157 q 386 0 488 22 q 253 -5 317 -14 q 144 38 190 4 q 63 115 97 71 q 17 217 29 160 q 12 328 6 274 q 53 438 18 383 q 146 535 88 493 q 172 551 167 549 q 136 588 151 564 q 142 772 88 671 q 299 896 197 874 q 531 842 461 932 q 554 707 576 779 q 492 640 536 656 q 465 654 471 633 q 483 689 458 676 q 513 756 517 706 q 475 830 508 806 q 392 826 442 854 q 323 728 347 794 q 324 613 299 661 q 406 579 343 579 q 425 555 425 578 q 406 531 425 532 q 319 496 363 526 q 233 383 264 457 q 206 239 203 310 q 258 115 210 168 q 396 63 307 63 q 552 122 479 63 q 642 268 625 181 m 444 933 l 439 944 q 429 963 433 954 q 418 985 425 971 q 406 1008 411 999 q 394 1026 400 1017 q 384 1038 389 1035 q 378 1039 379 1042 q 359 1005 371 1026 q 338 967 347 983 q 319 938 328 951 q 258 924 307 918 q 228 940 228 928 q 229 943 229 942 q 293 1046 247 986 q 372 1103 339 1106 q 471 938 403 1100 q 467 925 472 929 q 453 923 461 921 q 444 933 446 925 z "},"":{"ha":644,"x_min":6,"x_max":683,"o":"m 642 268 q 654 277 643 276 q 674 272 665 278 q 682 260 683 267 q 574 90 660 157 q 386 0 488 22 q 253 -5 317 -14 q 144 38 190 4 q 63 115 97 71 q 17 217 29 160 q 12 328 6 274 q 53 438 18 383 q 146 535 88 493 q 172 551 167 549 q 136 588 151 564 q 142 772 88 671 q 299 896 197 874 q 531 842 461 932 q 554 707 576 779 q 492 640 536 656 q 465 654 471 633 q 483 689 458 676 q 513 756 517 706 q 475 830 508 806 q 392 826 442 854 q 323 728 347 794 q 324 613 299 661 q 406 579 343 579 q 425 555 425 578 q 406 531 425 532 q 319 496 363 526 q 233 383 264 457 q 206 239 203 310 q 258 115 210 168 q 396 63 307 63 q 552 122 479 63 q 642 268 625 181 m 283 1036 q 342 1016 329 1038 q 338 970 356 994 q 289 942 319 946 q 238 961 260 938 q 226 1010 215 985 q 283 1036 236 1036 m 463 1036 q 522 1016 508 1038 q 517 970 535 994 q 468 942 499 946 q 417 961 439 938 q 405 1010 394 985 q 463 1036 415 1036 z "},"":{"ha":603,"x_min":-72,"x_max":557,"o":"m 394 924 q 500 808 460 899 q 549 600 540 718 q 533 351 557 482 q 458 112 508 219 q 317 -64 407 4 q 115 -125 228 -132 q -2 -85 44 -121 q -60 -1 -49 -50 q -66 99 -72 49 q -31 186 -60 149 q 39 231 -1 224 q 69 215 68 236 q 39 182 72 193 q -25 94 -14 164 q 6 -26 -36 24 q 122 -42 47 -75 q 269 111 206 -6 q 359 362 333 228 q 374 628 385 496 q 311 828 364 761 q 249 859 278 871 q 217 813 219 847 q 232 758 215 778 q 244 719 251 742 q 214 714 238 701 q 168 818 153 746 q 249 919 183 886 q 394 924 315 953 m 326 1108 q 406 993 371 1035 q 413 969 417 982 q 394 951 408 956 q 368 957 381 947 q 283 1082 338 993 q 292 1116 271 1103 q 326 1108 313 1129 z "},"":{"ha":603,"x_min":-72,"x_max":557,"o":"m 394 924 q 500 808 460 899 q 549 600 540 718 q 533 351 557 482 q 458 112 508 219 q 317 -64 407 4 q 115 -125 228 -132 q -2 -85 44 -121 q -60 -1 -49 -50 q -66 99 -72 49 q -31 186 -60 149 q 39 231 -1 224 q 69 215 68 236 q 39 182 72 193 q -25 94 -14 164 q 6 -26 -36 24 q 122 -42 47 -75 q 269 111 206 -6 q 359 362 333 228 q 374 628 385 496 q 311 828 364 761 q 249 859 278 871 q 217 813 219 847 q 232 758 215 778 q 244 719 251 742 q 214 714 238 701 q 168 818 153 746 q 249 919 183 886 q 394 924 315 953 m 310 1108 q 344 1116 324 1129 q 353 1082 365 1103 q 268 957 299 993 q 242 951 256 946 q 224 969 228 957 q 231 993 219 981 q 310 1108 265 1035 z "},"":{"ha":603,"x_min":-72,"x_max":557,"o":"m 394 924 q 500 808 460 899 q 549 600 540 718 q 533 351 557 482 q 458 112 508 219 q 317 -64 407 4 q 115 -125 228 -132 q -2 -85 44 -121 q -60 -1 -49 -50 q -66 99 -72 49 q -31 186 -60 149 q 39 231 -1 224 q 69 215 68 236 q 39 182 72 193 q -25 94 -14 164 q 6 -26 -36 24 q 122 -42 47 -75 q 269 111 206 -6 q 359 362 333 228 q 374 628 385 496 q 311 828 364 761 q 249 859 278 871 q 217 813 219 847 q 232 758 215 778 q 244 719 251 742 q 214 714 238 701 q 168 818 153 746 q 249 919 183 886 q 394 924 315 953 m 418 960 l 413 969 q 403 989 407 981 q 392 1011 399 997 q 379 1034 385 1025 q 368 1052 374 1043 q 358 1065 363 1061 q 351 1065 353 1068 q 333 1031 344 1053 q 311 994 321 1010 q 293 964 301 978 q 232 950 281 944 q 201 967 201 954 q 203 969 203 968 q 267 1072 221 1013 q 346 1129 313 1132 q 444 964 376 1126 q 440 951 446 956 q 427 949 435 947 q 418 960 419 951 z "},"":{"ha":603,"x_min":-72,"x_max":557,"o":"m 394 924 q 500 808 460 899 q 549 600 540 718 q 533 351 557 482 q 458 112 508 219 q 317 -64 407 4 q 115 -125 228 -132 q -2 -85 44 -121 q -60 -1 -49 -50 q -66 99 -72 49 q -31 186 -60 149 q 39 231 -1 224 q 69 215 68 236 q 39 182 72 193 q -25 94 -14 164 q 6 -26 -36 24 q 122 -42 47 -75 q 269 111 206 -6 q 359 362 333 228 q 374 628 385 496 q 311 828 364 761 q 249 859 278 871 q 217 813 219 847 q 232 758 215 778 q 244 719 251 742 q 214 714 238 701 q 168 818 153 746 q 249 919 183 886 q 394 924 315 953 m 213 1090 q 272 1070 258 1092 q 267 1024 285 1049 q 218 996 249 1000 q 167 1015 189 992 q 155 1065 144 1039 q 213 1090 165 1090 m 392 1090 q 451 1070 438 1092 q 446 1024 464 1049 q 397 996 428 1000 q 346 1015 368 992 q 334 1065 324 1039 q 392 1090 344 1090 z "},"":{"ha":772,"x_min":-57,"x_max":729,"o":"m 247 394 q 272 369 272 394 q 247 344 272 344 l 201 344 l 206 78 q 189 19 206 40 q 147 -3 172 -3 q 97 6 122 -3 q 54 36 72 15 q 36 79 36 57 q 31 344 33 251 l -22 344 q -47 369 -47 344 q -22 394 -47 394 l 29 394 l 25 588 q -12 544 -3 557 q -37 535 -24 532 q -53 549 -50 538 q -49 575 -57 561 q 25 656 -11 619 q 31 771 25 688 q 75 828 32 813 q 160 827 118 843 q 200 775 201 811 q 199 738 199 764 q 280 785 225 758 q 385 821 335 811 q 588 782 504 843 q 701 609 672 721 q 723 371 729 497 q 660 126 717 244 q 513 -57 603 7 q 328 -118 435 -112 q 147 -62 222 -124 q 135 -22 119 -39 q 178 -26 150 -6 q 297 -57 238 -68 q 406 4 357 -46 q 497 159 461 61 q 541 360 533 257 q 536 557 549 464 q 481 709 524 650 q 374 765 438 768 q 199 675 294 763 q 201 394 199 583 l 247 394 z "},"":{"ha":664,"x_min":-8,"x_max":693,"o":"m 651 -169 q 686 -183 679 -162 q 667 -215 693 -204 q 546 -237 608 -243 q 446 -192 483 -231 q 394 -41 403 -146 q 398 166 385 64 q 424 385 411 268 q 433 551 438 501 q 321 582 424 676 q 226 482 311 572 q 201 457 211 465 q 193 340 200 447 q 179 161 186 232 q 161 44 172 90 q 111 4 154 15 q 30 8 68 -7 q -6 58 -8 24 q 13 367 6 168 q 26 658 19 567 q 53 708 29 689 q 106 729 76 726 q 163 715 135 732 q 200 664 190 699 q 206 528 213 615 q 318 636 290 615 q 496 679 386 685 q 574 651 544 678 q 610 556 604 624 q 603 389 614 497 q 582 190 593 281 q 569 0 571 100 q 589 -140 567 -100 q 651 -169 606 -179 m 222 817 q 209 796 217 800 q 196 801 201 792 q 190 825 190 810 q 228 891 190 882 q 310 881 265 900 q 395 858 356 861 q 440 886 435 854 q 458 904 443 910 q 469 879 471 900 q 442 802 467 824 q 383 788 417 781 q 313 805 349 794 q 253 825 276 815 q 222 817 229 835 z "},"":{"ha":825,"x_min":-19,"x_max":792,"o":"m 708 706 q 780 496 768 617 q 760 265 792 375 q 642 72 728 156 q 438 -28 557 -12 q 72 119 185 -60 q 15 481 -18 264 q 168 817 47 685 q 504 926 314 974 q 518 922 511 924 q 549 889 554 911 q 519 871 544 868 q 515 872 518 872 q 317 757 408 900 q 208 421 226 615 q 282 101 189 203 q 429 39 338 40 q 613 108 538 38 q 715 281 689 179 q 731 492 742 382 q 668 679 719 603 q 526 753 608 763 q 392 661 443 744 q 368 606 374 632 q 376 558 363 579 q 424 529 389 536 q 459 510 450 524 q 455 486 468 496 q 414 482 442 476 q 323 558 338 496 q 350 682 308 621 q 523 801 414 790 q 708 706 632 813 m 390 1117 q 469 1001 435 1043 q 476 977 481 990 q 458 960 472 964 q 432 965 444 956 q 347 1090 401 1001 q 356 1124 335 1111 q 390 1117 376 1138 z "},"":{"ha":825,"x_min":-19,"x_max":792,"o":"m 708 706 q 780 496 768 617 q 760 265 792 375 q 642 72 728 156 q 438 -28 557 -12 q 72 119 185 -60 q 15 481 -18 264 q 168 817 47 685 q 504 926 314 974 q 518 922 511 924 q 549 889 554 911 q 519 871 544 868 q 515 872 518 872 q 317 757 408 900 q 208 421 226 615 q 282 101 189 203 q 429 39 338 40 q 613 108 538 38 q 715 281 689 179 q 731 492 742 382 q 668 679 719 603 q 526 753 608 763 q 392 661 443 744 q 368 606 374 632 q 376 558 363 579 q 424 529 389 536 q 459 510 450 524 q 455 486 468 496 q 414 482 442 476 q 323 558 338 496 q 350 682 308 621 q 523 801 414 790 q 708 706 632 813 m 435 1115 q 469 1123 449 1136 q 478 1089 490 1110 q 393 964 424 1000 q 367 958 381 953 q 349 976 353 964 q 356 1000 344 988 q 435 1115 390 1042 z "},"":{"ha":825,"x_min":-19,"x_max":792,"o":"m 708 706 q 780 496 768 617 q 760 265 792 375 q 642 72 728 156 q 438 -28 557 -12 q 72 119 185 -60 q 15 481 -18 264 q 168 817 47 685 q 504 926 314 974 q 518 922 511 924 q 549 889 554 911 q 519 871 544 868 q 515 872 518 872 q 317 757 408 900 q 208 421 226 615 q 282 101 189 203 q 429 39 338 40 q 613 108 538 38 q 715 281 689 179 q 731 492 742 382 q 668 679 719 603 q 526 753 608 763 q 392 661 443 744 q 368 606 374 632 q 376 558 363 579 q 424 529 389 536 q 459 510 450 524 q 455 486 468 496 q 414 482 442 476 q 323 558 338 496 q 350 682 308 621 q 523 801 414 790 q 708 706 632 813 m 510 963 l 504 972 q 494 992 499 983 q 483 1014 490 1000 q 471 1037 476 1028 q 460 1055 465 1046 q 449 1067 454 1064 q 443 1068 444 1071 q 424 1034 436 1056 q 403 997 413 1013 q 385 967 393 981 q 324 953 372 947 q 293 969 293 957 q 294 972 294 971 q 358 1075 313 1015 q 438 1132 404 1135 q 536 967 468 1129 q 532 954 538 958 q 519 952 526 950 q 510 963 511 954 z "},"":{"ha":825,"x_min":-19,"x_max":792,"o":"m 708 706 q 780 496 768 617 q 760 265 792 375 q 642 72 728 156 q 438 -28 557 -12 q 72 119 185 -60 q 15 481 -18 264 q 168 817 47 685 q 504 926 314 974 q 518 922 511 924 q 549 889 554 911 q 519 871 544 868 q 515 872 518 872 q 317 757 408 900 q 208 421 226 615 q 282 101 189 203 q 429 39 338 40 q 613 108 538 38 q 715 281 689 179 q 731 492 742 382 q 668 679 719 603 q 526 753 608 763 q 392 661 443 744 q 368 606 374 632 q 376 558 363 579 q 424 529 389 536 q 459 510 450 524 q 455 486 468 496 q 414 482 442 476 q 323 558 338 496 q 350 682 308 621 q 523 801 414 790 q 708 706 632 813 m 303 1006 q 290 985 297 989 q 276 990 282 981 q 271 1014 271 999 q 308 1080 271 1071 q 391 1069 346 1089 q 476 1047 436 1050 q 521 1075 515 1043 q 539 1093 524 1099 q 550 1068 551 1089 q 522 991 547 1013 q 463 976 497 969 q 393 994 429 983 q 333 1014 357 1004 q 303 1006 310 1024 z "},"":{"ha":825,"x_min":-19,"x_max":792,"o":"m 708 706 q 780 496 768 617 q 760 265 792 375 q 642 72 728 156 q 438 -28 557 -12 q 72 119 185 -60 q 15 481 -18 264 q 168 817 47 685 q 504 926 314 974 q 518 922 511 924 q 549 889 554 911 q 519 871 544 868 q 515 872 518 872 q 317 757 408 900 q 208 421 226 615 q 282 101 189 203 q 429 39 338 40 q 613 108 538 38 q 715 281 689 179 q 731 492 742 382 q 668 679 719 603 q 526 753 608 763 q 392 661 443 744 q 368 606 374 632 q 376 558 363 579 q 424 529 389 536 q 459 510 450 524 q 455 486 468 496 q 414 482 442 476 q 323 558 338 496 q 350 682 308 621 q 523 801 414 790 q 708 706 632 813 m 324 1088 q 383 1067 369 1089 q 378 1022 396 1046 q 329 993 360 997 q 278 1013 300 989 q 266 1062 256 1036 q 324 1088 276 1088 m 503 1088 q 562 1067 549 1089 q 557 1022 575 1046 q 508 993 539 997 q 457 1013 479 989 q 445 1062 435 1036 q 503 1088 456 1088 z "},"":{"ha":242,"x_min":8,"x_max":233,"o":"m 222 322 q 174 264 196 294 q 218 218 207 229 q 225 193 229 207 q 208 176 221 179 q 183 182 196 172 q 143 225 172 193 q 92 164 100 172 q 58 167 81 153 q 22 206 35 182 q 19 240 8 229 q 68 301 35 257 q 24 353 35 342 q 17 367 18 360 q 21 381 17 375 q 31 392 25 388 q 44 395 36 396 q 58 388 51 394 q 100 339 69 378 q 149 397 128 376 q 183 394 160 408 q 219 357 206 381 q 222 322 233 333 z "},"":{"ha":825,"x_min":1,"x_max":786,"o":"m 674 747 q 759 603 732 689 q 783 428 786 518 q 747 249 779 338 q 659 93 714 160 q 519 -9 604 26 q 338 -32 435 -44 q 317 -111 317 -92 q 285 -138 317 -131 q 224 -138 254 -146 q 193 -111 193 -131 q 221 -7 193 -86 q 106 73 154 19 q 36 193 58 126 q 8 338 14 260 q 17 494 1 417 q 62 647 33 572 q 138 780 90 721 q 241 880 185 839 q 369 932 297 921 q 518 922 440 943 q 549 889 554 911 q 519 871 544 868 q 515 872 518 872 q 358 808 433 893 q 244 599 283 724 q 207 334 204 474 q 268 117 210 194 q 425 481 317 238 q 324 585 322 496 q 394 739 324 664 q 550 806 471 821 q 568 800 558 804 q 647 989 633 946 q 687 1015 653 1010 q 749 1007 721 1019 q 769 972 776 994 q 674 747 750 917 m 651 700 q 367 49 422 190 q 544 61 465 25 q 665 173 622 97 q 724 342 707 249 q 722 532 742 435 q 651 700 703 629 m 443 522 q 547 754 515 679 q 414 689 478 757 q 372 572 354 624 q 443 522 385 533 z "},"":{"ha":686,"x_min":-3,"x_max":724,"o":"m 688 -46 q 713 -47 703 -39 q 721 -68 724 -54 q 703 -92 718 -82 q 542 -133 606 -162 q 447 -12 478 -104 q 418 219 415 81 q 392 185 401 197 q 360 145 383 174 q 319 100 336 117 q 275 59 301 83 q 226 22 249 35 q 177 -1 203 10 q 126 -10 151 -12 q 76 4 100 -8 q 10 221 22 33 q 12 589 -3 408 q 44 846 26 769 q 94 886 51 875 q 175 882 136 897 q 211 833 214 867 q 190 458 201 747 q 183 100 178 168 q 283 128 189 21 q 421 308 376 236 q 423 559 425 379 q 426 810 421 739 q 474 856 429 846 q 560 852 518 867 q 600 811 603 838 q 593 709 597 774 q 584 533 589 644 q 582 320 579 422 q 594 126 585 218 q 626 -15 603 33 q 688 -46 650 -62 m 321 1031 q 400 915 365 957 q 407 891 411 904 q 389 874 403 878 q 363 879 375 869 q 278 1004 332 915 q 286 1038 265 1025 q 321 1031 307 1051 z "},"":{"ha":686,"x_min":-3,"x_max":724,"o":"m 688 -46 q 713 -47 703 -39 q 721 -68 724 -54 q 703 -92 718 -82 q 542 -133 606 -162 q 447 -12 478 -104 q 418 219 415 81 q 392 185 401 197 q 360 145 383 174 q 319 100 336 117 q 275 59 301 83 q 226 22 249 35 q 177 -1 203 10 q 126 -10 151 -12 q 76 4 100 -8 q 10 221 22 33 q 12 589 -3 408 q 44 846 26 769 q 94 886 51 875 q 175 882 136 897 q 211 833 214 867 q 190 458 201 747 q 183 100 178 168 q 283 128 189 21 q 421 308 376 236 q 423 559 425 379 q 426 810 421 739 q 474 856 429 846 q 560 852 518 867 q 600 811 603 838 q 593 709 597 774 q 584 533 589 644 q 582 320 579 422 q 594 126 585 218 q 626 -15 603 33 q 688 -46 650 -62 m 365 1064 q 400 1072 379 1085 q 408 1038 421 1058 q 324 913 354 949 q 297 907 311 901 q 279 924 283 913 q 286 949 275 936 q 365 1064 321 990 z "},"":{"ha":686,"x_min":-3,"x_max":724,"o":"m 688 -46 q 713 -47 703 -39 q 721 -68 724 -54 q 703 -92 718 -82 q 542 -133 606 -162 q 447 -12 478 -104 q 418 219 415 81 q 392 185 401 197 q 360 145 383 174 q 319 100 336 117 q 275 59 301 83 q 226 22 249 35 q 177 -1 203 10 q 126 -10 151 -12 q 76 4 100 -8 q 10 221 22 33 q 12 589 -3 408 q 44 846 26 769 q 94 886 51 875 q 175 882 136 897 q 211 833 214 867 q 190 458 201 747 q 183 100 178 168 q 283 128 189 21 q 421 308 376 236 q 423 559 425 379 q 426 810 421 739 q 474 856 429 846 q 560 852 518 867 q 600 811 603 838 q 593 709 597 774 q 584 533 589 644 q 582 320 579 422 q 594 126 585 218 q 626 -15 603 33 q 688 -46 650 -62 m 440 949 l 435 958 q 425 978 429 969 q 414 1000 421 986 q 401 1023 407 1014 q 390 1041 396 1032 q 380 1053 385 1050 q 374 1054 375 1057 q 355 1020 367 1042 q 333 983 343 999 q 315 953 324 967 q 254 939 303 933 q 224 956 224 943 q 225 958 225 957 q 289 1061 243 1001 q 368 1118 335 1121 q 467 953 399 1115 q 463 940 468 944 q 449 938 457 936 q 440 949 442 940 z "},"":{"ha":686,"x_min":-3,"x_max":724,"o":"m 688 -46 q 713 -47 703 -39 q 721 -68 724 -54 q 703 -92 718 -82 q 542 -133 606 -162 q 447 -12 478 -104 q 418 219 415 81 q 392 185 401 197 q 360 145 383 174 q 319 100 336 117 q 275 59 301 83 q 226 22 249 35 q 177 -1 203 10 q 126 -10 151 -12 q 76 4 100 -8 q 10 221 22 33 q 12 589 -3 408 q 44 846 26 769 q 94 886 51 875 q 175 882 136 897 q 211 833 214 867 q 190 458 201 747 q 183 100 178 168 q 283 128 189 21 q 421 308 376 236 q 423 559 425 379 q 426 810 421 739 q 474 856 429 846 q 560 852 518 867 q 600 811 603 838 q 593 709 597 774 q 584 533 589 644 q 582 320 579 422 q 594 126 585 218 q 626 -15 603 33 q 688 -46 650 -62 m 254 1018 q 313 998 300 1019 q 308 952 326 976 q 260 924 290 928 q 208 943 231 919 q 197 992 186 967 q 254 1018 207 1018 m 433 1018 q 492 998 479 1019 q 488 952 506 976 q 439 924 469 928 q 388 943 410 919 q 376 992 365 967 q 433 1018 386 1018 z "},"":{"ha":733,"x_min":1,"x_max":704,"o":"m 332 -278 q 496 -192 431 -276 q 592 33 561 -107 q 640 313 624 174 q 669 606 656 453 q 699 828 682 760 q 601 856 704 850 q 489 840 499 860 q 446 421 482 811 q 436 412 443 418 q 425 402 429 406 q 414 392 421 399 q 401 383 407 386 q 389 377 396 381 q 377 374 382 374 q 366 376 372 375 q 355 383 360 378 q 346 397 350 389 q 330 519 329 436 q 339 685 331 601 q 343 836 347 768 q 313 911 339 904 q 195 932 268 925 q 97 931 122 939 q 89 918 90 928 q 92 901 88 908 q 104 896 97 894 q 131 883 124 900 q 145 762 146 846 q 135 593 144 678 q 128 425 125 508 q 157 307 132 342 q 246 282 188 275 q 363 314 304 289 q 444 363 422 339 q 303 -158 421 -76 q 187 -178 239 -200 q 100 -103 135 -156 q 57 11 65 -50 q 103 159 44 101 q 225 165 163 217 q 256 108 253 142 q 233 51 260 75 q 222 26 221 40 q 234 6 224 11 q 257 8 244 1 q 304 104 306 46 q 256 201 303 163 q 164 235 211 240 q 79 202 117 231 q 22 119 42 174 q 10 4 1 64 q 122 -197 28 -115 q 332 -278 217 -279 m 469 1097 q 504 1105 483 1118 q 513 1071 525 1092 q 428 946 458 982 q 401 940 415 935 q 383 958 388 946 q 390 982 379 969 q 469 1097 425 1024 z "},"":{"ha":640,"x_min":-44,"x_max":667,"o":"m 321 388 q 328 390 324 385 q 334 401 332 394 q 335 410 336 408 q 236 438 310 429 q 14 347 89 451 q -21 175 -44 267 q 83 65 0 86 q 117 61 100 63 q 268 133 225 54 q 274 9 256 69 q 339 -68 293 -51 q 405 -74 374 -81 q 465 -46 436 -67 q 520 5 494 -25 q 569 70 546 35 q 611 141 592 106 q 647 208 631 176 q 667 246 661 235 l 640 246 q 631 228 636 238 q 615 200 626 219 q 592 163 603 181 q 566 122 581 146 q 537 80 551 99 q 506 42 522 61 q 476 11 490 24 q 447 -8 461 -1 q 422 -13 433 -15 q 400 0 410 -11 q 429 268 357 57 q 403 336 454 333 q 307 294 356 338 q 272 233 275 264 q 233 131 268 179 q 150 110 199 82 q 117 169 122 126 q 124 258 111 213 q 167 344 136 304 q 235 394 197 383 q 321 388 289 413 m 297 622 q 376 507 342 549 q 383 483 389 496 q 365 465 378 469 q 339 471 353 461 q 254 596 308 507 q 263 630 242 617 q 297 622 283 643 z "},"":{"ha":640,"x_min":-44,"x_max":667,"o":"m 321 388 q 328 390 324 385 q 334 401 332 394 q 335 410 336 408 q 236 438 310 429 q 14 347 89 451 q -21 175 -44 267 q 83 65 0 86 q 117 61 100 63 q 268 133 225 54 q 274 9 256 69 q 339 -68 293 -51 q 405 -74 374 -81 q 465 -46 436 -67 q 520 5 494 -25 q 569 70 546 35 q 611 141 592 106 q 647 208 631 176 q 667 246 661 235 l 640 246 q 631 228 636 238 q 615 200 626 219 q 592 163 603 181 q 566 122 581 146 q 537 80 551 99 q 506 42 522 61 q 476 11 490 24 q 447 -8 461 -1 q 422 -13 433 -15 q 400 0 410 -11 q 429 268 357 57 q 403 336 454 333 q 307 294 356 338 q 272 233 275 264 q 233 131 268 179 q 150 110 199 82 q 117 169 122 126 q 124 258 111 213 q 167 344 136 304 q 235 394 197 383 q 321 388 289 413 m 342 639 q 376 647 356 660 q 385 613 397 633 q 300 488 331 524 q 274 482 289 476 q 256 499 258 488 q 263 524 253 511 q 342 639 297 565 z "},"":{"ha":640,"x_min":-44,"x_max":667,"o":"m 321 388 q 328 390 324 385 q 334 401 332 394 q 335 410 336 408 q 236 438 310 429 q 14 347 89 451 q -21 175 -44 267 q 83 65 0 86 q 117 61 100 63 q 268 133 225 54 q 274 9 256 69 q 339 -68 293 -51 q 405 -74 374 -81 q 465 -46 436 -67 q 520 5 494 -25 q 569 70 546 35 q 611 141 592 106 q 647 208 631 176 q 667 246 661 235 l 640 246 q 631 228 636 238 q 615 200 626 219 q 592 163 603 181 q 566 122 581 146 q 537 80 551 99 q 506 42 522 61 q 476 11 490 24 q 447 -8 461 -1 q 422 -13 433 -15 q 400 0 410 -11 q 429 268 357 57 q 403 336 454 333 q 307 294 356 338 q 272 233 275 264 q 233 131 268 179 q 150 110 199 82 q 117 169 122 126 q 124 258 111 213 q 167 344 136 304 q 235 394 197 383 q 321 388 289 413 m 340 496 l 335 506 q 325 525 329 517 q 314 547 321 533 q 301 570 307 561 q 290 588 296 579 q 280 601 285 597 q 274 601 275 604 q 255 567 267 589 q 233 530 243 546 q 215 500 224 514 q 154 486 203 481 q 124 503 124 490 q 125 506 125 504 q 189 608 143 549 q 268 665 235 668 q 367 500 299 663 q 363 488 368 492 q 349 485 357 483 q 340 496 342 488 z "},"":{"ha":640,"x_min":-44,"x_max":667,"o":"m 321 388 q 328 390 324 385 q 334 401 332 394 q 335 410 336 408 q 236 438 310 429 q 14 347 89 451 q -21 175 -44 267 q 83 65 0 86 q 117 61 100 63 q 268 133 225 54 q 274 9 256 69 q 339 -68 293 -51 q 405 -74 374 -81 q 465 -46 436 -67 q 520 5 494 -25 q 569 70 546 35 q 611 141 592 106 q 647 208 631 176 q 667 246 661 235 l 640 246 q 631 228 636 238 q 615 200 626 219 q 592 163 603 181 q 566 122 581 146 q 537 80 551 99 q 506 42 522 61 q 476 11 490 24 q 447 -8 461 -1 q 422 -13 433 -15 q 400 0 410 -11 q 429 268 357 57 q 403 336 454 333 q 307 294 356 338 q 272 233 275 264 q 233 131 268 179 q 150 110 199 82 q 117 169 122 126 q 124 258 111 213 q 167 344 136 304 q 235 394 197 383 q 321 388 289 413 m 211 524 q 198 503 206 507 q 185 508 190 499 q 179 532 179 517 q 217 598 179 589 q 299 588 254 607 q 384 565 344 568 q 429 593 424 561 q 447 611 432 617 q 458 586 460 607 q 431 509 456 531 q 372 494 406 488 q 301 512 338 501 q 242 532 265 522 q 211 524 218 542 z "},"":{"ha":640,"x_min":-44,"x_max":667,"o":"m 321 388 q 328 390 324 385 q 334 401 332 394 q 335 410 336 408 q 236 438 310 429 q 14 347 89 451 q -21 175 -44 267 q 83 65 0 86 q 117 61 100 63 q 268 133 225 54 q 274 9 256 69 q 339 -68 293 -51 q 405 -74 374 -81 q 465 -46 436 -67 q 520 5 494 -25 q 569 70 546 35 q 611 141 592 106 q 647 208 631 176 q 667 246 661 235 l 640 246 q 631 228 636 238 q 615 200 626 219 q 592 163 603 181 q 566 122 581 146 q 537 80 551 99 q 506 42 522 61 q 476 11 490 24 q 447 -8 461 -1 q 422 -13 433 -15 q 400 0 410 -11 q 429 268 357 57 q 403 336 454 333 q 307 294 356 338 q 272 233 275 264 q 233 131 268 179 q 150 110 199 82 q 117 169 122 126 q 124 258 111 213 q 167 344 136 304 q 235 394 197 383 q 321 388 289 413 m 217 579 q 276 559 263 581 q 271 513 289 538 q 222 485 253 489 q 171 504 193 481 q 159 553 149 528 q 217 579 169 579 m 396 579 q 455 559 442 581 q 450 513 468 538 q 401 485 432 489 q 350 504 372 481 q 338 553 328 528 q 396 579 349 579 z "},"":{"ha":640,"x_min":-44,"x_max":667,"o":"m 321 388 q 328 390 324 385 q 334 401 332 394 q 335 410 336 408 q 236 438 310 429 q 14 347 89 451 q -21 175 -44 267 q 83 65 0 86 q 117 61 100 63 q 268 133 225 54 q 274 9 256 69 q 339 -68 293 -51 q 405 -74 374 -81 q 465 -46 436 -67 q 520 5 494 -25 q 569 70 546 35 q 611 141 592 106 q 647 208 631 176 q 667 246 661 235 l 640 246 q 631 228 636 238 q 615 200 626 219 q 592 163 603 181 q 566 122 581 146 q 537 80 551 99 q 506 42 522 61 q 476 11 490 24 q 447 -8 461 -1 q 422 -13 433 -15 q 400 0 410 -11 q 429 268 357 57 q 403 336 454 333 q 307 294 356 338 q 272 233 275 264 q 233 131 268 179 q 150 110 199 82 q 117 169 122 126 q 124 258 111 213 q 167 344 136 304 q 235 394 197 383 q 321 388 289 413 m 388 554 q 354 496 383 515 q 290 482 325 476 q 235 517 256 488 q 213 570 217 539 q 221 628 210 601 q 274 672 236 661 q 345 664 311 682 q 388 606 379 646 q 388 554 392 582 m 351 556 q 354 601 356 583 q 333 638 351 631 q 313 617 317 643 q 311 607 311 613 q 314 554 308 586 q 324 523 317 531 q 340 525 332 515 q 351 556 349 535 z "},"":{"ha":731,"x_min":-47,"x_max":757,"o":"m 731 246 l 757 246 q 702 147 728 189 q 635 53 676 106 q 543 -26 593 1 q 440 -53 493 -54 q 330 1 374 -50 q 268 131 286 51 q 117 61 222 54 q -15 154 18 67 q 1 326 -47 239 q 186 439 58 431 q 236 438 211 440 q 286 429 261 436 l 271 401 q 235 394 253 401 q 167 344 197 383 q 124 258 136 304 q 117 169 111 213 q 150 110 122 126 q 216 113 188 88 q 261 185 244 138 q 290 382 253 290 q 403 503 326 474 q 540 508 474 531 q 618 425 606 485 q 556 302 629 365 q 397 203 483 239 q 474 40 404 69 q 600 77 529 18 q 731 246 671 136 m 447 433 q 397 231 397 369 q 542 326 482 274 q 586 424 601 378 q 529 474 571 468 q 447 433 488 481 z "},"":{"ha":443,"x_min":-31,"x_max":469,"o":"m 138 -264 q 132 -218 126 -260 q 140 -201 135 -201 q 250 -168 232 -214 q 229 -111 263 -136 q 146 -103 194 -85 q 138 -51 135 -89 q 35 9 78 -43 q -19 134 -7 61 q -24 282 -31 207 q 21 419 -17 357 q 117 503 58 481 q 219 515 168 522 q 301 478 271 508 q 304 451 319 460 q 269 464 292 444 q 218 476 250 483 q 160 433 186 468 q 115 308 129 393 q 119 143 101 224 q 186 42 136 63 q 313 77 242 18 q 443 246 383 136 l 469 246 q 172 -51 325 -39 l 172 -71 q 285 -117 246 -53 q 296 -226 319 -172 q 174 -275 267 -294 q 138 -264 156 -271 z "},"":{"ha":444,"x_min":-29,"x_max":471,"o":"m 444 246 l 471 246 q 416 147 442 189 q 349 53 390 106 q 257 -26 307 1 q 154 -53 207 -54 q 44 1 89 -50 q -15 125 -1 51 q -23 276 -29 199 q 21 417 -17 353 q 117 503 58 481 q 253 508 188 531 q 332 425 319 485 q 270 302 343 365 q 111 203 197 239 q 188 40 118 69 q 314 77 243 18 q 444 246 385 136 m 161 433 q 111 231 111 369 q 256 326 196 274 q 300 424 315 378 q 243 474 285 468 q 161 433 201 481 m 181 713 q 260 597 225 639 q 267 573 272 586 q 249 556 261 560 q 222 561 236 551 q 138 686 192 597 q 146 720 125 707 q 181 713 167 733 z "},"":{"ha":444,"x_min":-29,"x_max":471,"o":"m 444 246 l 471 246 q 416 147 442 189 q 349 53 390 106 q 257 -26 307 1 q 154 -53 207 -54 q 44 1 89 -50 q -15 125 -1 51 q -23 276 -29 199 q 21 417 -17 353 q 117 503 58 481 q 253 508 188 531 q 332 425 319 485 q 270 302 343 365 q 111 203 197 239 q 188 40 118 69 q 314 77 243 18 q 444 246 385 136 m 161 433 q 111 231 111 369 q 256 326 196 274 q 300 424 315 378 q 243 474 285 468 q 161 433 201 481 m 213 718 q 247 726 226 739 q 256 692 268 713 q 171 567 201 603 q 144 561 158 556 q 126 578 131 567 q 133 603 122 590 q 213 718 168 644 z "},"":{"ha":444,"x_min":-29,"x_max":471,"o":"m 444 246 l 471 246 q 416 147 442 189 q 349 53 390 106 q 257 -26 307 1 q 154 -53 207 -54 q 44 1 89 -50 q -15 125 -1 51 q -23 276 -29 199 q 21 417 -17 353 q 117 503 58 481 q 253 508 188 531 q 332 425 319 485 q 270 302 343 365 q 111 203 197 239 q 188 40 118 69 q 314 77 243 18 q 444 246 385 136 m 161 433 q 111 231 111 369 q 256 326 196 274 q 300 424 315 378 q 243 474 285 468 q 161 433 201 481 m 250 560 l 244 569 q 235 589 239 581 q 224 611 231 597 q 211 634 217 625 q 200 652 206 643 q 190 665 194 661 q 183 665 185 668 q 165 631 176 653 q 143 594 153 610 q 125 564 133 578 q 64 550 113 544 q 33 567 33 554 q 35 569 35 568 q 99 672 53 613 q 178 729 144 732 q 276 564 208 726 q 272 551 278 556 q 259 549 267 547 q 250 560 251 551 z "},"":{"ha":444,"x_min":-29,"x_max":471,"o":"m 444 246 l 471 246 q 416 147 442 189 q 349 53 390 106 q 257 -26 307 1 q 154 -53 207 -54 q 44 1 89 -50 q -15 125 -1 51 q -23 276 -29 199 q 21 417 -17 353 q 117 503 58 481 q 253 508 188 531 q 332 425 319 485 q 270 302 343 365 q 111 203 197 239 q 188 40 118 69 q 314 77 243 18 q 444 246 385 136 m 161 433 q 111 231 111 369 q 256 326 196 274 q 300 424 315 378 q 243 474 285 468 q 161 433 201 481 m 111 674 q 170 653 157 675 q 165 608 183 632 q 117 579 147 583 q 65 599 88 575 q 53 648 43 622 q 111 674 64 674 m 290 674 q 349 653 336 675 q 344 608 363 632 q 296 579 326 583 q 244 599 267 575 q 233 648 222 622 q 290 674 243 674 z "},"":{"ha":361,"x_min":-31,"x_max":388,"o":"m 361 246 l 388 246 q 349 172 360 192 q 304 94 339 151 q 244 8 269 36 q 179 -47 218 -21 q 104 -75 140 -74 q 25 -28 56 -76 q -14 91 -6 21 q -26 237 -22 161 q -25 365 -31 313 q 12 397 -25 386 q 85 400 49 407 q 122 371 122 393 q 123 301 122 354 q 124 213 124 247 q 126 135 124 179 q 131 62 128 90 q 140 21 135 33 q 228 50 163 -29 q 361 246 294 129 m 44 603 q 124 488 89 529 q 131 463 136 476 q 113 446 125 450 q 86 451 100 442 q 1 576 56 488 q 10 610 -11 597 q 44 603 31 624 z "},"":{"ha":361,"x_min":-31,"x_max":388,"o":"m 361 246 l 388 246 q 349 172 360 192 q 304 94 339 151 q 244 8 269 36 q 179 -47 218 -21 q 104 -75 140 -74 q 25 -28 56 -76 q -14 91 -6 21 q -26 237 -22 161 q -25 365 -31 313 q 12 397 -25 386 q 85 400 49 407 q 122 371 122 393 q 123 301 122 354 q 124 213 124 247 q 126 135 124 179 q 131 62 128 90 q 140 21 135 33 q 228 50 163 -29 q 361 246 294 129 m 61 611 q 96 619 75 632 q 104 585 117 606 q 19 460 50 496 q -7 454 8 449 q -25 472 -22 460 q -18 496 -28 483 q 61 611 17 538 z "},"":{"ha":361,"x_min":-74,"x_max":388,"o":"m 361 246 l 388 246 q 349 172 360 192 q 304 94 339 151 q 244 8 269 36 q 179 -47 218 -21 q 104 -75 140 -74 q 25 -28 56 -76 q -14 91 -6 21 q -26 237 -22 161 q -25 365 -31 313 q 12 397 -25 386 q 85 400 49 407 q 122 371 122 393 q 123 301 122 354 q 124 213 124 247 q 126 135 124 179 q 131 62 128 90 q 140 21 135 33 q 228 50 163 -29 q 361 246 294 129 m 144 463 l 139 472 q 129 492 133 483 q 118 514 125 500 q 106 537 111 528 q 94 555 100 546 q 84 567 89 564 q 78 568 79 571 q 59 534 71 556 q 38 497 47 513 q 19 467 28 481 q -42 453 7 447 q -72 469 -72 457 q -71 472 -71 471 q -7 575 -53 515 q 72 632 39 635 q 171 467 103 629 q 167 454 172 458 q 153 452 161 450 q 144 463 146 454 z "},"":{"ha":361,"x_min":-90,"x_max":388,"o":"m 361 246 l 388 246 q 349 172 360 192 q 304 94 339 151 q 244 8 269 36 q 179 -47 218 -21 q 104 -75 140 -74 q 25 -28 56 -76 q -14 91 -6 21 q -26 237 -22 161 q -25 365 -31 313 q 12 397 -25 386 q 85 400 49 407 q 122 371 122 393 q 123 301 122 354 q 124 213 124 247 q 126 135 124 179 q 131 62 128 90 q 140 21 135 33 q 228 50 163 -29 q 361 246 294 129 m -22 557 q 37 537 24 558 q 32 491 50 515 q -17 463 14 467 q -68 482 -46 458 q -80 531 -90 506 q -22 557 -69 557 m 157 557 q 216 537 203 558 q 211 491 229 515 q 163 463 193 467 q 111 482 133 458 q 99 531 89 506 q 157 557 110 557 z "},"":{"ha":638,"x_min":-28,"x_max":664,"o":"m 638 246 l 664 246 q 626 172 636 192 q 581 94 615 151 q 520 8 546 36 q 456 -47 494 -21 q 381 -75 417 -74 q 303 -35 332 -76 q 266 71 275 6 q 256 201 257 136 q 253 331 254 267 q 246 417 253 394 q 175 369 229 475 q 122 226 129 279 q 124 7 125 24 q 84 -28 121 -18 q 13 -26 47 -37 q -19 11 -22 -15 q -26 392 -11 92 q 8 431 -28 422 q 83 426 44 439 q 121 392 121 414 q 122 315 122 368 q 183 436 139 382 q 278 498 228 490 q 371 435 329 506 q 399 304 397 386 q 401 142 401 222 q 418 21 400 61 q 506 50 440 -29 q 638 246 571 129 m 99 569 q 85 549 93 553 q 72 553 78 544 q 67 578 67 563 q 104 644 67 635 q 187 633 142 653 q 272 610 232 614 q 317 639 311 607 q 335 657 319 663 q 346 632 347 653 q 318 555 343 576 q 259 540 293 533 q 189 558 225 547 q 129 578 153 568 q 99 569 106 588 z "},"":{"ha":565,"x_min":-42,"x_max":592,"o":"m 565 246 l 592 246 q 556 177 571 203 q 516 123 542 151 q 456 85 490 94 q 379 83 422 75 q 315 18 343 42 q 247 -21 288 -6 q 25 32 104 -72 q -24 254 -40 119 q 99 479 -6 401 q 236 532 158 522 q 348 506 304 539 q 390 397 392 474 q 436 317 426 371 q 434 211 446 264 q 399 122 422 158 q 494 147 450 108 q 565 246 538 186 m 253 50 q 306 61 279 49 q 346 96 332 74 q 213 250 229 146 q 253 385 200 332 q 364 410 300 432 q 333 476 367 458 q 257 481 300 494 q 175 415 208 465 q 133 305 142 365 q 133 187 125 244 q 174 90 142 129 q 253 50 206 50 m 374 131 q 406 210 393 160 q 409 309 418 260 q 361 368 400 358 q 301 325 324 378 q 306 193 274 257 q 374 131 326 150 m 204 725 q 283 610 249 651 q 290 585 294 599 q 272 568 286 572 q 246 574 258 564 q 161 699 215 610 q 169 733 149 719 q 204 725 190 746 z "},"":{"ha":565,"x_min":-42,"x_max":592,"o":"m 565 246 l 592 246 q 556 177 571 203 q 516 123 542 151 q 456 85 490 94 q 379 83 422 75 q 315 18 343 42 q 247 -21 288 -6 q 25 32 104 -72 q -24 254 -40 119 q 99 479 -6 401 q 236 532 158 522 q 348 506 304 539 q 390 397 392 474 q 436 317 426 371 q 434 211 446 264 q 399 122 422 158 q 494 147 450 108 q 565 246 538 186 m 253 50 q 306 61 279 49 q 346 96 332 74 q 213 250 229 146 q 253 385 200 332 q 364 410 300 432 q 333 476 367 458 q 257 481 300 494 q 175 415 208 465 q 133 305 142 365 q 133 187 125 244 q 174 90 142 129 q 253 50 206 50 m 374 131 q 406 210 393 160 q 409 309 418 260 q 361 368 400 358 q 301 325 324 378 q 306 193 274 257 q 374 131 326 150 m 304 753 q 339 760 318 774 q 347 726 360 747 q 263 601 293 638 q 236 596 250 590 q 218 613 222 601 q 225 638 214 625 q 304 753 260 679 z "},"":{"ha":565,"x_min":-42,"x_max":592,"o":"m 565 246 l 592 246 q 556 177 571 203 q 516 123 542 151 q 456 85 490 94 q 379 83 422 75 q 315 18 343 42 q 247 -21 288 -6 q 25 32 104 -72 q -24 254 -40 119 q 99 479 -6 401 q 236 532 158 522 q 348 506 304 539 q 390 397 392 474 q 436 317 426 371 q 434 211 446 264 q 399 122 422 158 q 494 147 450 108 q 565 246 538 186 m 253 50 q 306 61 279 49 q 346 96 332 74 q 213 250 229 146 q 253 385 200 332 q 364 410 300 432 q 333 476 367 458 q 257 481 300 494 q 175 415 208 465 q 133 305 142 365 q 133 187 125 244 q 174 90 142 129 q 253 50 206 50 m 374 131 q 406 210 393 160 q 409 309 418 260 q 361 368 400 358 q 301 325 324 378 q 306 193 274 257 q 374 131 326 150 m 308 593 l 303 603 q 293 622 297 614 q 282 644 289 631 q 269 667 275 658 q 258 685 264 676 q 248 698 253 694 q 242 699 243 701 q 223 665 235 686 q 201 627 211 643 q 183 597 192 611 q 122 583 171 578 q 92 600 92 588 q 93 603 93 601 q 157 706 111 646 q 236 763 203 765 q 335 597 267 760 q 331 585 336 589 q 317 583 325 581 q 308 593 310 585 z "},"":{"ha":565,"x_min":-42,"x_max":592,"o":"m 565 246 l 592 246 q 556 177 571 203 q 516 123 542 151 q 456 85 490 94 q 379 83 422 75 q 315 18 343 42 q 247 -21 288 -6 q 25 32 104 -72 q -24 254 -40 119 q 99 479 -6 401 q 236 532 158 522 q 348 506 304 539 q 390 397 392 474 q 436 317 426 371 q 434 211 446 264 q 399 122 422 158 q 494 147 450 108 q 565 246 538 186 m 253 50 q 306 61 279 49 q 346 96 332 74 q 213 250 229 146 q 253 385 200 332 q 364 410 300 432 q 333 476 367 458 q 257 481 300 494 q 175 415 208 465 q 133 305 142 365 q 133 187 125 244 q 174 90 142 129 q 253 50 206 50 m 374 131 q 406 210 393 160 q 409 309 418 260 q 361 368 400 358 q 301 325 324 378 q 306 193 274 257 q 374 131 326 150 m 129 606 q 116 585 124 589 q 103 590 108 581 q 97 614 97 599 q 135 680 97 671 q 217 669 172 689 q 302 647 263 650 q 347 675 342 643 q 365 693 350 699 q 376 668 378 689 q 349 591 374 613 q 290 576 324 569 q 219 594 256 583 q 160 614 183 604 q 129 606 136 624 z "},"":{"ha":565,"x_min":-42,"x_max":592,"o":"m 565 246 l 592 246 q 556 177 571 203 q 516 123 542 151 q 456 85 490 94 q 379 83 422 75 q 315 18 343 42 q 247 -21 288 -6 q 25 32 104 -72 q -24 254 -40 119 q 99 479 -6 401 q 236 532 158 522 q 348 506 304 539 q 390 397 392 474 q 436 317 426 371 q 434 211 446 264 q 399 122 422 158 q 494 147 450 108 q 565 246 538 186 m 253 50 q 306 61 279 49 q 346 96 332 74 q 213 250 229 146 q 253 385 200 332 q 364 410 300 432 q 333 476 367 458 q 257 481 300 494 q 175 415 208 465 q 133 305 142 365 q 133 187 125 244 q 174 90 142 129 q 253 50 206 50 m 374 131 q 406 210 393 160 q 409 309 418 260 q 361 368 400 358 q 301 325 324 378 q 306 193 274 257 q 374 131 326 150 m 138 682 q 197 662 183 683 q 192 616 210 640 q 143 588 174 592 q 92 607 114 583 q 80 656 69 631 q 138 682 90 682 m 317 682 q 376 662 363 683 q 371 616 389 640 q 322 588 353 592 q 271 607 293 583 q 259 656 249 631 q 317 682 269 682 z "},"":{"ha":296,"x_min":14,"x_max":282,"o":"m 144 206 q 203 184 190 206 q 199 139 217 163 q 150 111 181 115 q 99 130 121 107 q 88 178 78 153 q 144 206 97 204 m 150 326 q 99 346 121 322 q 87 395 76 369 q 144 421 97 421 q 203 401 190 422 q 199 355 217 379 q 150 326 181 331 m 257 297 q 282 272 282 297 q 257 247 282 247 l 39 247 q 14 272 14 247 q 39 297 14 297 l 257 297 z "},"":{"ha":565,"x_min":-28,"x_max":592,"o":"m 565 246 l 592 246 q 556 177 571 203 q 516 123 542 151 q 456 85 490 94 q 379 83 422 75 q 315 18 343 42 q 247 -21 288 -6 q 199 -33 224 -29 q 183 -119 183 -90 q 161 -147 183 -139 q 117 -147 139 -154 q 96 -119 96 -139 q 111 -29 96 -96 q 13 49 50 -11 q -26 185 -24 110 q -4 336 -28 261 q 83 466 19 411 q 236 532 147 521 q 292 531 268 535 q 303 563 297 543 q 311 586 310 582 q 342 612 317 607 q 385 604 367 617 q 397 569 404 592 l 368 485 q 390 397 390 451 q 436 317 426 371 q 434 211 446 264 q 399 122 422 158 q 494 147 450 108 q 565 246 538 186 m 229 353 l 276 485 q 257 481 274 485 q 162 394 197 461 q 128 256 126 328 q 153 122 129 183 l 214 307 q 229 353 218 331 m 374 131 q 406 210 393 160 q 409 309 418 260 q 361 368 400 358 q 321 356 339 374 l 289 261 q 374 131 289 165 m 253 50 q 306 61 279 49 q 346 96 332 74 q 256 158 289 119 q 222 54 236 104 q 253 50 236 50 m 364 410 q 356 453 367 436 q 342 415 347 428 l 364 410 z "},"":{"ha":660,"x_min":-36,"x_max":686,"o":"m 660 246 l 686 246 q 533 0 596 68 q 403 -76 467 -74 q 330 -37 358 -78 q 288 74 301 4 q 100 -76 190 -72 q 22 -24 53 -78 q -19 107 -10 31 q -32 264 -28 183 q -31 397 -36 344 q 7 428 -29 418 q 80 432 43 439 q 117 404 117 425 q 138 19 121 54 q 191 17 153 -15 q 281 122 229 50 q 274 401 267 233 q 310 433 274 422 q 384 436 347 443 q 421 408 421 429 q 422 335 421 392 q 422 238 422 278 q 424 147 422 197 q 430 65 426 97 q 439 19 433 32 q 528 50 461 -31 q 660 246 594 131 m 182 672 q 261 557 226 599 q 268 533 272 546 q 250 515 264 519 q 224 521 236 511 q 139 646 193 557 q 147 680 126 667 q 182 672 168 693 z "},"":{"ha":660,"x_min":-36,"x_max":686,"o":"m 660 246 l 686 246 q 533 0 596 68 q 403 -76 467 -74 q 330 -37 358 -78 q 288 74 301 4 q 100 -76 190 -72 q 22 -24 53 -78 q -19 107 -10 31 q -32 264 -28 183 q -31 397 -36 344 q 7 428 -29 418 q 80 432 43 439 q 117 404 117 425 q 138 19 121 54 q 191 17 153 -15 q 281 122 229 50 q 274 401 267 233 q 310 433 274 422 q 384 436 347 443 q 421 408 421 429 q 422 335 421 392 q 422 238 422 278 q 424 147 422 197 q 430 65 426 97 q 439 19 433 32 q 528 50 461 -31 q 660 246 594 131 m 263 669 q 297 677 276 690 q 306 643 318 664 q 221 518 251 554 q 194 513 208 507 q 176 530 181 518 q 183 554 172 542 q 263 669 218 596 z "},"":{"ha":660,"x_min":-36,"x_max":686,"o":"m 660 246 l 686 246 q 533 0 596 68 q 403 -76 467 -74 q 330 -37 358 -78 q 288 74 301 4 q 100 -76 190 -72 q 22 -24 53 -78 q -19 107 -10 31 q -32 264 -28 183 q -31 397 -36 344 q 7 428 -29 418 q 80 432 43 439 q 117 404 117 425 q 138 19 121 54 q 191 17 153 -15 q 281 122 229 50 q 274 401 267 233 q 310 433 274 422 q 384 436 347 443 q 421 408 421 429 q 422 335 421 392 q 422 238 422 278 q 424 147 422 197 q 430 65 426 97 q 439 19 433 32 q 528 50 461 -31 q 660 246 594 131 m 319 513 l 314 522 q 304 542 308 533 q 293 564 300 550 q 281 587 286 578 q 269 605 275 596 q 259 617 264 614 q 253 618 254 621 q 234 584 246 606 q 213 547 222 563 q 194 517 203 531 q 133 503 182 497 q 103 519 103 507 q 104 522 104 521 q 168 625 122 565 q 247 682 214 685 q 346 517 278 679 q 342 504 347 508 q 328 502 336 500 q 319 513 321 504 z "},"":{"ha":660,"x_min":-36,"x_max":686,"o":"m 660 246 l 686 246 q 533 0 596 68 q 403 -76 467 -74 q 330 -37 358 -78 q 288 74 301 4 q 100 -76 190 -72 q 22 -24 53 -78 q -19 107 -10 31 q -32 264 -28 183 q -31 397 -36 344 q 7 428 -29 418 q 80 432 43 439 q 117 404 117 425 q 138 19 121 54 q 191 17 153 -15 q 281 122 229 50 q 274 401 267 233 q 310 433 274 422 q 384 436 347 443 q 421 408 421 429 q 422 335 421 392 q 422 238 422 278 q 424 147 422 197 q 430 65 426 97 q 439 19 433 32 q 528 50 461 -31 q 660 246 594 131 m 110 607 q 169 587 156 608 q 164 541 182 565 q 115 513 146 517 q 64 532 86 508 q 52 581 42 556 q 110 607 63 607 m 289 607 q 348 587 335 608 q 343 541 361 565 q 294 513 325 517 q 243 532 265 508 q 231 581 221 556 q 289 607 242 607 z "},"":{"ha":482,"x_min":-54,"x_max":508,"o":"m 508 250 q 407 71 436 111 q 267 -425 446 -361 q 97 -402 161 -462 q 71 -240 32 -342 q 118 -155 88 -199 q 201 -51 149 -111 q 258 15 253 8 q 256 56 258 25 q 81 -76 165 -72 q 1 -34 32 -78 q -37 73 -29 10 q -50 206 -46 136 q -49 329 -54 276 q -11 360 -47 350 q 62 364 25 371 q 99 336 99 357 q 99 269 99 321 q 100 190 100 218 q 102 122 100 163 q 108 57 104 82 q 117 19 111 32 q 172 17 139 -8 q 250 108 204 42 q 224 381 226 328 q 243 428 219 406 q 301 450 267 451 q 353 413 335 449 q 399 115 374 374 q 422 145 413 131 q 438 170 432 160 q 456 205 443 181 q 482 250 469 229 l 508 250 m 197 -346 q 251 -256 233 -312 q 267 -144 268 -199 q 264 -36 265 -90 q 226 -80 258 -42 q 178 -140 194 -118 q 139 -195 161 -161 q 106 -257 117 -229 q 113 -358 81 -321 q 197 -346 144 -394 m 188 628 q 222 635 201 649 q 231 601 243 622 q 146 476 176 513 q 119 471 133 465 q 101 488 106 476 q 108 513 97 500 q 188 628 143 554 z "},"":{"ha":482,"x_min":-54,"x_max":508,"o":"m 508 250 q 407 71 436 111 q 267 -425 446 -361 q 97 -402 161 -462 q 71 -240 32 -342 q 118 -155 88 -199 q 201 -51 149 -111 q 258 15 253 8 q 256 56 258 25 q 81 -76 165 -72 q 1 -34 32 -78 q -37 73 -29 10 q -50 206 -46 136 q -49 329 -54 276 q -11 360 -47 350 q 62 364 25 371 q 99 336 99 357 q 99 269 99 321 q 100 190 100 218 q 102 122 100 163 q 108 57 104 82 q 117 19 111 32 q 172 17 139 -8 q 250 108 204 42 q 224 381 226 328 q 243 428 219 406 q 301 450 267 451 q 353 413 335 449 q 399 115 374 374 q 422 145 413 131 q 438 170 432 160 q 456 205 443 181 q 482 250 469 229 l 508 250 m 197 -346 q 251 -256 233 -312 q 267 -144 268 -199 q 264 -36 265 -90 q 226 -80 258 -42 q 178 -140 194 -118 q 139 -195 161 -161 q 106 -257 117 -229 q 113 -358 81 -321 q 197 -346 144 -394 m 74 610 q 133 590 119 611 q 128 544 146 568 q 79 515 110 519 q 28 535 50 511 q 16 584 6 558 q 74 610 26 610 m 253 610 q 312 590 299 611 q 307 544 325 568 q 258 515 289 519 q 207 535 229 511 q 195 584 185 558 q 253 610 206 610 z "},"":{"ha":361,"x_min":-31,"x_max":388,"o":"m 361 246 l 388 246 q 349 172 360 192 q 304 94 339 151 q 244 8 269 36 q 179 -47 218 -21 q 104 -75 140 -74 q 25 -28 56 -76 q -14 91 -6 21 q -26 237 -22 161 q -25 365 -31 313 q 12 397 -25 386 q 85 400 49 407 q 122 371 122 393 q 123 301 122 354 q 124 213 124 247 q 126 135 124 179 q 131 62 128 90 q 140 21 135 33 q 228 50 163 -29 q 361 246 294 129 z "},"":{"ha":1203,"x_min":-19,"x_max":1242,"o":"m 1200 268 q 1213 277 1201 276 q 1233 272 1224 278 q 1240 260 1242 267 q 1132 90 1218 157 q 944 0 1046 22 q 651 79 765 -40 q 438 -28 560 -12 q 72 119 185 -60 q 15 481 -18 264 q 168 817 47 685 q 504 926 314 974 q 518 922 511 924 q 549 889 554 911 q 519 871 544 868 q 515 872 518 872 q 317 757 408 900 q 208 421 226 615 q 282 101 189 203 q 429 39 338 40 q 621 115 540 38 q 574 335 547 210 q 719 558 601 460 q 668 679 678 592 q 526 753 608 763 q 392 661 443 744 q 368 606 374 632 q 376 558 363 579 q 424 529 389 536 q 459 510 450 524 q 455 486 468 496 q 414 482 442 476 q 323 558 338 496 q 350 682 308 621 q 507 799 407 781 q 685 735 607 817 q 751 838 704 793 q 857 896 797 882 q 1089 842 1019 932 q 1113 707 1135 779 q 1050 640 1094 656 q 1024 654 1029 633 q 1042 689 1017 676 q 1071 756 1075 706 q 1033 830 1067 806 q 950 826 1000 854 q 881 728 906 794 q 882 613 857 661 q 964 579 901 579 q 983 555 983 578 q 964 531 983 532 q 878 496 921 526 q 794 384 824 457 q 767 240 764 311 q 818 116 769 169 q 954 63 867 63 q 1110 122 1038 63 q 1200 268 1183 181 z "},"":{"ha":768,"x_min":-42,"x_max":794,"o":"m 768 246 l 794 246 q 740 147 765 189 q 672 53 714 106 q 581 -26 631 1 q 478 -53 531 -54 q 339 40 389 -49 q 247 -21 301 0 q 25 32 104 -72 q -24 254 -40 119 q 99 479 -6 401 q 236 532 158 522 q 379 463 346 542 q 440 503 408 492 q 577 508 511 531 q 656 425 643 485 q 594 302 667 365 q 435 203 521 239 q 511 40 442 69 q 638 77 567 18 q 768 246 708 136 m 319 69 l 326 67 q 299 260 289 150 q 361 440 308 371 q 322 483 353 472 q 257 481 290 493 q 175 415 208 465 q 133 305 142 365 q 133 187 125 244 q 174 90 142 129 q 253 50 206 50 q 319 69 289 47 m 485 433 q 435 231 435 369 q 579 326 519 274 q 624 424 639 378 q 567 474 608 468 q 485 433 525 481 z "},"":{"ha":492,"x_min":-17,"x_max":604,"o":"m 572 -103 q 603 -117 603 -99 q 579 -139 603 -133 q 574 -140 576 -140 q 367 -99 488 -151 q 126 -207 249 -247 q 18 -106 53 -182 q 22 11 -15 -31 q 231 -3 76 72 q 261 157 263 69 q 235 329 260 244 q 181 502 210 414 q 131 665 153 590 q 113 805 108 739 q 157 911 117 871 q 247 965 196 950 q 343 962 299 981 q 401 889 388 943 q 386 868 407 869 q 357 886 363 868 q 318 926 350 917 q 271 899 282 936 q 272 843 265 876 q 313 688 283 793 q 365 492 342 583 q 408 296 389 400 q 424 99 428 192 q 392 -57 421 7 q 572 -103 515 -110 m 128 -106 q 206 -44 165 -93 q 61 -17 99 24 q 57 -78 38 -42 q 128 -106 81 -119 m 160 1151 l 165 1142 q 175 1122 171 1131 q 186 1100 179 1114 q 199 1077 193 1086 q 210 1059 204 1068 q 220 1047 215 1050 q 226 1046 225 1043 q 245 1080 233 1058 q 267 1117 257 1101 q 285 1147 276 1133 q 346 1161 297 1167 q 376 1144 376 1157 q 375 1142 375 1143 q 311 1039 357 1099 q 232 982 265 979 q 133 1147 201 985 q 138 1160 132 1156 q 151 1162 143 1164 q 160 1151 158 1160 z "},"":{"ha":586,"x_min":-17,"x_max":613,"o":"m 25 242 l -1 242 q 60 372 46 336 q 13 496 19 471 q 60 614 -1 568 q 167 633 115 656 q 208 488 235 606 q 193 436 203 464 q 326 63 300 176 q 451 97 413 76 q 586 246 529 140 l 613 246 q 494 77 556 124 q 336 11 433 31 q 331 -178 351 -89 q 236 -294 310 -267 q 68 -267 151 -326 q -11 -137 -8 -212 q 122 17 -15 -37 q 165 32 142 25 q 76 340 126 214 q 25 242 46 279 m 161 -182 q 175 -15 189 -137 q 33 -124 39 -51 q 74 -197 29 -169 q 153 -193 121 -226 q 161 -182 157 -189 m 56 840 l 61 831 q 71 811 67 819 q 82 789 75 803 q 94 766 89 775 q 106 748 100 757 q 116 735 111 739 q 122 735 121 732 q 141 769 129 747 q 163 806 153 790 q 181 836 172 822 q 242 850 193 856 q 272 833 272 846 q 271 831 271 832 q 207 728 253 788 q 128 671 161 668 q 29 836 97 674 q 33 849 28 844 q 47 851 39 853 q 56 840 54 849 z "},"":{"ha":733,"x_min":1,"x_max":704,"o":"m 332 -278 q 496 -192 431 -276 q 592 33 561 -107 q 640 313 624 174 q 669 606 656 453 q 699 828 682 760 q 601 856 704 850 q 489 840 499 860 q 446 421 482 811 q 436 412 443 418 q 425 402 429 406 q 414 392 421 399 q 401 383 407 386 q 389 377 396 381 q 377 374 382 374 q 366 376 372 375 q 355 383 360 378 q 346 397 350 389 q 330 519 329 436 q 339 685 331 601 q 343 836 347 768 q 313 911 339 904 q 195 932 268 925 q 97 931 122 939 q 89 918 90 928 q 92 901 88 908 q 104 896 97 894 q 131 883 124 900 q 145 762 146 846 q 135 593 144 678 q 128 425 125 508 q 157 307 132 342 q 246 282 188 275 q 363 314 304 289 q 444 363 422 339 q 303 -158 421 -76 q 187 -178 239 -200 q 100 -103 135 -156 q 57 11 65 -50 q 103 159 44 101 q 225 165 163 217 q 256 108 253 142 q 233 51 260 75 q 222 26 221 40 q 234 6 224 11 q 257 8 244 1 q 304 104 306 46 q 256 201 303 163 q 164 235 211 240 q 79 202 117 231 q 22 119 42 174 q 10 4 1 64 q 122 -197 28 -115 q 332 -278 217 -279 m 367 1026 q 426 1006 413 1028 q 421 960 439 985 q 372 932 403 936 q 321 951 343 928 q 309 1001 299 975 q 367 1026 319 1026 m 546 1026 q 605 1006 592 1028 q 600 960 618 985 q 551 932 582 936 q 500 951 522 928 q 488 1001 478 975 q 546 1026 499 1026 z "},"":{"ha":608,"x_min":6,"x_max":781,"o":"m 129 508 q 49 544 71 501 q 46 643 28 586 q 104 733 64 700 q 286 820 157 778 q 475 919 415 863 q 554 920 506 949 q 635 842 603 892 q 661 769 668 793 q 633 672 657 756 q 594 544 608 588 q 547 414 581 500 q 482 269 514 328 q 399 140 450 211 q 292 17 349 69 q 472 -165 371 -115 q 740 -218 574 -214 q 779 -240 778 -219 q 746 -265 779 -261 q 733 -265 740 -265 q 447 -204 563 -262 q 250 -7 332 -146 q 65 -11 144 -76 q 8 101 11 33 q 61 181 6 167 q 110 181 82 186 q 185 143 160 171 q 463 847 297 283 q 299 774 414 813 q 135 697 183 736 q 88 615 103 669 q 119 556 74 561 q 169 535 168 557 q 138 510 171 517 q 129 508 133 508 m 115 92 q 151 108 133 94 q 107 132 138 126 q 72 115 76 136 q 94 93 68 97 q 115 92 103 90 m 206 1026 l 211 1017 q 221 997 217 1006 q 232 975 225 989 q 244 952 239 961 q 256 934 250 943 q 266 922 261 925 q 272 921 271 918 q 291 955 279 933 q 313 992 303 976 q 331 1022 322 1008 q 392 1036 343 1042 q 422 1019 422 1032 q 421 1017 421 1018 q 357 914 403 974 q 278 857 311 854 q 179 1022 247 860 q 183 1035 178 1031 q 197 1037 189 1039 q 206 1026 204 1035 z "},"":{"ha":440,"x_min":-29,"x_max":467,"o":"m 24 242 l -3 242 q 56 390 39 321 q -17 467 -15 417 q 26 531 -18 517 q 94 511 68 543 q 96 422 119 479 q 143 418 110 419 q 210 416 176 417 q 278 411 244 415 q 331 395 311 407 q 349 364 350 383 q 235 163 340 299 q 313 149 293 160 q 338 115 333 139 q 351 128 342 119 q 363 141 360 138 q 374 153 367 144 q 386 166 382 161 q 398 181 390 171 q 411 199 406 190 q 424 220 417 208 q 440 246 432 232 l 467 246 q 429 184 449 214 q 383 119 410 154 q 347 71 357 85 q 206 -425 382 -362 q 35 -402 100 -462 q 10 -240 -29 -342 q 48 -171 22 -210 q 92 -110 74 -132 q 148 -44 110 -87 q 192 7 186 0 q 103 10 132 4 q 61 52 65 15 q 77 139 57 89 q 123 239 97 189 q 170 328 149 289 q 190 374 192 367 q 166 376 190 375 q 115 380 142 378 q 85 382 88 382 q 24 242 56 300 m 138 -346 q 190 -256 174 -312 q 206 -144 207 -199 q 203 -36 204 -90 q 156 -92 201 -37 q 84 -184 110 -146 q 44 -257 58 -222 q 51 -358 19 -321 q 138 -346 83 -394 m 122 679 l 128 669 q 138 650 133 658 q 149 628 142 642 q 161 605 156 614 q 172 587 167 596 q 183 574 178 578 q 189 574 188 571 q 208 608 196 586 q 229 645 219 629 q 247 675 239 661 q 308 689 260 694 q 339 672 339 685 q 338 669 338 671 q 274 567 319 626 q 194 510 228 507 q 96 675 164 513 q 100 688 94 683 q 113 690 106 692 q 122 679 121 688 z "},"":{"ha":328,"x_min":40,"x_max":286,"o":"m 258 593 l 253 603 q 243 622 247 614 q 232 644 239 631 q 219 667 225 658 q 208 685 214 676 q 198 698 203 694 q 192 699 193 701 q 173 665 185 686 q 151 627 161 643 q 133 597 142 611 q 72 583 121 578 q 42 600 42 588 q 43 603 43 601 q 107 706 61 646 q 186 763 153 765 q 285 597 217 760 q 281 585 286 589 q 267 583 275 581 q 258 593 260 585 z "},"":{"ha":328,"x_min":42,"x_max":288,"o":"m 69 749 l 75 739 q 85 719 81 728 q 96 697 89 711 q 108 674 103 683 q 119 656 114 665 q 130 644 125 647 q 136 643 135 640 q 155 677 143 656 q 176 715 167 699 q 194 744 186 731 q 256 758 207 764 q 286 742 286 754 q 285 739 285 740 q 221 636 267 696 q 142 579 175 576 q 43 744 111 582 q 47 757 42 753 q 60 759 53 761 q 69 749 68 757 z "},"":{"ha":263,"x_min":42,"x_max":231,"o":"m 183 725 l 218 725 q 174 631 229 656 q 79 643 124 607 q 42 721 46 669 l 140 726 q 149 670 140 692 q 167 661 157 649 q 183 725 178 674 z "},"":{"ha":236,"x_min":47,"x_max":188,"o":"m 115 774 q 174 753 161 775 q 169 708 188 732 q 121 679 151 683 q 69 699 92 675 q 58 748 47 722 q 115 774 68 774 z "},"":{"ha":263,"x_min":40,"x_max":222,"o":"m 218 693 q 185 635 214 654 q 121 621 156 615 q 65 656 86 626 q 44 709 47 678 q 51 767 40 740 q 104 810 67 800 q 176 803 142 821 q 218 744 210 785 q 218 693 222 721 m 182 694 q 185 740 186 722 q 164 776 182 769 q 143 756 147 782 q 142 746 142 751 q 144 693 139 725 q 155 662 147 669 q 171 664 163 654 q 182 694 179 674 z "},"":{"ha":253,"x_min":24,"x_max":219,"o":"m 207 -272 q 54 -246 94 -314 q 54 -135 24 -196 q 154 -76 86 -69 q 172 -79 164 -76 l 172 14 q 189 31 172 31 q 206 14 206 31 q 206 -64 208 -22 q 199 -111 203 -106 q 106 -128 140 -89 q 101 -189 78 -160 q 204 -210 129 -219 q 210 -215 208 -208 q 211 -267 219 -242 q 207 -272 210 -271 z "},"":{"ha":392,"x_min":56,"x_max":338,"o":"m 88 656 q 74 635 82 639 q 61 640 67 631 q 56 664 56 649 q 93 730 56 721 q 176 719 131 739 q 260 697 221 700 q 306 725 300 693 q 324 743 308 749 q 335 718 336 739 q 307 641 332 663 q 248 626 282 619 q 178 644 214 633 q 118 664 142 654 q 88 656 94 674 z "},"":{"ha":353,"x_min":33,"x_max":314,"o":"m 89 607 q 54 599 75 586 q 46 633 33 613 q 131 758 100 722 q 157 764 143 769 q 175 747 171 758 q 168 722 179 735 q 89 607 133 681 m 224 607 q 189 599 210 586 q 181 633 168 613 q 265 758 235 722 q 292 764 278 769 q 310 747 306 758 q 303 722 314 735 q 224 607 268 681 z "},"":{"ha":324,"x_min":28,"x_max":296,"o":"m 271 392 q 296 367 296 392 q 271 342 296 342 l 53 342 q 28 367 28 342 q 53 392 28 392 l 271 392 z "},"":{"ha":469,"x_min":28,"x_max":442,"o":"m 417 353 q 442 328 442 353 q 417 303 442 303 l 53 303 q 28 328 28 303 q 53 353 28 353 l 417 353 z "},"":{"ha":235,"x_min":54,"x_max":183,"o":"m 85 600 q 56 646 57 613 q 81 713 54 679 q 150 758 107 747 q 176 749 169 763 q 172 725 183 735 q 150 714 171 725 q 128 701 129 703 q 174 663 169 703 q 146 603 179 624 q 85 600 119 585 z "},"":{"ha":235,"x_min":51,"x_max":181,"o":"m 151 725 q 180 679 179 713 q 154 612 181 646 q 86 567 128 578 q 59 576 67 563 q 64 600 51 590 q 85 612 65 601 q 108 624 106 622 q 62 662 67 622 q 89 722 57 701 q 151 725 115 740 z "},"":{"ha":235,"x_min":51,"x_max":181,"o":"m 151 76 q 180 31 179 64 q 154 -37 181 -3 q 86 -82 128 -71 q 59 -72 67 -86 q 64 -49 51 -58 q 84 -37 65 -47 q 107 -25 103 -26 q 61 14 65 -25 q 89 74 57 53 q 151 76 117 92 z "},"":{"ha":376,"x_min":54,"x_max":325,"o":"m 225 600 q 197 646 197 613 q 222 713 196 679 q 290 758 249 747 q 317 749 310 763 q 313 725 325 735 q 291 713 311 724 q 268 701 271 703 q 315 663 310 703 q 288 603 319 624 q 225 600 261 585 m 85 600 q 56 646 57 613 q 81 713 54 679 q 150 758 107 747 q 176 749 169 763 q 172 725 183 735 q 150 714 171 725 q 128 701 129 703 q 174 663 169 703 q 146 603 179 624 q 85 600 119 585 z "},"":{"ha":376,"x_min":51,"x_max":322,"o":"m 151 725 q 180 679 179 713 q 154 612 181 646 q 86 567 128 578 q 59 576 67 563 q 64 600 51 590 q 85 612 65 601 q 108 624 106 622 q 62 662 67 622 q 89 722 57 701 q 151 725 115 740 m 292 725 q 321 679 319 713 q 296 612 322 646 q 226 567 269 578 q 200 576 207 563 q 204 600 193 590 q 226 611 206 600 q 249 624 247 622 q 202 662 207 622 q 231 722 197 701 q 292 725 257 740 z "},"":{"ha":376,"x_min":51,"x_max":322,"o":"m 292 76 q 321 31 319 64 q 296 -37 322 -3 q 226 -82 269 -71 q 200 -72 207 -86 q 204 -49 193 -58 l 249 -25 q 202 13 207 -26 q 231 74 197 53 q 292 76 257 92 m 151 76 q 180 31 179 64 q 154 -37 181 -3 q 86 -82 128 -71 q 59 -72 67 -86 q 64 -49 51 -58 q 84 -37 65 -47 q 107 -25 103 -26 q 61 14 65 -25 q 89 74 57 53 q 151 76 117 92 z "},"":{"ha":324,"x_min":28,"x_max":296,"o":"m 271 268 q 296 243 296 268 q 271 218 296 218 l 188 218 l 188 -208 q 162 -233 188 -233 q 136 -208 136 -233 l 136 218 l 53 218 q 28 243 28 218 q 53 268 28 268 l 136 268 l 136 775 q 162 800 136 800 q 188 775 188 800 l 188 268 l 271 268 z "},"":{"ha":324,"x_min":28,"x_max":296,"o":"m 53 529 q 28 554 28 529 q 53 579 28 579 l 136 579 l 136 775 q 162 800 136 800 q 188 775 188 800 l 188 579 l 271 579 q 296 554 296 579 q 271 529 296 529 l 188 529 l 188 51 l 271 51 q 296 26 296 51 q 271 1 296 1 l 188 1 l 188 -208 q 162 -233 188 -233 q 136 -208 136 -233 l 136 1 l 53 1 q 28 26 28 1 q 53 51 28 51 l 136 51 l 136 529 l 53 529 z "},"":{"ha":708,"x_min":47,"x_max":660,"o":"m 115 93 q 174 73 161 94 q 169 27 188 51 q 121 -1 151 3 q 69 18 92 -6 q 58 67 47 42 q 115 93 68 93 m 588 93 q 647 73 633 94 q 642 27 660 51 q 593 -1 624 3 q 542 18 564 -6 q 530 67 519 42 q 588 93 540 93 m 351 93 q 410 73 397 94 q 406 27 424 51 q 357 -1 388 3 q 306 18 328 -6 q 294 67 283 42 q 351 93 304 93 z "},"":{"ha":440,"x_min":56,"x_max":390,"o":"m 261 660 q 301 685 267 681 q 363 678 335 690 q 383 643 390 665 q 346 538 378 628 q 292 381 314 447 q 241 226 269 314 q 197 74 213 138 q 179 -22 181 10 q 148 -49 179 -42 q 86 -49 117 -57 q 56 -22 56 -42 q 85 123 57 24 q 141 308 113 222 q 210 513 169 394 q 261 660 251 632 z "},"":{"ha":739,"x_min":10,"x_max":728,"o":"m 383 910 q 400 910 393 921 q 400 899 406 903 q 364 878 388 885 q 322 870 340 871 q 271 869 304 869 q 229 869 238 869 q 224 764 228 818 q 207 638 219 710 q 167 515 194 565 q 101 453 140 464 q 15 497 44 435 q 21 521 10 513 q 35 511 28 528 q 54 486 42 493 q 78 490 67 479 q 124 658 104 515 q 144 865 144 800 q 47 813 79 860 q 29 808 39 800 q 28 822 22 814 q 112 877 56 861 q 220 890 168 893 q 320 889 272 886 q 383 910 368 892 m 710 417 q 724 410 721 419 q 717 397 728 401 q 619 407 654 369 q 596 496 596 433 q 606 633 596 558 q 614 732 617 707 q 556 735 610 790 q 536 714 549 729 q 513 690 519 696 q 496 510 504 547 q 474 492 493 497 q 438 494 456 488 q 422 517 421 501 q 429 581 422 518 q 440 690 436 644 q 442 754 443 735 q 361 696 438 800 q 338 661 342 669 q 335 576 336 629 q 331 490 333 522 q 310 470 329 475 q 272 472 290 465 q 256 490 254 478 q 264 648 260 549 q 269 776 268 747 q 289 796 269 790 q 327 794 308 801 q 344 774 346 788 q 339 701 342 726 q 363 731 349 715 q 397 763 376 746 q 437 790 418 781 q 476 798 456 800 q 508 776 496 796 q 515 721 515 767 q 545 752 539 746 q 569 771 551 758 q 602 786 586 783 q 642 788 618 789 q 692 733 686 785 q 686 633 694 703 q 674 517 678 563 q 682 429 671 472 q 710 417 690 413 z "},"":{"ha":379,"x_min":56,"x_max":324,"o":"m 299 268 q 324 243 324 268 q 299 218 324 218 l 81 218 q 56 243 56 218 q 81 268 56 268 l 299 268 z "},"":{"ha":842,"x_min":-268,"x_max":1018,"o":"m 975 -149 q 992 -144 982 -142 q 1010 -158 1003 -147 q 1013 -178 1018 -169 q 933 -239 976 -226 q 839 -215 890 -251 q 686 397 724 -119 q 626 376 672 393 q 553 356 581 360 q 472 220 524 294 q 342 77 419 146 q 197 1 264 8 q 90 22 139 -6 q 19 90 42 49 q 8 183 -3 132 q 69 274 19 235 q 99 283 85 285 q 113 267 114 281 q 93 239 113 253 q 52 194 64 218 q 47 151 40 169 q 69 117 54 132 q 109 102 85 103 q 157 111 133 101 q 343 351 244 153 q 283 368 313 354 q 278 384 275 374 q 290 403 281 394 q 304 410 300 413 q 367 400 333 397 q 501 801 421 518 q 423 747 467 767 q 328 733 379 728 q 242 774 278 738 q 103 690 188 724 q -75 658 18 656 q -219 715 -168 660 q -233 819 -268 768 q -157 854 -206 861 q -86 804 -114 849 q -83 790 -82 796 q -92 784 -85 783 q -106 793 -100 785 q -186 829 -139 846 q -224 779 -222 817 q -203 731 -224 754 q -68 679 -156 679 q 99 713 19 679 q 228 792 178 746 q 206 917 189 847 q 232 954 213 944 q 271 951 251 964 q 297 910 290 939 q 257 789 315 850 q 349 751 299 749 q 444 784 399 754 q 518 858 489 814 l 522 874 q 582 909 531 901 q 683 902 633 917 q 733 861 732 888 q 732 657 736 811 q 731 453 728 503 q 781 436 761 450 q 789 415 793 425 q 772 400 785 406 q 751 399 758 394 q 733 404 744 401 q 868 -179 768 -94 q 975 -149 921 -222 m 579 411 q 625 428 588 414 q 683 446 663 442 l 690 758 q 661 661 683 736 q 617 517 639 586 q 579 411 596 447 m 243 807 q 275 908 290 863 q 260 931 269 924 q 242 933 251 938 q 228 913 232 929 q 226 858 221 889 q 243 807 231 828 z "},"":{"ha":692,"x_min":-840,"x_max":663,"o":"m 435 374 q 554 313 506 367 q 617 110 629 232 q 517 -75 606 -11 q 369 -124 449 -122 q 237 -72 290 -125 q 196 81 183 -18 q 210 95 197 90 q 234 94 222 100 q 244 71 246 88 q 254 -12 240 19 q 291 -51 268 -44 q 344 -37 314 -57 q 399 28 374 -17 q 424 158 432 85 q 371 281 417 232 q 275 324 333 319 q 206 347 218 326 q 243 399 193 367 q 416 572 324 447 q 419 729 508 696 q 169 654 325 768 l 169 42 q 128 8 169 19 q 47 4 88 -4 q 6 38 6 13 l 6 579 q -81 487 -26 525 q -201 439 -136 449 q -331 468 -267 429 q -469 384 -385 418 q -647 352 -554 350 q -792 410 -740 354 q -806 514 -840 463 q -729 549 -778 556 q -658 499 -686 543 q -656 484 -654 490 q -665 478 -657 478 q -678 488 -672 479 q -758 524 -711 540 q -796 474 -794 511 q -775 425 -796 449 q -640 374 -728 374 q -474 407 -553 374 q -344 486 -394 440 q -367 611 -383 542 q -340 649 -360 639 q -301 646 -321 658 q -275 604 -282 633 q -315 483 -257 544 q -271 469 -293 474 q -231 463 -249 465 q -192 469 -214 461 q -159 481 -171 478 q -126 501 -147 483 q -97 524 -104 519 q -69 553 -90 529 q -44 582 -47 578 q -18 614 -40 586 q 6 643 4 642 l 6 711 q 47 758 6 743 q 128 765 88 772 q 169 738 169 758 l 169 713 q 303 778 224 746 q 454 811 383 810 q 638 714 610 817 q 579 507 663 624 q 435 374 522 428 m -329 501 q -297 603 -282 557 q -312 625 -303 618 q -331 628 -321 632 q -344 607 -340 624 q -347 553 -351 583 q -329 501 -342 522 z "},"":{"ha":581,"x_min":-594,"x_max":635,"o":"m 586 307 q 601 328 588 322 q 624 324 614 333 q 632 299 635 315 q 510 71 611 188 q 293 -79 408 -46 q 60 -6 133 -125 q 8 302 -12 114 q 114 650 29 490 q 13 627 71 624 q -85 669 -46 631 q -224 585 -139 619 q -401 553 -308 551 q -546 611 -494 556 q -560 715 -594 664 q -483 750 -532 757 q -412 700 -440 744 q -410 685 -408 692 q -419 680 -411 679 q -432 689 -426 681 q -512 725 -465 742 q -550 675 -549 713 q -529 626 -550 650 q -394 575 -482 575 q -228 608 -307 575 q -99 688 -149 642 q -121 813 -137 743 q -94 850 -114 840 q -56 847 -75 860 q -29 806 -36 835 q -69 685 -11 746 q 32 649 -24 644 q 142 696 88 654 q 285 843 206 796 q 456 865 365 890 q 551 790 528 846 q 543 678 575 733 q 442 601 511 622 q 417 606 426 597 q 412 628 408 615 q 432 647 415 642 q 513 726 493 669 q 497 797 532 779 q 454 800 481 806 q 292 614 372 783 q 192 242 204 431 q 275 6 178 39 l 299 0 q 474 94 382 -7 q 586 307 567 194 m -83 703 q -51 804 -36 758 q -66 826 -57 819 q -85 829 -75 833 q -99 808 -94 825 q -101 754 -106 785 q -83 703 -96 724 z "},"":{"ha":767,"x_min":-781,"x_max":729,"o":"m 385 821 q 588 782 504 843 q 701 609 672 721 q 723 371 729 497 q 660 126 717 244 q 513 -57 603 7 q 328 -118 435 -112 q 147 -62 222 -124 q 135 -22 119 -39 q 178 -26 150 -6 q 297 -57 238 -68 q 406 4 357 -46 q 497 159 461 61 q 541 360 533 257 q 536 557 549 464 q 481 709 524 650 q 374 765 438 768 q 199 675 294 763 q 202 360 199 568 q 206 78 206 151 q 189 19 206 40 q 147 -3 172 -3 q 97 6 122 -3 q 54 36 72 15 q 36 79 36 57 q 31 346 35 176 q 25 588 26 515 q -56 506 -4 539 q -165 469 -107 472 q -271 513 -222 465 q -410 428 -325 463 q -587 397 -494 394 q -732 454 -681 399 q -746 558 -781 507 q -669 593 -718 600 q -599 543 -626 588 q -596 528 -594 535 q -605 523 -597 522 q -618 532 -612 524 q -699 568 -651 585 q -736 518 -735 556 q -715 469 -736 493 q -581 418 -668 418 q -414 451 -493 418 q -285 531 -335 485 q -307 656 -324 586 q -281 693 -300 683 q -242 690 -261 703 q -215 649 -222 678 q -256 528 -197 589 q 25 628 -118 417 q 31 771 25 688 q 75 828 32 813 q 160 827 118 843 q 200 775 201 811 q 199 738 199 764 q 280 785 225 758 q 385 821 335 811 m -269 546 q -237 647 -222 601 q -252 669 -243 663 q -271 672 -261 676 q -285 651 -281 668 q -287 597 -292 628 q -269 546 -282 567 z "},"":{"ha":614,"x_min":-629,"x_max":665,"o":"m 618 268 q 632 277 619 276 q 655 272 644 278 q 664 260 665 267 q 563 89 642 156 q 386 0 485 22 q 253 -5 317 -14 q 144 38 190 4 q 63 115 97 71 q 17 217 29 160 q 12 328 6 274 q 53 438 18 383 q 146 535 88 493 q 172 551 167 549 q 136 588 151 564 q 118 707 104 639 q 1 658 67 663 q -119 700 -64 653 q -258 616 -174 650 q -436 584 -343 582 q -581 642 -529 586 q -594 746 -629 694 q -518 781 -567 788 q -447 731 -475 775 q -444 716 -443 722 q -453 710 -446 710 q -467 719 -461 711 q -547 756 -500 772 q -585 706 -583 743 q -564 657 -585 681 q -429 606 -517 606 q -262 639 -342 606 q -133 718 -183 672 q -156 843 -172 774 q -129 881 -149 871 q -90 878 -110 890 q -64 836 -71 865 q -104 715 -46 776 q -26 679 -71 682 q 59 697 18 676 q 132 751 100 717 q 199 844 154 804 q 299 896 244 883 q 531 842 461 932 q 554 707 576 779 q 492 640 536 656 q 465 654 471 633 q 483 689 458 676 q 513 756 517 706 q 475 830 508 806 q 392 826 442 854 q 323 728 347 794 q 324 613 299 661 q 406 579 343 579 q 425 555 425 578 q 406 531 425 532 q 319 496 363 526 q 233 383 264 457 q 206 239 203 310 q 258 115 210 168 q 396 63 307 63 q 540 121 478 63 q 618 268 601 179 m -118 733 q -86 835 -71 789 q -101 857 -92 850 q -119 860 -110 864 q -133 839 -129 856 q -135 785 -140 815 q -118 733 -131 754 z "},"":{"ha":767,"x_min":-658,"x_max":878,"o":"m 871 868 q 822 836 850 849 q 772 817 794 824 q 713 810 750 811 q 658 810 676 810 q 594 814 639 811 q 536 818 550 817 q 501 519 526 653 q 732 540 600 539 q 751 528 746 540 q 749 505 756 517 q 729 493 742 493 q 492 468 590 492 q 386 83 436 200 q 190 -125 307 -99 q 44 -54 101 -146 q 7 179 -15 44 q 182 440 36 350 q 306 493 236 475 q 356 815 346 706 q 108 697 219 819 q -15 631 57 642 q -149 672 -87 619 q -287 588 -203 622 q -465 556 -372 554 q -610 614 -558 558 q -624 718 -658 667 q -547 753 -596 760 q -476 703 -504 747 q -474 688 -472 694 q -483 683 -475 682 q -496 692 -490 683 q -576 728 -529 744 q -614 678 -612 715 q -593 629 -614 653 q -458 578 -546 578 q -292 611 -371 578 q -162 690 -212 644 q -185 815 -201 746 q -158 853 -178 843 q -119 850 -139 863 q -93 808 -100 838 q -133 688 -75 749 q 82 733 -31 590 q 225 835 139 804 q 399 865 311 867 q 570 857 486 864 q 726 857 654 850 q 833 899 799 864 q 857 904 843 908 q 874 888 871 900 q 871 868 878 876 m 146 -36 q 294 440 208 18 q 65 222 114 386 q 68 13 31 110 q 129 -44 94 -51 q 146 -36 138 -43 m -147 706 q -115 807 -100 761 q -130 829 -121 822 q -149 832 -139 836 q -162 811 -158 828 q -165 757 -169 788 q -147 706 -160 726 z "},"":{"ha":706,"x_min":-662,"x_max":647,"o":"m 475 578 q 495 597 476 590 q 539 605 514 604 q 589 603 564 606 q 631 592 614 600 q 646 571 647 583 q 637 491 643 551 q 626 394 631 431 q 613 294 622 358 q 596 186 604 229 q 573 83 588 143 q 543 -19 558 22 q 505 -106 528 -60 q 456 -183 482 -153 q 397 -236 431 -212 q 326 -268 364 -260 q 172 -217 232 -290 q 133 -30 111 -143 q 268 158 154 83 q 299 151 292 174 q 283 114 306 129 q 178 -76 174 38 q 224 -182 179 -151 q 282 -179 254 -204 q 374 22 332 -136 q 440 331 417 181 q 224 219 346 229 q 99 247 150 214 q 28 340 49 281 q 9 474 8 400 q 31 626 10 547 q -153 664 -96 607 q -292 580 -207 614 q -469 548 -376 546 q -614 606 -562 550 q -628 710 -662 658 q -551 744 -600 751 q -481 694 -508 739 q -478 680 -476 686 q -487 674 -479 674 q -500 683 -494 675 q -581 719 -533 736 q -618 669 -617 707 q -597 621 -618 644 q -462 569 -550 569 q -296 603 -375 569 q -167 682 -217 636 q -189 807 -206 738 q -162 844 -182 835 q -124 842 -143 854 q -97 800 -104 829 q -137 679 -79 740 q 36 650 -87 629 q 184 902 85 804 q 404 972 283 1000 q 478 849 515 946 q 351 704 447 772 q 222 650 278 653 q 188 442 185 540 q 240 307 192 344 q 347 305 289 269 q 453 413 406 340 q 475 578 461 467 m 404 921 q 313 840 363 913 q 232 676 264 767 q 392 790 315 693 q 442 907 451 868 q 404 921 436 928 m -151 697 q -119 799 -104 753 q -134 821 -125 814 q -153 824 -143 828 q -167 803 -162 819 q -169 749 -174 779 q -151 697 -164 718 z "},"":{"ha":800,"x_min":-496,"x_max":901,"o":"m 869 -156 q 892 -160 882 -151 q 901 -183 901 -169 q 888 -200 900 -196 q 724 -118 785 -240 q 644 526 636 53 q 440 482 517 510 q 404 208 421 276 q 226 -15 358 31 q 64 26 133 -47 q 8 207 -4 99 q 178 443 24 351 q 267 486 218 468 q 283 846 272 557 q 204 785 250 808 q 106 766 158 763 q 14 808 53 769 q -125 724 -40 758 q -303 692 -210 690 q -447 750 -396 694 q -461 854 -496 803 q -385 889 -433 896 q -314 839 -342 883 q -311 824 -310 831 q -320 819 -312 818 q -333 828 -328 819 q -414 864 -367 881 q -451 814 -450 851 q -431 765 -451 789 q -296 714 -383 714 q -129 747 -208 714 q 0 826 -50 781 q -22 951 -39 882 q 4 989 -15 979 q 43 986 24 999 q 69 944 63 974 q 29 824 88 885 q 118 787 69 785 q 210 816 167 789 q 285 885 254 843 l 285 890 q 333 947 286 929 q 426 953 381 965 q 472 907 472 940 q 444 533 472 869 q 646 575 540 563 q 661 847 650 738 q 675 862 663 858 q 699 859 688 865 q 708 842 710 853 q 690 545 694 710 q 703 191 686 381 q 763 -90 719 1 q 869 -156 803 -179 m 171 69 q 230 225 207 108 q 261 433 253 342 q 57 224 83 358 q 88 82 40 139 q 161 61 125 36 q 171 69 167 65 m 15 842 q 47 943 63 897 q 33 965 42 958 q 14 968 24 972 q 0 947 4 964 q -2 893 -7 924 q 15 842 3 863 z "},"":{"ha":633,"x_min":-575,"x_max":579,"o":"m 394 924 q 518 804 472 896 q 572 594 564 713 q 552 346 579 476 q 470 109 525 215 q 322 -65 415 3 q 115 -125 228 -132 q -2 -85 44 -121 q -60 -1 -49 -50 q -66 99 -72 49 q -31 186 -60 149 q 39 231 -1 224 q 69 215 68 236 q 39 182 72 193 q -25 94 -14 164 q 6 -26 -36 24 q 122 -42 47 -75 q 269 111 206 -6 q 359 362 333 228 q 374 628 385 496 q 311 828 364 761 q 249 859 278 871 q 217 813 219 847 q 232 758 215 778 q 224 658 272 722 q 88 575 172 593 q -65 621 -4 556 q -204 537 -119 571 q -382 505 -289 503 q -526 563 -475 507 q -540 667 -575 615 q -464 701 -512 708 q -393 651 -421 696 q -390 637 -389 643 q -399 631 -392 631 q -412 640 -407 632 q -493 676 -446 693 q -531 626 -529 664 q -510 578 -531 601 q -375 526 -462 526 q -208 560 -287 526 q -79 639 -129 593 q -101 764 -118 694 q -75 801 -94 792 q -36 799 -56 811 q -10 757 -17 786 q -50 636 8 697 q 101 609 14 578 q 214 714 189 640 q 168 817 153 746 q 249 917 182 883 q 394 924 315 951 m -64 654 q -32 756 -17 710 q -47 778 -37 771 q -65 781 -56 785 q -79 760 -75 776 q -81 706 -86 736 q -64 654 -76 675 z "},"":{"ha":756,"x_min":-579,"x_max":707,"o":"m 582 889 q 648 789 618 879 q 692 570 678 699 q 698 294 707 442 q 657 22 689 147 q 551 -187 625 -104 q 374 -272 478 -271 q 164 -192 258 -274 q 51 11 69 -110 q 63 125 43 71 q 121 208 83 179 q 206 241 158 236 q 297 207 253 246 q 346 110 344 168 q 299 14 347 51 q 276 13 288 6 q 265 32 265 19 q 275 57 264 44 q 299 114 303 81 q 268 171 296 147 q 145 165 204 222 q 99 18 86 108 q 142 -97 107 -43 q 229 -172 176 -150 q 346 -153 282 -194 q 465 124 425 -99 q 494 567 506 346 q 431 851 482 789 q 422 853 426 856 q 299 812 386 835 q 148 758 211 789 q 63 679 85 728 q 86 580 39 624 q 213 528 133 536 q 217 475 243 524 q 117 381 183 414 q -69 408 14 329 q -208 324 -124 358 q -386 292 -293 290 q -531 350 -479 294 q -544 454 -579 403 q -468 489 -517 496 q -397 439 -425 483 q -394 424 -393 431 q -403 419 -396 418 q -417 428 -411 419 q -497 464 -450 481 q -535 414 -533 451 q -514 365 -535 389 q -379 314 -467 314 q -212 347 -292 314 q -83 426 -133 381 q -106 551 -122 482 q -79 589 -99 579 q -40 586 -60 599 q -14 544 -21 574 q -54 424 4 485 q 31 388 -18 388 q 124 413 81 388 q 197 479 167 439 q 47 553 104 490 q 15 689 -10 617 q 106 791 39 756 q 269 851 172 826 q 406 897 367 876 q 478 901 413 903 q 582 889 543 900 m -68 442 q -36 543 -21 497 q -51 565 -42 558 q -69 568 -60 572 q -83 547 -79 564 q -85 493 -90 524 q -68 442 -81 463 z "},"":{"ha":628,"x_min":-714,"x_max":717,"o":"m 247 854 q 249 724 247 822 q 249 572 250 625 q 409 649 349 581 q 510 828 469 717 q 528 844 515 843 q 549 835 540 844 q 556 814 558 825 q 358 553 479 614 q 367 361 354 468 q 414 142 381 254 q 516 -51 447 29 q 676 -139 585 -131 q 714 -164 713 -142 q 694 -185 717 -181 q 676 -186 686 -187 q 525 -125 592 -181 q 418 10 458 -69 q 351 188 378 89 q 316 373 325 286 q 310 535 307 460 q 247 524 278 525 q 176 0 242 243 q 119 -40 168 -31 q 28 -31 69 -50 q -4 31 -14 -11 q 64 810 61 279 q -15 750 31 772 q -114 732 -61 728 q -204 774 -167 736 q -343 690 -258 724 q -521 658 -428 656 q -665 715 -614 660 q -679 819 -714 768 q -603 854 -651 861 q -532 804 -560 849 q -529 790 -528 796 q -538 784 -531 783 q -551 793 -546 785 q -632 829 -585 846 q -669 779 -668 817 q -649 731 -669 754 q -514 679 -601 679 q -347 713 -426 679 q -218 792 -268 746 q -240 917 -257 847 q -214 954 -233 944 q -175 951 -194 964 q -149 910 -156 939 q -189 789 -131 850 q -103 753 -153 753 q -10 779 -53 753 q 64 846 32 806 l 64 869 q 110 907 64 900 q 201 898 156 914 q 247 854 247 882 m -203 807 q -171 908 -156 863 q -185 931 -176 924 q -204 933 -194 938 q -218 913 -214 929 q -220 858 -225 889 q -203 807 -215 828 z "},"":{"ha":633,"x_min":-474,"x_max":956,"o":"m 929 -69 q 947 -74 939 -65 q 956 -97 956 -83 q 944 -114 956 -110 q 722 -167 818 -162 q 551 -142 625 -171 q 375 -46 476 -114 q 93 -103 226 -179 q -10 24 17 -58 q 10 132 -35 101 q 236 71 74 176 q 297 833 288 144 q 218 777 263 797 q 124 762 174 757 q 36 804 74 767 q -103 720 -18 754 q -281 688 -187 686 q -425 746 -374 690 q -439 850 -474 799 q -362 885 -411 892 q -292 835 -319 879 q -289 820 -287 826 q -298 815 -290 814 q -311 824 -306 815 q -392 860 -344 876 q -429 810 -428 847 q -408 761 -429 785 q -274 710 -361 710 q -107 743 -186 710 q 22 822 -28 776 q 0 947 -17 878 q 26 985 7 975 q 65 982 46 994 q 92 940 85 969 q 51 819 110 881 q 180 788 111 769 q 297 868 249 807 l 297 883 q 343 922 297 914 q 435 913 389 929 q 481 868 481 896 q 404 -8 481 121 q 476 -48 432 -22 q 543 -86 519 -74 q 609 -112 567 -99 q 692 -124 651 -125 q 793 -111 732 -124 q 929 -69 854 -99 m 99 -11 q 210 32 151 -18 q 33 97 79 131 q 29 38 7 78 q 99 -11 51 -4 m 38 838 q 69 939 85 893 q 55 961 64 954 q 36 964 46 968 q 22 943 26 960 q 20 889 15 919 q 38 838 25 858 z "},"":{"ha":1056,"x_min":-754,"x_max":1076,"o":"m 1035 -121 q 1069 -135 1063 -114 q 1050 -167 1076 -156 q 929 -188 992 -194 q 829 -143 867 -182 q 777 8 786 -97 q 781 215 768 113 q 808 433 794 317 q 817 600 821 550 q 708 633 807 722 q 613 533 696 622 q 585 506 596 515 q 576 388 583 496 q 563 210 569 281 q 544 93 556 139 q 495 53 538 64 q 414 57 453 42 q 378 107 375 72 q 390 217 379 125 q 407 382 400 310 q 419 535 414 454 q 422 651 425 617 q 322 620 417 729 q 182 439 226 511 q 175 244 178 367 q 168 49 172 122 q 121 2 165 13 q 34 6 76 -8 q -6 47 -8 21 q 25 663 1 126 q -54 601 -8 624 q -153 581 -100 578 q -244 624 -206 585 q -383 540 -299 574 q -561 508 -468 506 q -706 565 -654 510 q -719 669 -754 618 q -643 704 -692 711 q -572 654 -600 699 q -569 640 -568 646 q -578 634 -571 633 q -592 643 -586 635 q -672 679 -625 696 q -710 629 -708 667 q -689 581 -710 604 q -554 529 -642 529 q -387 563 -467 529 q -258 642 -308 596 q -281 767 -297 697 q -254 804 -274 794 q -215 801 -235 814 q -189 760 -196 789 q -229 639 -171 700 q -144 603 -193 603 q -50 630 -94 603 q 26 700 -6 657 l 26 701 q 72 747 28 735 q 159 743 117 758 q 200 697 201 728 l 188 531 q 242 597 210 561 q 321 673 274 633 q 412 735 368 713 q 501 753 456 758 q 575 704 546 747 q 589 576 596 674 q 700 683 675 664 q 879 728 768 733 q 993 604 985 725 q 988 438 999 546 q 966 239 978 329 q 952 49 954 149 q 972 -92 950 -50 q 1035 -121 989 -131 m -243 657 q -211 758 -196 713 q -226 781 -217 774 q -244 783 -235 788 q -258 763 -254 779 q -260 708 -265 739 q -243 657 -256 678 z "},"":{"ha":683,"x_min":-743,"x_max":693,"o":"m 651 -169 q 686 -183 679 -162 q 667 -215 693 -204 q 546 -237 608 -243 q 446 -192 483 -231 q 394 -41 403 -146 q 398 166 385 64 q 424 385 411 268 q 433 551 438 501 q 321 582 424 676 q 226 482 311 572 q 201 457 211 465 q 193 340 200 447 q 179 161 186 232 q 161 44 172 90 q 111 4 154 15 q 30 8 68 -7 q -6 58 -8 24 q 12 354 6 165 q 22 611 18 543 q -55 560 -11 578 q -148 547 -99 542 q -233 588 -197 551 q -372 503 -287 538 q -550 472 -457 469 q -694 529 -643 474 q -708 633 -743 582 q -632 668 -681 675 q -561 618 -589 663 q -558 603 -557 610 q -567 598 -560 597 q -581 607 -575 599 q -661 643 -614 660 q -699 593 -697 631 q -678 544 -699 568 q -543 493 -631 493 q -376 526 -456 493 q -247 606 -297 560 q -269 731 -286 661 q -243 768 -262 758 q -204 765 -224 778 q -178 724 -185 753 q -218 603 -160 664 q -137 567 -183 568 q -48 588 -90 565 q 25 647 -6 610 q 63 715 25 692 q 144 724 100 738 q 200 664 188 710 q 206 528 213 615 q 318 636 290 615 q 496 679 386 685 q 574 651 544 678 q 610 556 604 624 q 603 389 614 497 q 582 190 593 281 q 569 0 571 100 q 589 -140 567 -100 q 651 -169 606 -179 m -232 621 q -200 722 -185 676 q -215 744 -206 738 q -233 747 -224 751 q -247 726 -243 743 q -249 672 -254 703 q -232 621 -244 642 z "},"":{"ha":833,"x_min":-607,"x_max":792,"o":"m 708 706 q 780 496 768 617 q 760 265 792 375 q 642 72 728 156 q 438 -28 557 -12 q 218 -5 311 -44 q 78 110 125 35 q 15 283 32 186 q 16 485 -1 381 q 78 681 33 589 q -14 670 36 663 q -97 711 -64 678 q -236 627 -151 661 q -414 595 -321 593 q -558 653 -507 597 q -572 757 -607 706 q -496 792 -544 799 q -425 742 -453 786 q -422 727 -421 733 q -431 722 -424 721 q -444 731 -439 722 q -525 767 -478 783 q -562 717 -561 754 q -542 668 -562 692 q -407 617 -494 617 q -240 650 -319 617 q -111 729 -161 683 q -133 854 -150 785 q -107 892 -126 882 q -68 889 -87 901 q -42 847 -49 876 q -82 726 -24 788 q 93 713 -17 661 q 274 901 164 840 q 518 922 385 961 q 549 889 554 911 q 519 871 544 868 q 515 872 518 872 q 317 757 408 900 q 208 421 226 615 q 282 101 189 203 q 429 39 338 40 q 613 108 538 38 q 715 281 689 179 q 731 492 742 382 q 668 679 719 603 q 526 753 608 763 q 392 661 443 744 q 368 606 374 632 q 376 558 363 579 q 424 529 389 536 q 459 510 450 524 q 455 486 468 496 q 414 482 442 476 q 323 558 338 496 q 350 682 308 621 q 523 801 414 790 q 708 706 632 813 m -96 744 q -64 846 -49 800 q -78 868 -69 861 q -97 871 -87 875 q -111 850 -107 867 q -113 796 -118 826 q -96 744 -108 765 z "},"":{"ha":686,"x_min":-832,"x_max":661,"o":"m 426 908 q 537 903 489 918 q 610 855 585 888 q 649 778 636 822 q 654 683 661 733 q 629 585 647 632 q 576 495 611 538 q 499 428 542 453 q 235 433 375 354 q 254 25 253 179 q 208 -1 254 7 q 114 -1 161 -10 q 67 31 67 7 q 59 238 65 131 q 42 485 53 346 q 28 692 32 624 q -58 580 0 631 q -187 514 -117 529 q -322 554 -258 499 q -461 470 -376 504 q -639 438 -546 436 q -783 496 -732 440 q -797 600 -832 549 q -721 635 -769 642 q -650 585 -678 629 q -647 570 -646 576 q -656 565 -649 564 q -669 574 -664 565 q -750 610 -703 626 q -787 560 -786 597 q -767 511 -787 535 q -632 460 -719 460 q -465 493 -544 460 q -336 572 -386 526 q -358 697 -375 628 q -332 735 -351 725 q -293 732 -312 744 q -267 690 -274 719 q -307 569 -249 631 q -241 541 -275 546 q -180 542 -207 536 q -122 573 -153 549 q -74 615 -92 597 q -31 667 -56 633 q 1 713 -6 701 q 24 750 8 724 l 19 853 q 92 911 17 893 q 196 907 163 926 q 207 892 207 901 q 210 825 206 881 q 426 908 318 890 m 429 525 q 490 724 486 611 q 432 849 494 836 q 214 771 344 861 q 231 493 225 565 q 429 525 350 404 m -321 588 q -289 689 -274 643 q -303 711 -294 704 q -322 714 -312 718 q -336 693 -332 710 q -338 639 -343 669 q -321 588 -333 608 z "},"":{"ha":850,"x_min":-621,"x_max":843,"o":"m 806 -101 q 828 -101 817 -94 q 842 -120 840 -108 q 833 -140 843 -132 q 656 -97 742 -199 q 583 24 619 -56 q 439 -28 518 -18 q 251 -17 333 -42 q 118 61 168 8 q 40 187 68 114 q 8 342 11 260 q 21 510 4 425 q 72 671 38 594 q -23 655 29 649 q -111 697 -75 661 q -250 613 -165 647 q -428 581 -335 579 q -572 639 -521 583 q -586 743 -621 692 q -510 778 -558 785 q -439 728 -467 772 q -436 713 -435 719 q -445 708 -437 707 q -458 717 -453 708 q -539 753 -492 769 q -576 703 -575 740 q -556 654 -576 678 q -421 603 -508 603 q -254 636 -333 603 q -125 715 -175 669 q -147 840 -164 771 q -121 878 -140 868 q -82 875 -101 888 q -56 833 -62 863 q -96 713 -37 774 q -6 676 -60 676 q 90 704 47 675 q 272 898 161 835 q 518 922 383 961 q 550 889 554 911 q 521 871 546 868 q 517 872 519 872 q 317 757 410 900 q 208 421 226 615 q 282 101 189 204 q 429 39 339 40 q 563 71 501 38 q 507 226 539 128 q 510 258 500 249 q 534 263 519 268 q 553 240 549 257 q 603 97 578 160 q 711 267 676 158 q 734 489 746 376 q 669 679 722 601 q 526 753 608 763 q 392 661 444 744 q 368 606 374 632 q 376 558 363 579 q 425 529 389 536 q 460 510 451 524 q 456 486 469 496 q 414 482 443 476 q 324 558 339 496 q 350 682 308 621 q 523 801 414 790 q 708 706 632 813 q 783 488 771 613 q 752 244 794 364 q 622 51 710 125 q 688 -61 658 -24 q 806 -101 747 -139 m -110 731 q -78 832 -62 786 q -92 854 -83 847 q -111 857 -101 861 q -125 836 -121 853 q -127 782 -132 813 q -110 731 -122 751 z "},"":{"ha":664,"x_min":-862,"x_max":789,"o":"m 753 -117 q 775 -117 764 -110 q 788 -135 786 -124 q 779 -156 789 -147 q 601 -112 688 -215 q 404 394 494 15 q 214 431 311 374 q 233 22 232 176 q 186 -4 233 4 q 92 -4 139 -12 q 44 28 44 4 q 38 235 44 128 q 21 481 32 343 q 6 689 10 619 q -85 575 -26 625 q -215 510 -143 525 q -353 550 -286 494 q -492 466 -407 500 q -669 434 -576 432 q -814 492 -762 436 q -828 596 -862 544 q -751 631 -800 638 q -681 581 -708 625 q -678 566 -676 572 q -687 560 -679 560 q -700 569 -694 561 q -781 606 -733 622 q -818 556 -817 593 q -797 507 -818 531 q -662 456 -750 456 q -496 489 -575 456 q -367 568 -417 522 q -389 693 -406 624 q -362 731 -382 721 q -324 728 -343 740 q -297 686 -304 715 q -337 565 -279 626 q -278 535 -308 543 q -224 530 -247 528 q -173 548 -200 532 q -128 578 -146 564 q -87 622 -111 593 q -52 665 -62 650 q -22 711 -42 681 q 3 747 -1 742 l -1 850 q 68 907 -4 890 q 175 906 139 925 q 186 889 186 899 q 189 822 186 878 q 404 906 293 888 q 515 900 467 915 q 588 852 563 885 q 626 775 614 819 q 632 680 639 731 q 607 582 625 629 q 554 492 589 535 q 476 425 519 450 l 450 410 q 633 -76 536 49 q 753 -117 694 -153 m 208 490 q 407 522 328 401 q 468 721 464 608 q 410 846 472 833 q 303 828 365 853 q 192 768 242 803 q 200 630 194 728 q 208 490 206 532 m -351 583 q -319 685 -304 639 q -334 707 -325 700 q -353 710 -343 714 q -367 689 -362 706 q -369 635 -374 665 q -351 583 -364 604 z "},"":{"ha":453,"x_min":-576,"x_max":606,"o":"m 574 -89 q 604 -108 603 -85 q 581 -137 606 -131 q 575 -139 578 -139 q 368 -103 479 -151 q 128 -211 250 -251 q 19 -110 54 -186 q 24 7 -14 -35 q 232 -7 78 68 q 262 117 257 49 q 251 265 267 186 q 219 402 236 343 q 173 547 203 461 q 133 668 143 633 q -67 678 4 607 q -206 594 -121 628 q -383 562 -290 560 q -528 619 -476 564 q -542 724 -576 672 q -465 758 -514 765 q -394 708 -422 753 q -392 694 -390 700 q -401 688 -393 688 q -414 697 -408 689 q -494 733 -447 750 q -532 683 -531 721 q -511 635 -532 658 q -376 583 -464 583 q -210 617 -289 583 q -81 696 -131 650 q -103 821 -119 751 q -76 858 -96 849 q -37 856 -57 868 q -11 814 -18 843 q -51 693 7 754 q 128 688 8 633 q 113 793 108 740 q 147 888 118 846 q 214 954 176 929 q 296 977 251 979 q 374 942 340 975 q 399 897 396 919 q 383 850 403 875 q 350 813 363 825 q 304 776 338 801 q 290 765 294 769 q 320 660 296 746 q 356 533 344 575 q 386 409 367 492 q 412 274 406 326 q 424 153 418 221 q 421 33 429 86 q 393 -61 413 -19 q 574 -89 483 -100 m 129 -110 q 207 -49 167 -97 q 63 -21 100 19 q 58 -82 39 -46 q 129 -110 82 -124 m 272 843 q 285 789 276 818 q 297 799 288 792 q 310 810 306 806 q 325 824 315 815 q 339 840 335 833 q 349 855 343 846 q 356 871 356 864 q 357 886 357 878 q 351 903 357 894 q 335 918 344 911 q 301 927 318 926 q 274 905 283 928 q 272 843 264 882 m -65 711 q -33 813 -18 767 q -48 835 -39 828 q -67 838 -57 842 q -81 817 -76 833 q -83 763 -87 793 q -65 711 -78 732 z "},"":{"ha":553,"x_min":-743,"x_max":893,"o":"m 842 1008 q 878 1011 860 1031 q 881 982 893 994 q 822 942 857 957 q 738 922 786 926 q 655 915 690 917 q 563 915 619 914 q 488 917 507 917 q 483 768 488 846 q 469 582 479 690 q 437 377 458 474 q 385 192 415 281 q 305 41 354 103 q 194 -39 256 -21 q 78 -28 131 -58 q 0 65 25 3 q 6 113 -10 89 q 43 99 24 140 q 44 94 43 96 q 90 38 61 53 q 143 47 118 24 q 249 431 203 106 q 294 907 294 757 q 71 785 153 894 q 12 721 44 749 q -61 674 -21 693 q -147 663 -101 656 q -233 708 -193 671 q -372 624 -287 658 q -550 592 -457 590 q -694 650 -643 594 q -708 754 -743 703 q -632 789 -681 796 q -561 739 -589 783 q -558 724 -557 731 q -567 719 -560 718 q -581 728 -575 719 q -661 764 -614 781 q -699 714 -697 751 q -678 665 -699 689 q -543 614 -631 614 q -376 647 -456 614 q -247 726 -297 681 q -269 851 -286 782 q -243 889 -262 879 q -204 886 -224 899 q -178 844 -185 874 q -218 724 -160 785 q -151 690 -183 696 q -95 690 -118 683 q -46 720 -72 697 q -6 760 -19 743 q 28 807 7 778 q 174 919 81 882 q 367 960 267 956 q 563 961 467 964 q 736 967 658 958 q 842 1008 814 975 m -232 742 q -200 843 -185 797 q -215 865 -206 858 q -233 868 -224 872 q -247 847 -243 864 q -249 793 -254 824 q -232 742 -244 763 z "},"":{"ha":681,"x_min":-726,"x_max":724,"o":"m 688 -46 q 713 -47 703 -39 q 721 -68 724 -54 q 703 -92 718 -82 q 542 -133 606 -162 q 447 -12 478 -104 q 418 219 415 81 q 392 185 401 197 q 360 145 383 174 q 319 100 336 117 q 275 59 301 83 q 226 22 249 35 q 177 -1 203 10 q 126 -10 151 -12 q 76 4 100 -8 q 14 181 29 29 q 7 489 -1 333 q 32 771 15 644 q -90 713 -22 722 q -217 754 -158 704 q -356 670 -271 704 q -533 638 -440 636 q -678 696 -626 640 q -692 800 -726 749 q -615 835 -664 842 q -544 785 -572 829 q -542 770 -540 776 q -551 765 -543 764 q -564 774 -558 765 q -644 810 -597 826 q -682 760 -681 797 q -661 711 -682 735 q -526 660 -614 660 q -360 693 -439 660 q -231 772 -281 726 q -253 897 -269 828 q -226 935 -246 925 q -187 932 -207 944 q -161 890 -168 919 q -201 769 -143 831 q -81 736 -147 722 q 36 808 -15 750 l 44 846 q 94 886 51 875 q 175 882 136 897 q 211 833 214 867 q 190 458 201 747 q 183 100 178 168 q 283 128 189 21 q 421 308 376 236 q 423 559 425 379 q 426 810 421 739 q 474 856 429 846 q 560 852 518 867 q 600 811 603 838 q 593 709 597 774 q 584 533 589 644 q 582 320 579 422 q 594 126 585 218 q 626 -15 603 33 q 688 -46 650 -62 m -215 788 q -183 889 -168 843 q -198 911 -189 904 q -217 914 -207 918 q -231 893 -226 910 q -233 839 -237 869 q -215 788 -228 808 z "},"":{"ha":557,"x_min":-804,"x_max":550,"o":"m 503 735 q 526 761 504 761 q 549 743 546 761 q 549 739 549 742 q 499 353 539 575 q 421 46 458 132 q 352 -9 404 7 q 250 -12 300 -25 q 188 33 200 1 q 83 352 153 121 q -28 739 14 583 q -107 680 -61 701 q -205 663 -153 658 q -294 704 -257 667 q -433 620 -349 654 q -611 588 -518 586 q -756 646 -704 590 q -769 750 -804 699 q -693 785 -742 792 q -622 735 -650 779 q -619 720 -618 726 q -628 715 -621 714 q -642 724 -636 715 q -722 760 -675 776 q -760 710 -758 747 q -739 661 -760 685 q -604 610 -692 610 q -437 643 -517 610 q -308 722 -358 676 q -331 847 -347 778 q -304 885 -324 875 q -265 882 -285 894 q -239 840 -246 869 q -279 719 -221 781 q -197 683 -244 685 q -108 705 -150 682 q -35 765 -67 728 q 3 822 -44 808 q 102 822 50 835 q 160 786 154 808 q 269 390 189 663 q 376 58 349 117 q 449 342 406 111 q 503 735 492 574 m -293 738 q -261 839 -246 793 q -276 861 -267 854 q -294 864 -285 868 q -308 843 -304 860 q -310 789 -315 819 q -293 738 -306 758 z "},"":{"ha":969,"x_min":-849,"x_max":919,"o":"m 846 971 q 911 710 903 913 q 891 302 919 507 q 821 4 863 97 q 749 -56 801 -39 q 645 -58 696 -72 q 579 -7 594 -43 q 460 372 524 117 q 383 44 429 139 q 312 -11 364 4 q 210 -10 260 -26 q 143 46 160 6 q -67 738 89 185 q -146 674 -100 699 q -246 653 -192 650 q -339 696 -300 657 q -478 612 -393 646 q -656 580 -562 578 q -800 638 -749 582 q -814 742 -849 690 q -737 776 -786 783 q -667 726 -694 771 q -664 712 -662 718 q -673 706 -665 706 q -686 715 -681 707 q -767 751 -719 768 q -804 701 -803 739 q -783 653 -804 676 q -649 601 -736 601 q -482 635 -561 601 q -353 714 -403 668 q -375 839 -392 769 q -349 876 -368 867 q -310 874 -329 886 q -283 832 -290 861 q -324 711 -265 772 q -239 674 -287 675 q -148 699 -190 674 q -74 764 -106 724 q -37 821 -83 807 q 63 822 10 835 q 121 786 115 808 q 230 390 150 663 q 338 58 310 117 q 390 235 364 107 q 426 507 415 363 q 363 764 396 624 q 398 821 351 807 q 497 822 444 835 q 556 786 550 808 q 669 348 593 628 q 774 11 746 68 q 840 276 810 78 q 869 676 869 475 q 824 931 868 876 q 817 974 803 954 q 846 971 828 990 m -337 729 q -306 831 -290 785 q -320 853 -311 846 q -339 856 -329 860 q -353 835 -349 851 q -355 781 -360 811 q -337 729 -350 750 z "},"":{"ha":714,"x_min":-635,"x_max":776,"o":"m 740 -99 q 763 -99 751 -92 q 775 -117 774 -106 q 767 -137 776 -129 q 589 -93 675 -197 q 484 69 563 -62 q 376 271 406 201 q 176 -33 279 110 q 24 -199 72 -176 q -92 -201 -29 -228 q -192 -97 -154 -175 q -187 -56 -206 -71 q -157 -64 -172 -43 q -85 -49 -136 -92 q 31 83 -33 -7 q 157 272 94 172 q 278 476 219 372 q 153 867 194 706 q 72 799 119 825 q -30 776 25 774 q -125 818 -85 778 q -264 734 -179 768 q -442 702 -349 700 q -586 760 -535 704 q -600 864 -635 813 q -524 899 -572 906 q -453 849 -481 893 q -450 834 -449 840 q -459 828 -451 828 q -472 838 -467 829 q -553 874 -506 890 q -590 824 -589 861 q -569 775 -590 799 q -435 724 -522 724 q -268 757 -347 724 q -139 836 -189 790 q -161 961 -178 892 q -135 999 -154 989 q -96 996 -115 1008 q -69 954 -76 983 q -110 833 -51 894 q -21 797 -69 794 q 72 826 28 799 q 147 896 115 854 q 165 931 149 921 q 192 914 181 942 q 246 749 204 878 q 314 543 288 621 q 492 894 450 794 q 522 911 499 908 q 572 906 544 914 q 624 883 599 897 q 661 849 649 869 q 664 808 674 828 q 410 326 556 576 q 515 114 438 251 q 621 -57 593 -24 q 740 -99 681 -133 m -124 851 q -92 953 -76 907 q -106 975 -97 968 q -125 978 -115 982 q -139 957 -135 974 q -141 903 -146 933 q -124 851 -136 872 z "},"":{"ha":747,"x_min":-696,"x_max":700,"o":"m 332 -278 q 122 -197 217 -279 q 10 4 28 -115 q 22 119 1 64 q 79 202 42 174 q 164 235 117 231 q 256 201 211 240 q 304 104 303 163 q 257 8 306 46 q 235 7 246 0 q 223 26 224 14 q 233 51 222 39 q 256 108 260 75 q 225 165 253 142 q 103 159 163 217 q 57 11 44 101 q 100 -103 65 -50 q 187 -178 135 -156 q 303 -158 239 -200 q 419 56 379 -106 q 467 363 458 218 q 382 314 444 339 q 258 282 319 289 q 165 307 196 275 q 135 485 133 351 q 144 724 136 619 q 114 896 151 829 q 33 811 83 846 q -77 772 -18 776 q -186 815 -136 767 q -325 731 -240 765 q -503 699 -410 697 q -647 757 -596 701 q -661 861 -696 810 q -585 896 -633 903 q -514 846 -542 890 q -511 831 -510 838 q -520 826 -512 825 q -533 835 -528 826 q -614 871 -567 888 q -651 821 -650 858 q -631 772 -651 796 q -496 721 -583 721 q -329 754 -408 721 q -200 833 -250 788 q -222 958 -239 889 q -196 996 -215 986 q -157 993 -176 1006 q -131 951 -137 981 q -171 831 -112 892 q -80 793 -129 790 q 15 826 -31 796 q 92 903 60 857 q 89 918 88 908 q 97 931 90 928 q 178 932 122 939 q 278 911 233 925 q 326 791 319 897 q 322 549 333 685 q 313 397 311 414 q 335 366 315 369 q 383 378 356 363 q 433 410 411 394 q 468 438 454 425 q 511 840 501 797 q 562 856 514 853 q 655 851 610 860 q 699 828 700 843 q 690 679 694 782 q 678 484 685 576 q 660 276 672 392 q 623 67 647 160 q 563 -106 599 -25 q 467 -232 526 -186 q 332 -278 408 -278 m -185 849 q -153 950 -137 904 q -167 972 -158 965 q -186 975 -176 979 q -200 954 -196 971 q -202 900 -207 931 q -185 849 -197 869 z "},"":{"ha":631,"x_min":-651,"x_max":781,"o":"m 119 556 q 149 518 160 557 q 72 431 133 469 q -122 426 -31 364 q -142 442 -132 433 q -281 358 -196 392 q -458 326 -365 324 q -603 383 -551 328 q -617 488 -651 436 q -540 522 -589 529 q -469 472 -497 517 q -467 458 -465 464 q -476 452 -468 451 q -489 461 -483 453 q -569 497 -522 514 q -607 447 -606 485 q -586 399 -607 422 q -451 347 -539 347 q -285 381 -364 347 q -156 460 -206 414 q -178 585 -194 515 q -151 622 -171 613 q -112 619 -132 632 q -86 578 -93 607 q -126 457 -68 518 q 121 507 -1 357 q 47 547 67 504 q 46 644 28 589 q 104 733 64 700 q 286 820 157 778 q 475 919 415 863 q 554 920 506 949 q 635 842 603 892 q 661 769 668 793 q 633 672 657 756 q 594 544 608 588 q 547 414 581 500 q 482 269 514 328 q 399 140 450 211 q 292 17 349 69 q 472 -165 371 -115 q 740 -218 574 -214 q 779 -240 778 -219 q 746 -265 779 -261 q 733 -265 740 -265 q 447 -204 563 -262 q 250 -7 332 -146 q 65 -11 144 -76 q 8 101 11 33 q 61 181 6 167 q 110 181 82 186 q 185 143 160 171 q 463 847 297 283 q 299 774 414 813 q 135 697 183 736 q 88 615 103 669 q 119 556 74 561 m -140 475 q -108 576 -93 531 q -123 599 -114 592 q -142 601 -132 606 q -156 581 -151 597 q -158 526 -162 557 q -140 475 -153 496 m 115 92 q 151 108 133 94 q 107 132 138 126 q 72 115 76 136 q 94 93 68 97 q 115 92 103 90 z "},"":{"ha":640,"x_min":-796,"x_max":667,"o":"m 321 386 q 233 394 289 410 q 166 343 196 383 q 123 257 136 303 q 116 169 110 211 q 150 110 122 126 q 231 130 197 82 q 272 233 265 178 q 354 303 290 267 q 436 308 431 349 q 429 267 439 293 q 400 0 353 63 q 427 -14 413 -12 q 461 -1 442 -15 q 499 33 481 14 q 537 79 517 51 q 573 131 557 107 q 604 181 589 156 q 628 222 619 207 q 640 246 636 236 l 667 246 q 647 209 661 235 q 626 169 633 183 q 604 128 619 156 q 578 85 589 101 q 550 44 567 68 q 519 5 533 19 q 488 -28 506 -10 q 453 -55 471 -46 q 417 -71 436 -64 q 378 -77 399 -78 q 339 -69 358 -76 q 274 8 292 -51 q 268 132 256 68 q 117 60 222 53 q 8 115 44 65 q -26 232 -29 164 q -151 163 -81 175 q -287 203 -222 151 q -426 119 -342 154 q -603 88 -511 85 q -747 146 -696 90 q -762 249 -796 199 q -685 283 -733 290 q -614 233 -643 278 q -612 219 -610 225 q -621 213 -614 213 q -633 222 -628 214 q -714 258 -668 275 q -751 210 -751 246 q -731 161 -753 185 q -597 109 -683 110 q -431 142 -510 108 q -301 221 -351 175 q -324 346 -340 276 q -278 387 -312 389 q -231 340 -243 385 q -272 219 -214 279 q -186 183 -236 183 q -94 208 -136 182 q -19 275 -51 235 q 67 399 0 351 q 236 436 133 447 q 335 410 308 431 q 332 395 338 407 q 321 386 326 383 m -286 236 q -254 338 -236 290 q -278 365 -261 363 q -301 343 -294 367 q -286 236 -315 288 z "},"":{"ha":576,"x_min":-792,"x_max":603,"o":"m 125 247 q 186 329 160 306 q 349 350 274 411 q 410 154 425 289 q 438 159 417 156 q 466 165 458 163 q 491 171 474 167 q 517 181 508 175 q 538 196 525 188 q 559 217 550 204 q 576 246 568 229 l 603 246 q 578 203 592 221 q 553 174 564 185 q 522 153 542 163 q 490 142 501 144 q 450 132 478 139 q 408 121 422 125 q 351 -32 393 32 q 232 -86 308 -96 q 146 -37 174 -79 q 152 58 118 6 q 288 136 186 110 q 282 274 297 204 q 203 308 261 363 q 125 204 163 268 q 118 3 122 39 q 78 -33 115 -22 q 6 -31 42 -43 q -26 7 -29 -19 q -22 210 -19 61 q -147 143 -78 154 q -282 183 -217 132 q -420 100 -336 135 q -597 67 -504 65 q -742 125 -690 69 q -757 229 -790 178 q -679 264 -729 271 q -608 214 -636 258 q -606 199 -604 206 q -615 194 -608 193 q -628 203 -622 194 q -708 239 -662 256 q -746 189 -746 226 q -725 140 -747 164 q -590 89 -678 89 q -424 122 -503 89 q -296 201 -344 156 q -317 326 -336 257 q -272 367 -306 369 q -225 321 -237 365 q -265 199 -208 260 q -185 163 -233 164 q -95 185 -137 161 q -22 243 -53 208 q 6 738 -32 661 q 124 803 44 806 q 240 747 204 800 q 253 713 250 733 q 253 668 257 693 q 245 618 250 643 q 229 560 240 593 q 209 504 218 528 q 185 447 200 481 q 163 397 171 414 q 141 351 154 379 q 125 317 128 322 l 125 247 m 142 711 q 118 369 110 624 q 201 564 160 442 q 215 729 243 686 q 193 751 206 744 q 166 748 181 757 q 142 711 151 739 m 226 -24 q 285 104 258 1 q 169 22 182 82 q 188 -29 161 -14 q 226 -24 206 -40 m -279 217 q -249 318 -232 272 q -262 341 -253 333 q -281 344 -272 349 q -294 324 -290 339 q -279 217 -311 267 z "},"":{"ha":443,"x_min":-786,"x_max":469,"o":"m 269 464 q 218 476 250 483 q 160 433 186 468 q 115 308 129 393 q 119 143 101 224 q 186 42 136 63 q 313 77 242 18 q 443 246 383 136 l 469 246 q 415 148 440 190 q 347 53 389 106 q 256 -26 306 1 q 153 -53 206 -54 q 58 -15 99 -51 q -1 74 18 21 q -26 193 -21 128 q -17 319 -32 258 q -149 251 -78 263 q -276 292 -221 240 q -415 208 -331 242 q -593 176 -500 174 q -737 233 -686 178 q -751 338 -786 286 q -675 372 -724 379 q -604 322 -632 367 q -601 308 -600 314 q -610 302 -603 301 q -624 311 -618 303 q -704 347 -657 364 q -742 297 -740 335 q -721 249 -742 272 q -586 197 -674 197 q -419 231 -499 197 q -290 310 -340 264 q -312 435 -329 365 q -286 472 -306 463 q -247 469 -267 482 q -221 428 -228 457 q -261 307 -203 368 q -164 271 -215 267 q -69 306 -112 275 q 3 382 -25 336 q 117 503 43 475 q 219 515 168 522 q 301 478 271 508 q 304 451 319 460 q 269 464 292 444 m -275 325 q -243 426 -228 381 q -258 449 -249 442 q -276 451 -267 456 q -290 431 -286 447 q -292 376 -297 407 q -275 325 -287 346 z "},"":{"ha":665,"x_min":-810,"x_max":692,"o":"m 156 65 q 203 88 176 67 q 250 136 229 108 q 236 322 239 218 q 150 361 188 365 q 112 327 126 358 q 96 252 97 296 q 100 166 94 208 q 121 94 106 124 q 156 65 136 65 m 424 707 q 383 261 385 436 q 463 388 425 294 q 510 575 501 482 q 486 729 519 668 q 449 756 469 758 q 424 707 429 753 m -26 226 q -106 163 -60 186 q -206 142 -153 139 q -300 183 -258 146 q -438 100 -354 135 q -615 67 -522 65 q -760 125 -708 69 q -775 229 -808 178 q -697 264 -747 271 q -626 214 -654 258 q -624 199 -622 206 q -633 194 -626 193 q -646 203 -640 194 q -726 239 -681 256 q -764 189 -764 226 q -743 140 -765 164 q -608 89 -696 89 q -442 122 -521 89 q -314 201 -362 156 q -335 326 -353 260 q -290 367 -324 369 q -243 321 -256 365 q -283 199 -226 260 q -190 160 -243 154 q -91 200 -137 167 q -17 278 -44 233 q 44 376 0 343 q 156 393 88 410 q 236 358 203 381 q 260 630 238 501 q 306 785 282 758 q 422 813 347 829 q 528 738 496 797 q 528 463 579 639 q 388 221 476 286 q 388 182 388 213 q 390 126 389 151 q 395 70 392 100 q 407 20 399 40 q 429 -6 415 0 q 490 9 454 -17 q 563 83 526 35 q 623 172 599 132 q 665 246 647 211 l 692 246 q 646 151 669 196 q 586 53 622 107 q 505 -36 550 -1 q 414 -76 460 -71 q 316 -36 354 -83 q 257 100 278 11 q 169 25 217 53 q 56 13 101 -12 q -10 98 11 39 q -26 226 -32 157 m -297 217 q -267 318 -250 272 q -290 345 -274 343 q -312 324 -306 347 q -297 217 -329 267 z "},"":{"ha":444,"x_min":-815,"x_max":471,"o":"m 161 433 q 111 231 111 369 q 256 326 196 274 q 300 424 315 378 q 243 474 285 468 q 161 433 201 481 m 444 246 l 471 246 q 416 147 443 190 q 348 52 389 103 q 256 -26 307 1 q 153 -53 206 -54 q 18 35 65 -50 q -26 233 -29 121 q -107 165 -60 190 q -209 142 -154 139 q -307 183 -264 144 q -445 100 -361 135 q -622 67 -529 65 q -767 125 -715 69 q -781 229 -815 178 q -704 264 -753 271 q -633 214 -661 258 q -631 199 -629 206 q -640 194 -632 193 q -653 203 -647 194 q -733 239 -687 256 q -771 189 -769 226 q -750 140 -771 164 q -615 89 -703 89 q -449 122 -528 89 q -321 201 -369 156 q -342 326 -360 260 q -297 367 -331 369 q -250 321 -262 365 q -290 199 -233 260 q -197 160 -250 154 q -98 200 -144 167 q -24 278 -51 233 q 22 419 -14 358 q 117 503 58 481 q 252 508 186 531 q 331 425 318 485 q 270 301 343 365 q 111 203 197 238 q 188 40 118 69 q 315 76 243 17 q 444 246 386 136 m -319 324 q -304 217 -336 267 q -272 318 -257 272 q -297 345 -281 343 q -319 324 -312 347 z "},"":{"ha":465,"x_min":-783,"x_max":492,"o":"m 110 15 q 106 -26 108 0 q 104 -65 104 -51 q 215 -40 183 -68 q 110 15 176 26 m 106 -97 q 153 -344 106 -283 q 213 -357 181 -382 q 256 -274 246 -332 q 256 -160 265 -217 q 229 -68 247 -104 q 178 -88 217 -78 q 106 -97 139 -99 m -36 -64 q -33 10 -36 -26 q -68 -28 -67 -4 q -36 -64 -69 -53 m 150 382 q 274 533 215 442 q 338 686 332 625 q 322 741 340 728 q 279 740 304 754 q 240 697 254 726 q 150 382 194 596 m -10 215 q -92 157 -47 178 q -187 141 -137 136 q -274 183 -237 146 q -412 99 -328 133 q -590 67 -497 65 q -735 125 -683 69 q -749 229 -783 178 q -672 264 -721 271 q -601 214 -629 258 q -599 199 -597 206 q -608 194 -600 193 q -621 203 -615 194 q -701 239 -654 256 q -739 189 -737 226 q -718 140 -739 164 q -583 89 -671 89 q -417 122 -496 89 q -289 201 -337 156 q -310 326 -326 257 q -265 367 -299 369 q -218 321 -231 365 q -258 199 -200 261 q -169 162 -218 158 q -76 192 -119 165 q -4 258 -32 218 q 122 743 56 668 q 219 792 157 782 q 328 774 281 803 q 371 685 376 746 q 294 508 365 608 q 143 328 222 408 q 111 44 128 231 q 126 44 114 44 q 144 42 139 43 q 160 39 149 42 q 179 31 172 36 q 197 19 186 26 q 218 -1 208 11 q 239 -29 228 -12 q 356 65 310 10 q 465 246 394 110 l 492 246 q 372 40 431 111 q 253 -57 326 -18 q 288 -224 289 -124 q 236 -382 288 -324 q 143 -436 197 -428 q 44 -406 89 -444 q -36 -97 -36 -331 q -92 -27 -96 -76 q -31 42 -89 22 q -10 215 -25 110 m -272 217 q -240 318 -225 272 q -265 345 -249 343 q -287 324 -281 347 q -272 217 -304 267 z "},"":{"ha":499,"x_min":-808,"x_max":525,"o":"m 399 254 q 406 177 401 219 q 414 111 411 135 q 438 141 428 126 q 453 165 447 156 q 474 201 460 175 q 499 246 488 226 l 525 246 q 424 65 443 94 q 282 -429 458 -367 q 112 -406 176 -467 q 86 -244 47 -346 q 125 -174 99 -212 q 173 -108 151 -135 q 229 -41 194 -81 q 275 11 264 -1 l 265 113 q 115 60 217 54 q 8 111 46 64 q -28 224 -29 158 q -161 144 -86 160 q -300 183 -236 129 q -438 100 -354 135 q -615 67 -522 65 q -760 125 -708 69 q -774 229 -808 178 q -697 264 -746 271 q -626 214 -654 258 q -624 199 -622 206 q -633 194 -625 193 q -646 203 -640 194 q -726 239 -681 256 q -764 189 -762 226 q -743 140 -764 164 q -608 89 -696 89 q -442 122 -521 89 q -314 201 -362 156 q -335 326 -353 260 q -290 367 -324 369 q -243 321 -256 365 q -283 199 -226 260 q -190 162 -242 157 q -94 197 -139 167 q -22 268 -50 226 q 63 397 -6 347 q 235 436 131 447 q 333 410 307 431 q 331 395 336 407 q 319 386 325 383 q 233 394 289 410 q 165 343 196 383 q 122 257 135 303 q 115 169 110 211 q 149 110 121 126 q 212 109 183 94 q 260 158 240 124 q 251 263 253 211 q 286 311 250 299 q 360 307 322 324 q 399 254 397 290 m 281 -40 q 244 -84 275 -47 q 195 -143 213 -121 q 155 -199 178 -165 q 121 -261 132 -233 q 128 -362 96 -325 q 214 -350 161 -399 q 267 -260 250 -317 q 283 -149 285 -203 q 281 -40 282 -94 m -297 217 q -265 318 -250 272 q -290 345 -274 343 q -312 324 -306 347 q -297 217 -329 267 z "},"":{"ha":646,"x_min":-797,"x_max":674,"o":"m 140 711 q 118 369 110 624 q 201 565 160 444 q 215 729 242 686 q 192 751 206 744 q 165 748 179 757 q 140 711 150 739 m 8 742 q 126 807 46 810 q 243 751 207 804 q 256 717 253 738 q 256 672 258 697 q 247 622 253 647 q 231 565 242 597 q 210 509 219 533 q 187 451 201 485 q 164 401 172 418 q 142 355 156 383 q 126 321 129 326 q 127 313 126 319 q 128 304 128 307 q 260 396 193 386 q 360 376 324 404 q 408 297 397 347 q 419 194 418 246 q 419 90 419 142 q 428 19 419 38 q 517 51 451 -31 q 647 246 583 132 l 674 246 q 637 172 650 199 q 591 92 624 146 q 531 8 558 39 q 466 -49 504 -24 q 392 -76 428 -75 q 320 -40 344 -78 q 292 55 296 -3 q 288 171 288 113 q 281 279 288 229 q 253 343 274 329 q 128 250 211 371 q 121 7 128 83 q 81 -28 118 -18 q 9 -27 44 -39 q -24 11 -26 -15 q -19 222 -17 69 q -147 149 -74 163 q -287 188 -221 135 q -426 104 -342 139 q -603 72 -510 69 q -747 129 -696 74 q -762 233 -796 182 q -685 268 -735 275 q -614 218 -642 263 q -612 203 -610 210 q -621 198 -614 197 q -633 207 -628 199 q -714 243 -668 260 q -751 193 -751 231 q -731 144 -753 168 q -596 93 -683 93 q -429 126 -508 93 q -301 206 -350 160 q -322 331 -340 264 q -277 372 -311 374 q -231 325 -243 369 q -271 203 -214 264 q -187 165 -235 163 q -94 194 -139 168 q -21 258 -50 219 q -22 542 -26 392 q 8 742 -17 692 m -285 221 q -254 322 -237 276 q -277 349 -261 347 q -300 328 -293 351 q -285 221 -317 271 z "},"":{"ha":361,"x_min":-814,"x_max":388,"o":"m 100 449 q 89 439 100 449 q 47 429 78 429 q -6 449 17 429 q -28 496 -28 468 q -6 543 -28 524 q 47 563 17 563 q 100 542 78 563 q 122 496 122 522 q 100 449 122 469 m 122 371 q 123 301 122 356 q 124 213 124 246 q 126 134 125 179 q 132 60 128 89 q 142 19 136 32 q 229 50 164 -31 q 361 246 294 131 l 388 246 q 239 4 299 71 q 104 -76 169 -75 q 32 -39 61 -78 q -9 67 3 0 q -24 193 -21 135 q -26 321 -28 251 q -107 253 -60 279 q -209 230 -154 228 q -304 272 -264 232 q -443 188 -358 222 q -621 156 -528 154 q -765 214 -714 158 q -779 318 -814 267 q -703 353 -751 360 q -632 303 -660 347 q -629 288 -628 294 q -638 283 -631 282 q -651 292 -646 283 q -732 328 -686 344 q -769 278 -768 315 q -749 229 -769 253 q -614 178 -701 178 q -447 211 -526 178 q -319 289 -368 244 q -340 415 -357 347 q -314 453 -333 443 q -276 450 -294 463 q -249 408 -257 438 q -289 288 -231 350 q -197 249 -249 243 q -99 288 -146 256 q -25 363 -53 319 l -25 365 q 13 397 -24 386 q 85 399 49 407 q 122 371 122 392 m -303 306 q -271 407 -256 358 q -285 429 -276 422 q -304 432 -294 436 q -318 411 -314 428 q -303 306 -335 356 z "},"":{"ha":247,"x_min":-803,"x_max":274,"o":"m 274 246 q 172 67 193 97 q 31 -429 207 -367 q -140 -406 -75 -467 q -165 -244 -204 -346 q -126 -173 -153 -212 q -78 -107 -100 -133 q -22 -42 -56 -81 q 24 11 13 -3 q -10 347 -3 260 q -90 276 -42 304 q -194 249 -137 249 q -293 292 -251 250 q -432 208 -347 242 q -610 176 -517 174 q -754 233 -703 178 q -768 338 -803 286 q -692 372 -740 379 q -621 322 -649 367 q -618 308 -617 314 q -627 302 -619 301 q -640 311 -635 303 q -721 347 -674 364 q -758 297 -757 335 q -737 249 -758 272 q -603 197 -690 197 q -436 231 -515 197 q -307 310 -357 264 q -329 435 -346 365 q -303 472 -322 463 q -264 469 -283 482 q -237 428 -244 457 q -278 307 -219 368 q -186 269 -236 265 q -91 304 -136 274 q -12 382 -46 335 q 20 423 -12 410 q 89 419 53 436 q 133 354 125 401 q 164 111 140 319 q 247 246 185 136 l 274 246 m -37 -350 q 16 -260 -1 -317 q 32 -149 33 -203 q 29 -40 31 -94 q -8 -85 22 -49 q -57 -143 -39 -121 q -97 -199 -75 -165 q -131 -261 -119 -233 q -124 -362 -156 -325 q -37 -350 -92 -399 m 93 478 q 82 468 93 478 q 40 458 71 458 q -12 478 10 458 q -33 525 -33 497 q -12 572 -33 553 q 40 592 10 592 q 93 572 71 592 q 115 525 115 553 q 93 478 115 497 m -292 325 q -260 426 -244 381 q -274 449 -265 442 q -293 451 -283 456 q -307 431 -303 447 q -309 376 -314 407 q -292 325 -304 346 z "},"":{"ha":542,"x_min":-790,"x_max":568,"o":"m 542 246 l 568 246 q 549 209 565 240 q 524 160 533 178 q 494 108 514 142 q 459 53 475 75 q 420 5 443 32 q 377 -38 397 -22 q 332 -65 357 -54 q 282 -75 307 -75 q 212 -41 236 -74 q 182 33 188 -8 q 163 118 176 74 q 125 181 150 163 q 118 7 122 64 q 78 -28 115 -18 q 6 -26 42 -37 q -26 11 -29 -15 q -22 231 -19 71 q -147 165 -76 176 q -281 206 -218 153 q -419 122 -335 156 q -597 90 -504 88 q -742 147 -690 92 q -756 251 -790 200 q -679 286 -728 293 q -608 236 -636 281 q -606 222 -604 228 q -615 216 -607 215 q -628 225 -622 217 q -708 261 -661 278 q -746 211 -744 249 q -725 163 -746 186 q -590 111 -678 111 q -424 144 -503 111 q -294 224 -344 178 q -317 349 -333 279 q -290 386 -310 376 q -251 383 -271 396 q -225 342 -232 371 q -265 221 -207 282 q -185 184 -231 186 q -97 204 -139 182 q -24 264 -56 226 q -26 453 -25 363 q -19 626 -26 544 q 6 743 -11 708 q 124 808 43 811 q 240 751 204 804 q 254 694 254 731 q 246 623 254 658 q 219 536 238 588 q 186 454 200 485 q 151 376 172 424 q 125 321 129 329 l 125 258 q 145 299 132 271 q 167 342 158 326 q 191 378 176 358 q 224 408 206 397 q 263 421 242 419 q 336 357 333 426 q 293 228 339 290 q 246 189 269 197 q 283 126 267 172 q 313 42 299 79 q 344 3 326 4 q 542 246 399 -1 m 140 717 q 117 547 122 665 q 118 374 113 429 q 201 569 160 449 q 215 733 242 690 q 192 755 206 749 q 165 752 179 761 q 140 717 150 743 m 208 231 q 293 297 264 231 q 296 386 318 354 q 263 399 285 403 q 215 362 239 394 q 168 283 192 329 q 143 235 144 238 q 208 231 176 231 m -279 239 q -247 340 -232 294 q -262 363 -253 356 q -281 365 -271 369 q -294 344 -290 361 q -297 290 -301 321 q -279 239 -292 260 z "},"":{"ha":367,"x_min":-803,"x_max":393,"o":"m 367 246 l 393 246 q 53 -50 172 -179 q -21 265 -1 8 q -101 203 -54 226 q -201 183 -147 179 q -293 225 -254 186 q -432 141 -347 175 q -610 109 -517 107 q -754 167 -703 111 q -768 271 -803 219 q -692 306 -740 313 q -621 256 -649 300 q -618 241 -617 247 q -627 235 -619 235 q -640 244 -635 236 q -721 281 -674 297 q -758 231 -757 268 q -737 182 -758 206 q -603 131 -690 131 q -436 164 -515 131 q -307 243 -357 197 q -329 368 -346 299 q -303 406 -322 396 q -264 403 -283 415 q -237 361 -244 390 q -278 240 -219 301 q -192 204 -242 204 q -99 231 -142 204 q -24 299 -56 257 q -16 614 -33 471 q 47 788 1 757 q 140 806 89 813 q 225 771 192 800 q 252 726 244 754 q 254 661 260 699 q 240 590 249 624 q 213 510 232 556 q 183 438 194 465 q 151 370 171 410 q 128 322 132 331 q 149 22 131 61 q 235 50 171 -28 q 367 246 299 128 m 158 744 q 128 593 135 715 q 122 374 121 471 q 160 451 139 404 q 203 562 181 497 q 227 672 225 626 q 208 746 229 717 q 158 744 182 769 m -292 258 q -260 360 -244 314 q -274 382 -265 375 q -293 385 -283 389 q -307 364 -303 381 q -309 310 -314 340 q -292 258 -304 279 z "},"":{"ha":853,"x_min":-803,"x_max":879,"o":"m 853 246 l 879 246 q 841 172 851 192 q 796 94 831 151 q 735 8 761 36 q 671 -47 710 -21 q 596 -75 632 -74 q 519 -37 547 -76 q 482 67 490 3 q 472 194 474 131 q 471 321 471 258 q 464 406 471 383 q 411 386 453 443 q 351 265 376 338 q 340 220 344 243 q 334 172 336 197 q 331 136 332 147 q 315 114 328 119 q 290 117 301 108 q 281 140 279 125 q 274 429 303 363 q 147 260 247 492 q 128 217 128 218 q 125 7 131 85 q 85 -28 122 -18 q 13 -26 47 -37 q -19 11 -22 -15 q -24 329 -14 57 q -104 269 -58 292 q -202 249 -150 246 q -293 292 -254 253 q -432 208 -347 242 q -610 176 -517 174 q -754 233 -703 178 q -768 338 -803 286 q -692 372 -740 379 q -621 322 -649 367 q -618 308 -617 314 q -627 302 -619 301 q -640 311 -635 303 q -721 347 -674 364 q -758 297 -757 335 q -737 249 -758 272 q -603 197 -690 197 q -436 231 -515 197 q -307 310 -357 264 q -329 435 -346 365 q -303 472 -322 463 q -264 469 -283 482 q -237 428 -244 457 q -278 307 -219 368 q -191 269 -240 269 q -99 296 -142 269 q -25 364 -56 322 q -26 378 -25 369 q -26 392 -26 388 q 10 426 -26 418 q 83 424 46 435 q 122 392 121 413 q 122 349 122 378 q 124 297 122 319 q 137 331 129 313 q 158 377 144 350 q 187 426 172 404 q 220 466 201 447 q 256 487 239 485 q 293 479 274 489 q 310 457 303 472 q 322 427 318 442 q 329 390 326 413 q 333 355 332 367 q 334 323 333 343 q 335 301 335 303 q 390 415 358 369 q 453 478 421 461 q 515 492 485 496 q 568 463 546 489 q 610 363 599 426 q 617 242 621 300 q 615 119 613 183 q 632 21 617 56 q 720 50 654 -29 q 853 246 786 129 m -292 325 q -260 426 -244 381 q -274 449 -265 442 q -293 451 -283 456 q -307 431 -303 447 q -309 376 -314 407 q -292 325 -304 346 z "},"":{"ha":638,"x_min":-817,"x_max":664,"o":"m 638 246 l 664 246 q 626 172 636 192 q 581 94 615 151 q 520 8 546 36 q 456 -47 494 -21 q 381 -75 417 -74 q 303 -35 332 -76 q 266 71 275 6 q 256 201 257 136 q 253 331 254 267 q 246 417 253 394 q 175 369 229 475 q 122 226 129 279 q 124 7 125 24 q 84 -28 121 -18 q 13 -26 47 -37 q -19 11 -22 -15 q -24 347 -14 63 q -103 276 -56 304 q -208 249 -151 249 q -307 292 -265 250 q -446 208 -361 242 q -624 176 -531 174 q -768 233 -717 178 q -782 338 -817 286 q -706 372 -754 379 q -635 322 -662 367 q -632 308 -631 314 q -641 302 -633 301 q -654 311 -649 303 q -735 347 -687 364 q -772 297 -771 335 q -751 249 -772 272 q -617 197 -704 197 q -450 231 -529 197 q -321 310 -371 264 q -343 435 -360 365 q -317 472 -336 463 q -278 469 -297 482 q -251 428 -258 457 q -292 307 -233 368 q -197 270 -249 267 q -99 306 -146 274 q -25 385 -53 338 l -25 388 q -26 392 -26 390 q 8 431 -28 422 q 83 426 44 439 q 121 392 121 414 q 122 315 122 368 q 183 436 139 382 q 278 498 228 490 q 371 435 329 506 q 399 304 397 386 q 401 142 401 222 q 418 21 400 61 q 506 50 440 -29 q 638 246 571 129 m -306 325 q -274 426 -258 381 q -288 449 -279 442 q -307 451 -297 456 q -321 431 -317 447 q -323 376 -328 407 q -306 325 -318 346 z "},"":{"ha":565,"x_min":-775,"x_max":592,"o":"m 565 246 l 592 246 q 556 177 571 203 q 516 123 542 151 q 456 85 490 94 q 379 83 422 75 q 315 18 343 42 q 247 -21 288 -6 q 77 -14 147 -57 q -15 114 7 29 q -17 293 -37 199 q -139 235 -71 244 q -265 276 -207 226 q -404 192 -319 226 q -582 160 -489 158 q -726 218 -675 163 q -740 322 -775 271 q -664 357 -712 364 q -593 307 -621 351 q -590 292 -589 299 q -599 287 -592 286 q -612 296 -607 288 q -693 332 -646 349 q -731 282 -729 319 q -710 233 -731 257 q -575 182 -662 182 q -408 215 -487 182 q -279 294 -329 249 q -301 419 -318 350 q -275 457 -294 447 q -236 454 -256 467 q -210 413 -217 442 q -250 292 -192 353 q -166 255 -214 256 q -76 279 -118 254 q -1 343 -33 304 q 88 470 28 419 q 236 532 147 521 q 348 506 304 539 q 390 397 392 474 q 436 317 426 371 q 434 211 446 264 q 399 122 422 158 q 494 147 450 108 q 565 246 538 186 m 253 50 q 306 61 279 49 q 346 96 332 74 q 213 250 229 146 q 253 385 200 332 q 364 410 300 432 q 333 476 367 458 q 257 481 300 494 q 175 415 208 465 q 133 305 142 365 q 133 187 125 244 q 174 90 142 129 q 253 50 206 50 m 374 131 q 406 210 393 160 q 409 309 418 260 q 361 368 400 358 q 301 325 324 378 q 306 193 274 257 q 374 131 326 150 m -264 310 q -232 411 -217 365 q -247 433 -237 426 q -265 436 -256 440 q -279 415 -275 432 q -281 361 -286 392 q -264 310 -276 331 z "},"":{"ha":631,"x_min":-824,"x_max":657,"o":"m 631 246 l 657 246 q 453 85 576 61 q 354 13 421 31 q 227 17 288 -6 q 150 93 167 40 q 165 3 151 86 q 185 -128 179 -81 q 189 -237 190 -175 q 171 -328 188 -300 q 92 -399 143 -375 q -11 -408 42 -424 q -89 -331 -64 -392 q -90 -54 -119 -258 q -24 260 -61 150 l -43 400 q -123 338 -76 361 q -222 319 -169 315 q -314 361 -275 322 q -453 277 -368 311 q -631 245 -537 243 q -775 303 -724 247 q -789 407 -824 356 q -712 442 -761 449 q -642 392 -669 436 q -639 377 -637 383 q -648 372 -640 371 q -661 381 -656 372 q -742 417 -694 433 q -779 367 -778 404 q -758 318 -779 342 q -624 267 -711 267 q -457 300 -536 267 q -328 379 -378 333 q -350 504 -367 435 q -324 542 -343 532 q -285 539 -304 551 q -258 497 -265 526 q -299 376 -240 438 q -213 340 -262 340 q -121 365 -164 339 q -47 431 -78 390 l -53 461 q -40 478 -54 469 q -4 491 -25 486 q 39 497 17 496 q 77 494 61 499 q 94 476 93 489 l 111 368 q 195 484 142 443 q 321 510 249 525 q 464 366 424 489 q 471 129 504 243 q 494 128 476 125 q 532 138 513 132 q 579 172 551 143 q 631 246 607 200 m 339 190 q 347 263 346 218 q 340 356 347 308 q 308 432 333 403 q 242 453 282 461 q 125 299 172 436 q 136 210 129 274 q 146 126 143 146 q 183 226 144 183 q 274 243 221 268 q 339 190 300 232 m 38 -304 q 44 -233 43 -265 q 37 -137 44 -200 q 22 -32 29 -74 q 6 67 15 10 q -7 144 -4 124 q -49 -105 -32 39 q -47 -315 -65 -249 q -21 -358 -37 -349 q 13 -351 -4 -367 q 38 -304 29 -335 m 278 88 q 322 142 307 106 q 298 168 321 143 q 261 200 275 193 q 203 176 222 222 q 203 96 183 132 q 278 88 224 56 m -312 394 q -281 496 -265 450 q -295 518 -286 511 q -314 521 -304 525 q -328 500 -324 517 q -330 446 -335 476 q -312 394 -325 415 z "},"":{"ha":739,"x_min":-778,"x_max":765,"o":"m 765 246 q 643 49 689 100 q 511 -18 597 -3 l 519 -39 q 522 -202 536 -92 q 475 -360 507 -312 q 365 -412 436 -417 q 260 -344 294 -408 q 243 -298 249 -325 q 235 -246 238 -271 q 235 -183 232 -221 q 240 -123 238 -146 q 249 -58 242 -100 q 258 -2 256 -17 q 269 52 261 13 q 278 93 278 92 q 138 54 217 43 q -1 143 38 69 q -19 308 -40 217 q -142 251 -74 260 q -268 292 -210 242 q -407 208 -322 242 q -585 176 -492 174 q -729 233 -678 178 q -743 338 -778 286 q -667 372 -715 379 q -596 322 -624 367 q -593 308 -592 314 q -602 302 -594 301 q -615 311 -610 303 q -696 347 -649 364 q -733 297 -732 335 q -712 249 -733 272 q -578 197 -665 197 q -411 231 -490 197 q -282 310 -332 264 q -304 435 -321 365 q -278 472 -297 463 q -239 469 -258 482 q -212 428 -219 457 q -253 307 -194 368 q -167 270 -217 271 q -76 296 -118 269 q -1 363 -33 322 q 81 468 28 428 q 214 508 133 508 q 382 451 294 508 q 393 436 393 444 q 385 425 393 428 q 369 426 378 422 q 271 444 315 456 q 197 391 226 433 q 151 299 167 349 q 138 199 136 249 q 163 124 140 149 q 203 99 182 101 q 243 107 225 96 q 275 138 261 118 q 317 304 307 179 l 471 293 q 445 146 465 242 q 410 -22 425 50 q 387 -187 394 -94 q 399 -326 379 -281 q 438 -342 413 -374 q 478 -200 467 -299 q 474 -54 490 -101 q 449 -24 467 -24 l 449 24 q 550 38 507 24 q 626 86 593 53 q 679 149 658 119 q 732 233 700 179 q 739 246 736 242 l 765 246 m -267 325 q -235 426 -219 381 q -249 449 -240 442 q -268 451 -258 456 q -282 431 -278 447 q -284 376 -289 407 q -267 325 -279 346 z "},"":{"ha":467,"x_min":-736,"x_max":493,"o":"m 56 386 q 3 410 25 385 q -19 463 -18 435 q 22 526 -21 513 q 90 508 65 540 q 93 419 117 476 q 140 415 106 417 q 207 413 174 414 q 274 408 240 413 q 326 392 307 404 q 344 361 346 381 q 267 146 340 324 q 225 -25 201 -17 q 235 -25 229 -26 q 349 63 293 -8 q 467 246 406 135 l 493 246 q 459 182 488 236 q 418 107 431 128 q 375 41 406 86 q 322 -26 344 -4 q 263 -69 299 -47 q 190 -96 228 -90 q 117 146 47 -121 q 179 340 124 169 q 186 371 188 367 l 169 372 q 124 376 151 374 q 78 382 97 379 q -2 292 50 329 q -115 248 -54 254 q -226 292 -175 242 q -365 208 -281 242 q -543 176 -450 174 q -687 233 -636 178 q -701 338 -736 286 q -625 372 -674 379 q -554 322 -582 367 q -551 308 -550 314 q -560 302 -553 301 q -574 311 -568 303 q -654 347 -607 364 q -692 297 -690 335 q -671 249 -692 272 q -536 197 -624 197 q -369 231 -449 197 q -240 310 -290 264 q -262 435 -279 365 q -236 472 -256 463 q -197 469 -217 482 q -171 428 -178 457 q -211 307 -153 368 q -116 269 -168 264 q -19 307 -64 275 q 56 386 26 339 m -225 325 q -193 426 -178 381 q -208 449 -199 442 q -226 451 -217 456 q -240 431 -236 447 q -242 376 -247 407 q -225 325 -237 346 z "},"":{"ha":585,"x_min":-715,"x_max":611,"o":"m 75 340 q -6 274 42 300 q -110 249 -54 247 q -206 292 -165 251 q -344 208 -260 242 q -522 176 -429 174 q -667 233 -615 178 q -681 338 -715 286 q -604 372 -653 379 q -533 322 -561 367 q -531 308 -529 314 q -540 302 -532 301 q -553 311 -547 303 q -633 347 -586 364 q -671 297 -669 335 q -650 249 -671 272 q -515 197 -603 197 q -349 231 -428 197 q -219 310 -269 264 q -242 435 -258 365 q -215 472 -235 463 q -176 469 -196 482 q -150 428 -157 457 q -190 307 -132 368 q -104 271 -154 271 q -12 297 -54 271 q 63 364 31 324 q 11 496 19 467 q 58 614 -3 568 q 165 633 114 656 q 207 488 233 606 q 192 436 201 464 q 325 63 299 176 q 450 97 411 76 q 585 246 528 140 l 611 246 q 493 77 554 124 q 335 11 432 31 q 329 -178 350 -89 q 235 -294 308 -267 q 67 -267 150 -326 q -12 -137 -10 -212 q 121 17 -17 -37 q 164 32 140 25 q 75 340 125 214 m 160 -182 q 174 -15 188 -137 q 32 -124 38 -51 q 72 -197 28 -169 q 151 -193 119 -226 q 160 -182 156 -189 m -204 325 q -172 426 -157 381 q -187 449 -178 442 q -206 451 -196 456 q -219 431 -215 447 q -222 376 -226 407 q -204 325 -217 346 z "},"":{"ha":413,"x_min":-889,"x_max":439,"o":"m 413 246 l 439 246 q 215 -79 335 19 q 33 -74 94 -181 q 3 17 14 -39 q -22 468 -24 149 q -107 435 -57 464 q -196 381 -157 406 q -285 355 -235 356 q -379 397 -336 354 q -518 313 -433 347 q -696 281 -603 279 q -840 339 -789 283 q -854 443 -889 392 q -778 478 -826 485 q -707 428 -735 472 q -704 413 -703 419 q -713 408 -706 407 q -726 417 -721 408 q -807 453 -760 469 q -844 403 -843 440 q -824 354 -844 378 q -689 303 -776 303 q -522 336 -601 303 q -393 415 -443 369 q -415 540 -432 471 q -389 578 -408 568 q -350 575 -369 588 q -324 533 -331 563 q -364 413 -306 474 q -297 377 -333 379 q -226 395 -261 375 q -157 441 -190 415 q -87 490 -124 467 q -22 515 -50 513 q -22 599 -22 547 q -21 671 -21 651 q 26 738 -21 711 q 119 754 72 765 q 167 690 167 743 l 163 546 q 192 551 181 549 q 212 556 204 554 q 239 560 219 557 q 253 550 249 561 q 256 526 258 539 q 244 513 253 514 q 163 497 219 508 q 160 167 156 310 q 189 6 165 24 q 284 56 219 -18 q 413 246 349 131 m -378 431 q -346 532 -331 486 q -360 554 -351 547 q -379 557 -369 561 q -393 536 -389 553 q -395 482 -400 513 q -378 431 -390 451 z "},"":{"ha":660,"x_min":-822,"x_max":686,"o":"m 660 246 l 686 246 q 533 0 596 68 q 403 -76 467 -74 q 330 -37 358 -78 q 288 74 301 4 q 100 -76 190 -72 q 28 -35 57 -78 q -13 81 -1 8 q -29 219 -25 154 q -32 354 -33 283 q -112 284 -65 311 q -215 258 -160 257 q -312 301 -271 260 q -451 217 -367 251 q -629 185 -536 183 q -774 243 -722 188 q -787 347 -822 296 q -711 382 -760 389 q -640 332 -668 376 q -637 317 -636 324 q -647 312 -639 311 q -660 321 -654 313 q -740 357 -693 374 q -778 307 -776 344 q -757 258 -778 282 q -622 207 -710 207 q -456 240 -535 207 q -326 319 -376 274 q -349 444 -365 375 q -322 482 -342 472 q -283 479 -303 492 q -257 438 -264 467 q -297 317 -239 378 q -203 279 -254 275 q -106 315 -151 283 q -31 394 -60 347 q 7 428 -29 417 q 80 432 43 439 q 117 404 117 425 q 138 19 121 54 q 191 17 153 -15 q 281 122 229 50 q 274 401 267 233 q 310 433 274 422 q 384 436 347 443 q 421 408 421 429 q 422 335 421 392 q 422 238 422 278 q 424 147 422 197 q 430 65 426 97 q 439 19 433 32 q 528 50 461 -31 q 660 246 594 131 m -311 335 q -279 436 -264 390 q -294 458 -285 451 q -312 461 -303 465 q -326 440 -322 457 q -328 386 -333 417 q -311 335 -324 356 z "},"":{"ha":619,"x_min":-826,"x_max":646,"o":"m 619 246 l 646 246 q 561 138 615 174 q 447 107 507 101 q 336 157 388 113 q 160 -28 254 -15 q 94 -16 124 -32 q 44 26 64 0 q 10 97 25 53 q -12 179 -4 140 q -24 270 -19 218 q -31 356 -29 322 q -33 432 -32 389 q -113 361 -65 389 q -218 334 -161 333 q -317 376 -275 335 q -456 292 -371 326 q -633 260 -540 258 q -778 318 -726 263 q -792 422 -826 371 q -715 457 -764 464 q -644 407 -672 451 q -642 392 -640 399 q -651 387 -643 386 q -664 396 -658 388 q -744 432 -697 449 q -782 382 -781 419 q -761 333 -782 357 q -626 282 -714 282 q -460 315 -539 282 q -331 394 -381 349 q -353 519 -369 450 q -326 557 -346 547 q -287 554 -307 567 q -261 513 -268 542 q -301 392 -243 453 q -206 354 -258 349 q -109 392 -154 360 q -35 471 -64 424 q 4 499 -35 492 q 82 501 43 507 q 121 483 121 496 q 141 219 122 365 q 196 47 160 74 q 300 190 221 31 q 249 382 231 303 q 290 440 258 422 q 353 444 321 457 q 400 393 386 431 q 406 360 406 378 q 404 328 407 343 q 395 294 401 314 q 383 261 389 274 q 369 228 378 249 q 356 199 360 208 q 494 144 411 132 q 619 246 578 157 m 325 243 q 356 378 376 329 q 325 401 344 401 q 296 376 306 400 q 325 243 283 339 m -315 410 q -283 511 -268 465 q -298 533 -289 526 q -317 536 -307 540 q -331 515 -326 532 q -333 461 -337 492 q -315 410 -328 431 z "},"":{"ha":908,"x_min":-831,"x_max":935,"o":"m 908 246 l 935 246 q 851 138 906 174 q 737 107 797 101 q 625 157 676 113 q 449 -28 543 -15 q 292 115 342 -40 q 89 -58 186 -56 q 17 -22 46 -60 q -24 83 -12 17 q -40 208 -36 149 q -42 335 -43 267 q -122 267 -75 293 q -225 242 -169 240 q -321 285 -281 243 q -460 201 -375 235 q -637 169 -544 167 q -782 226 -731 171 q -796 331 -831 279 q -719 365 -768 372 q -649 315 -676 360 q -646 301 -644 307 q -655 295 -647 294 q -668 304 -662 296 q -749 340 -701 357 q -786 290 -785 328 q -765 242 -786 265 q -631 190 -718 190 q -464 224 -543 190 q -335 303 -385 257 q -357 428 -374 358 q -331 465 -350 456 q -292 463 -311 475 q -265 421 -272 450 q -306 300 -247 361 q -214 263 -264 258 q -119 297 -164 267 q -40 375 -74 328 q -3 412 -39 400 q 70 417 33 424 q 107 389 107 410 q 108 319 107 374 q 109 231 108 264 q 111 152 110 197 q 117 78 113 107 q 126 38 121 50 q 185 39 143 0 q 281 158 228 78 q 256 476 256 275 q 294 501 256 494 q 371 502 332 508 q 410 483 410 496 q 432 217 414 360 q 486 47 450 74 q 538 95 501 35 q 589 190 574 156 q 538 382 519 303 q 610 448 551 444 q 690 393 668 451 q 696 360 696 378 q 694 328 696 343 q 685 294 692 314 q 672 261 678 274 q 658 228 667 249 q 644 199 649 208 q 785 144 701 132 q 908 246 868 157 m 614 243 q 644 378 665 329 q 614 401 633 401 q 586 376 594 400 q 614 243 572 339 m -319 318 q -287 419 -272 374 q -302 442 -293 435 q -321 444 -311 449 q -335 424 -331 440 q -337 369 -342 400 q -319 318 -332 339 z "},"":{"ha":628,"x_min":-781,"x_max":656,"o":"m 24 244 q -110 142 -19 168 q -271 178 -200 115 q -410 94 -325 128 q -587 62 -494 60 q -732 119 -681 64 q -746 224 -781 172 q -669 258 -718 265 q -599 208 -626 253 q -596 194 -594 200 q -605 188 -597 188 q -618 197 -612 189 q -699 233 -651 250 q -736 183 -735 221 q -715 135 -736 158 q -581 83 -668 83 q -414 117 -493 83 q -285 196 -335 150 q -307 321 -324 251 q -281 358 -300 349 q -242 356 -261 368 q -215 314 -222 343 q -256 193 -197 254 q -114 163 -196 138 q 6 263 -32 189 q 34 333 13 276 q 78 418 56 390 q 136 453 100 446 q 229 421 186 461 q 294 325 272 381 q 426 433 357 428 q 438 424 435 433 q 437 405 440 415 q 428 393 433 394 q 313 269 378 386 q 342 145 326 225 q 372 26 358 65 q 406 -15 385 -14 q 510 63 444 -19 q 629 246 575 146 l 656 246 q 401 -76 518 -42 q 299 -44 342 -94 q 222 103 256 6 q 90 -64 156 -17 q 72 -65 81 -71 q 62 -48 63 -58 q 68 -29 61 -37 q 206 156 136 19 q 185 231 197 185 q 165 308 174 276 q 147 358 156 339 q 58 310 119 424 q 40 275 51 297 q 24 244 28 253 m -269 211 q -237 313 -222 267 q -252 335 -243 328 q -271 338 -261 342 q -285 317 -281 333 q -287 263 -292 293 q -269 211 -282 232 z "},"":{"ha":482,"x_min":-837,"x_max":508,"o":"m 508 250 q 407 71 436 111 q 267 -425 446 -361 q 97 -402 161 -462 q 71 -240 32 -342 q 118 -155 88 -199 q 201 -51 149 -111 q 258 15 253 8 q 256 56 258 25 q 81 -76 165 -72 q 9 -45 38 -78 q -31 45 -19 -12 q -47 156 -43 103 q -50 275 -51 210 q -131 208 -83 233 q -233 184 -178 182 q -328 226 -287 186 q -467 142 -382 176 q -644 110 -551 108 q -789 168 -737 113 q -803 272 -837 221 q -726 307 -775 314 q -656 257 -683 301 q -653 242 -651 249 q -662 237 -654 236 q -675 246 -669 238 q -756 282 -708 299 q -793 232 -792 269 q -772 183 -793 207 q -637 132 -725 132 q -471 165 -550 132 q -342 244 -392 199 q -364 369 -381 300 q -337 407 -357 397 q -299 404 -318 417 q -272 363 -279 392 q -312 242 -254 303 q -221 204 -271 201 q -126 238 -171 207 q -49 314 -81 268 q -11 356 -47 342 q 62 363 25 369 q 99 336 99 357 q 99 269 99 321 q 100 190 100 218 q 102 122 100 163 q 108 57 104 82 q 117 19 111 32 q 172 17 139 -8 q 250 108 204 42 q 224 381 226 328 q 243 428 219 406 q 301 450 267 451 q 353 413 335 449 q 399 115 374 374 q 422 145 413 131 q 438 170 432 160 q 456 205 443 181 q 482 250 469 229 l 508 250 m 197 -346 q 251 -256 233 -312 q 267 -144 268 -199 q 264 -36 265 -90 q 226 -80 258 -42 q 178 -140 194 -118 q 139 -195 161 -161 q 106 -257 117 -229 q 113 -358 81 -321 q 197 -346 144 -394 m -326 260 q -294 361 -279 315 q -309 383 -300 376 q -328 386 -318 390 q -342 365 -337 382 q -344 311 -349 342 q -326 260 -339 281 z "},"":{"ha":442,"x_min":-733,"x_max":468,"o":"m 82 383 q 1 292 53 331 q -110 248 -50 254 q -224 292 -171 242 q -362 208 -278 242 q -540 176 -447 174 q -685 233 -633 178 q -699 338 -733 286 q -622 372 -671 379 q -551 322 -579 367 q -549 308 -547 314 q -558 302 -550 301 q -571 311 -565 303 q -651 347 -604 364 q -689 297 -687 335 q -668 249 -689 272 q -533 197 -621 197 q -367 231 -446 197 q -237 310 -287 264 q -260 435 -276 365 q -233 472 -253 463 q -194 469 -214 482 q -168 428 -175 457 q -208 307 -150 368 q -112 269 -164 264 q -15 308 -60 275 q 60 389 31 342 q -15 467 -14 418 q 28 531 -17 517 q 96 511 69 543 q 97 422 121 479 q 144 418 111 419 q 212 416 178 417 q 279 411 246 415 q 332 395 313 407 q 350 364 351 383 q 236 163 342 299 q 315 149 294 160 q 339 115 335 139 q 352 128 343 119 q 365 141 361 138 q 376 153 368 144 q 388 166 383 161 q 399 181 392 171 q 413 199 407 190 q 426 220 418 208 q 442 246 433 232 l 468 246 q 431 184 450 214 q 385 119 411 154 q 349 71 358 85 q 207 -425 383 -362 q 37 -402 101 -462 q 11 -240 -28 -342 q 49 -171 24 -210 q 93 -110 75 -132 q 149 -44 111 -87 q 193 7 188 0 q 104 10 133 4 q 63 52 67 15 q 78 139 58 89 q 124 239 99 189 q 172 328 150 289 q 192 374 193 367 q 167 376 192 375 q 115 380 143 378 q 82 383 88 382 m 139 -346 q 192 -256 175 -312 q 207 -144 208 -199 q 204 -36 206 -90 q 157 -92 203 -37 q 85 -184 111 -146 q 46 -257 60 -222 q 53 -358 21 -321 q 139 -346 85 -394 m -222 325 q -190 426 -175 381 q -205 449 -196 442 q -224 451 -214 456 q -237 431 -233 447 q -240 376 -244 407 q -222 325 -235 346 z "},"":{"ha":640,"x_min":-47,"x_max":1450,"o":"m 321 388 q 235 394 289 413 q 167 344 197 383 q 124 258 136 304 q 117 169 111 213 q 150 110 122 126 q 233 131 199 82 q 272 233 267 179 q 354 303 290 265 q 436 308 431 349 q 429 268 439 294 q 400 0 357 57 q 422 -13 410 -11 q 447 -8 433 -15 q 476 12 461 0 q 506 43 490 24 q 536 81 522 63 q 565 123 550 99 q 591 164 581 147 q 613 201 601 181 q 629 230 625 222 q 639 247 633 238 q 720 334 668 299 q 831 372 772 369 q 940 326 890 374 q 1079 410 994 376 q 1257 442 1164 444 q 1401 385 1350 440 q 1415 281 1450 332 q 1339 246 1388 239 q 1268 296 1296 251 q 1265 310 1264 304 q 1274 316 1267 317 q 1288 307 1282 315 q 1368 271 1321 254 q 1406 321 1404 283 q 1385 369 1406 346 q 1250 421 1338 421 q 1083 388 1163 421 q 954 308 1004 354 q 976 183 993 253 q 950 146 969 156 q 911 149 931 136 q 885 190 892 161 q 925 311 867 250 q 787 341 864 365 q 667 246 710 317 q 644 204 658 231 q 617 156 629 178 q 586 103 604 133 q 553 52 568 74 q 517 4 538 31 q 477 -35 496 -22 q 434 -63 458 -49 q 388 -76 410 -78 q 339 -68 367 -74 q 274 9 293 -51 q 268 133 256 69 q 117 61 225 54 q -15 154 18 67 q 1 326 -47 239 q 186 439 58 431 q 236 438 211 440 q 335 410 310 429 q 334 401 336 408 q 328 390 332 394 q 321 388 324 385 m 939 293 q 907 192 892 238 q 922 169 913 176 q 940 167 931 163 q 954 188 950 171 q 956 242 961 211 q 939 293 951 272 z "},"":{"ha":576,"x_min":-29,"x_max":1386,"o":"m 576 246 q 657 333 604 297 q 768 371 710 368 q 876 326 826 374 q 1015 410 931 376 q 1193 442 1100 444 q 1338 385 1286 440 q 1351 281 1386 332 q 1275 246 1324 239 q 1204 296 1232 251 q 1201 310 1200 304 q 1210 316 1203 317 q 1224 307 1218 315 q 1304 271 1257 254 q 1342 321 1340 283 q 1321 369 1342 346 q 1186 421 1274 421 q 1019 388 1099 421 q 890 308 940 354 q 913 183 929 253 q 886 146 906 156 q 847 149 867 136 q 821 190 828 161 q 861 311 803 250 q 722 341 801 365 q 603 246 642 317 q 581 210 592 225 q 556 183 569 194 q 533 164 542 171 q 505 149 524 157 q 478 140 486 142 q 444 131 469 138 q 408 121 418 124 q 351 -32 393 32 q 232 -86 308 -96 q 146 -35 174 -78 q 152 58 118 7 q 288 136 186 110 q 282 275 297 206 q 204 308 261 363 q 125 206 169 278 q 118 3 125 68 q 101 -23 117 -12 q 63 -35 85 -33 q 21 -34 42 -37 q -14 -19 0 -31 q -26 7 -28 -8 q -23 240 -17 104 q -24 532 -29 376 q 6 739 -19 688 q 76 797 28 783 q 172 795 125 811 q 240 747 218 779 q 255 702 253 729 q 249 639 257 675 q 233 572 242 603 q 205 495 224 540 q 176 427 186 450 q 147 363 167 404 q 125 317 126 321 l 125 249 q 186 329 158 303 q 273 374 228 369 q 350 352 318 378 q 399 274 382 326 q 410 156 417 221 q 431 159 414 157 q 453 163 449 161 q 473 167 458 164 q 494 172 488 169 q 512 180 500 175 q 531 191 524 185 q 547 205 538 197 q 563 223 556 213 q 576 246 569 233 m 142 711 q 118 369 110 624 q 201 564 160 442 q 215 729 243 686 q 193 751 206 744 q 166 748 181 757 q 142 711 151 739 m 226 -24 q 285 104 258 1 q 169 22 182 82 q 188 -29 161 -14 q 226 -24 206 -40 m 875 293 q 843 192 828 238 q 858 169 849 176 q 876 167 867 163 q 890 188 886 171 q 892 242 897 211 q 875 293 888 272 z "},"":{"ha":443,"x_min":-32,"x_max":1253,"o":"m 269 464 q 218 476 250 483 q 160 433 186 468 q 115 308 129 393 q 119 143 101 224 q 186 42 136 63 q 311 77 242 18 q 443 246 381 136 q 524 331 472 296 q 635 369 576 365 q 743 326 693 374 q 882 410 797 376 q 1060 442 967 444 q 1204 385 1153 440 q 1218 281 1253 332 q 1142 246 1190 239 q 1071 296 1099 251 q 1068 310 1067 304 q 1077 316 1069 317 q 1090 307 1085 315 q 1171 271 1124 254 q 1208 321 1207 283 q 1188 369 1208 346 q 1053 421 1140 421 q 886 388 965 421 q 757 308 807 354 q 779 183 796 253 q 753 146 772 156 q 714 149 733 136 q 688 190 694 161 q 728 311 669 250 q 591 341 671 364 q 469 246 511 318 q 346 56 386 104 q 153 -53 253 -56 q 24 26 72 -50 q -28 199 -24 103 q 6 385 -32 294 q 117 503 43 475 q 219 515 168 522 q 301 478 271 508 q 304 451 319 460 q 269 464 292 444 m 742 293 q 710 192 694 238 q 724 169 715 176 q 743 167 733 163 q 757 188 753 171 q 759 242 764 211 q 742 293 754 272 z "},"":{"ha":665,"x_min":-37,"x_max":1475,"o":"m 665 246 q 742 336 689 300 q 855 373 796 372 q 965 326 914 374 q 1104 410 1019 376 q 1282 442 1189 444 q 1426 385 1375 440 q 1440 281 1475 332 q 1364 246 1413 239 q 1293 296 1321 251 q 1290 310 1289 304 q 1299 316 1292 317 q 1313 307 1307 315 q 1393 271 1346 254 q 1431 321 1429 283 q 1410 369 1431 346 q 1275 421 1363 421 q 1108 388 1188 421 q 979 308 1029 354 q 1001 183 1018 253 q 975 146 994 156 q 936 149 956 136 q 910 190 917 161 q 950 311 892 250 q 810 341 890 365 q 692 246 731 317 q 670 204 688 238 q 644 154 653 171 q 615 104 635 138 q 581 51 596 71 q 545 6 567 32 q 504 -35 524 -19 q 461 -62 485 -50 q 414 -76 438 -74 q 315 -35 354 -82 q 257 100 276 13 q 169 26 219 54 q 13 53 71 -32 q -25 235 -37 125 q 63 386 -11 351 q 156 393 103 406 q 236 360 203 381 q 261 630 239 501 q 306 785 283 758 q 422 814 347 831 q 529 739 496 797 q 529 465 581 644 q 389 221 478 286 q 389 183 389 218 q 390 125 389 147 q 396 71 392 103 q 408 19 400 39 q 431 -6 417 0 q 517 30 464 -21 q 608 142 569 81 q 665 246 647 204 m 424 707 q 383 261 385 436 q 463 388 425 294 q 510 575 501 482 q 486 729 519 668 q 449 756 469 758 q 424 707 429 753 m 156 65 q 203 88 176 67 q 250 136 229 108 q 236 322 239 218 q 150 361 188 365 q 112 327 126 358 q 96 252 97 296 q 100 166 94 208 q 121 94 106 124 q 156 65 136 65 m 964 293 q 932 192 917 238 q 947 169 938 176 q 965 167 956 163 q 979 188 975 171 q 981 242 986 211 q 964 293 976 272 z "},"":{"ha":444,"x_min":-29,"x_max":1254,"o":"m 444 246 q 524 333 472 297 q 635 371 576 368 q 744 326 694 374 q 883 410 799 376 q 1061 442 968 444 q 1206 385 1154 440 q 1219 281 1254 332 q 1143 246 1192 239 q 1072 296 1100 251 q 1069 310 1068 304 q 1078 316 1071 317 q 1092 307 1086 315 q 1172 271 1125 254 q 1210 321 1208 283 q 1189 369 1210 346 q 1054 421 1142 421 q 888 388 967 421 q 758 308 808 354 q 781 183 797 253 q 754 146 774 156 q 715 149 735 136 q 689 190 696 161 q 729 311 671 250 q 592 341 672 364 q 471 246 513 318 q 349 57 388 104 q 154 -53 254 -57 q 44 1 89 -50 q -15 125 -1 51 q -23 276 -29 199 q 21 417 -17 353 q 117 503 58 481 q 253 508 188 531 q 332 425 319 485 q 270 302 343 365 q 111 203 197 239 q 188 40 118 69 q 315 77 243 18 q 444 246 386 136 m 161 433 q 111 231 111 369 q 256 326 196 274 q 300 424 315 378 q 243 474 285 468 q 161 433 201 481 m 743 293 q 711 192 696 238 q 726 169 717 176 q 744 167 735 163 q 758 188 754 171 q 760 242 765 211 q 743 293 756 272 z "}}}
